<?xml version="1.0" encoding="UTF-8"?><svg id="Layer_10" xmlns="http://www.w3.org/2000/svg" viewBox="0 0 712.5 197.07"><defs><style>.cls-1{fill:#6f72af;}.cls-2{fill:#1d70b8;}.cls-3{fill:#d53880;}.cls-4{fill:#0b0c0c;}.cls-5{fill:#fff;}.cls-6{fill:#5694ca;}.cls-7{fill:#28a197;}.cls-8{fill:#fd0;}.cls-9{fill:#d4351c;}.cls-10{fill:#00703c;}</style></defs><g id="_1x1_2__blue"><g id="block"><polygon id="surface" class="cls-2" points="356.25 113.34 419.83 140.35 419.83 170.06 356.25 197.07 292.67 170.06 292.67 140.35 356.25 113.34"/><path id="outline" class="cls-4" d="M356.25,113.34l63.58,27.01v29.7l-63.58,27.01-63.58-27.01v-29.7l63.58-27.01ZM356.25,113.53l-63.13,26.82,63.13,26.82,63.13-26.82-63.13-26.82ZM356.43,196.8l63.23-26.86v-29.32l-63.23,26.86v29.32ZM292.85,169.94l63.23,26.86v-29.32l-63.23-26.86v29.32Z"/></g><g id="crown"><path class="cls-4" d="M348.77,134.79c-.39.07-.79.1-1.18.1-1.21,0-2.35-.31-2.87-.84-.19-.19-.28-.39-.27-.63v-.4s0,.35,0,.35v-1.16s0,.37,0,.37v-.37s0,.22,0,.22v-1.55s0,.2,0,.2v-3.54s0-.01,0-.02c0-.08,0-.16.03-.22.01-.04.05-.08.07-.12.02-.04.04-.07.07-.11.28-.4.91-.72,1.79-.88,1.57-.28,3.39.04,4.06.72.24.24.29.47.27.66,0,0,0,0,0,0v5.88c0,.6-.77,1.12-1.97,1.33ZM350.36,127.02c-.63-.64-2.4-.95-3.93-.68-1.52.27-2.25,1.01-1.61,1.66.64.66,2.4.96,3.92.69,1.52-.27,2.26-1.02,1.62-1.67Z"/><path class="cls-4" d="M362.44,128.37l4.53-1.92,1.86,1.52c.15,0,.3,0,.45,0l2.34-1.92,4.38,1.86v5.95s-.94.21-.94.21v.02h0v.02h0v.02h0v.08h0v.02h0v.03h0v.02h0v.02h0v.02h0v.05h0v.06h0v.03h0v.13h0v.02h0v.06h0v.03h0v.06h0v.02h0v.05h0v.09h0v.02h0v.02h0v.15h0v.13h0v.08h0v.11h0v.09h0v.23s-1.73.73-1.73.73v.23c.12.01.23.02.35.04.9.16,1.53.5,1.8.92,0,.01.02.03.03.04.03.05.07.1.09.15.02.07.03.15.03.24,0,0,0,.02,0,.03v5.88c0,.22-.08.42-.27.61-.31.31-.86.56-1.57.7v.84s0,.05,0,.05v.08s0,.03,0,.06v.18s0,.03,0,.06v.18s0,.03,0,.02v.74h0v.14h0s0,.09,0,.09v.13s0,.03,0,.06v.04c0,.22-.08.42-.27.61-.66.68-2.47,1-4.03.73-.78-.14-1.37-.39-1.69-.72h-.01v.83h0v.03h0v.5h0v.11h0s0,.12,0,.12v.61h0v.53l-.33.02c-4.33.28-8.88,1.08-14.33,2.5h-.06s-.05-.01-.05-.01c-3.8-2.15-8.24-4.31-13.2-6.42-4.96-2.11-10.05-4-15.12-5.61l-.28-.1v-5.94l.25-.17c3.33-2.3,5.19-4.22,5.85-6.03l.04-.12,4.54.92v-2.02h0s0-.03,0-.04h0s0-.01,0-.02c0-.08,0-.16.03-.22.01-.04.05-.07.07-.11.02-.04.04-.07.07-.11.28-.4.91-.72,1.79-.88,1.57-.28,3.39.04,4.06.72.25.25.29.49.27.68h0v2.79c.74-.15,1.62-.26,2.65-.32h.11s.03.1.03.1c.08.25.11.48.1.7,0,.01,0,.02,0,.03v3.99l1.28-.65v.02s0,0,0,0v.24c-.05.96.69,1.51,1.91,2.07.79-.73,1-2.34,1-2.35l.02-.19,4.26,1.81v-2.01h0s0-.03,0-.05h0s0-.01,0-.02c0-.08,0-.16.03-.22.09-.28.35-.52.73-.72h0s0-.03,0-.05c0-.01,0-.03,0-.05,0-.01,0-.03,0-.05,0-.01,0-.03,0-.05,0-.02,0-.03,0-.05,0-.01,0-.03,0-.05,0-.01,0-.03,0-.05,0-.01,0-.03,0-.05,0-.01,0-.03,0-.05,0-.01,0-.03,0-.05,0-.01,0-.03,0-.05,0-.02,0-.03,0-.05,0-.01,0-.03,0-.05,0-.01,0-.03,0-.05,0-.01,0-.03,0-.05,0-.01,0-.03,0-.05,0-.01,0-.03,0-.05,0-.01,0-.03,0-.05,0-.02,0-.03,0-.05,0-.01,0-.03,0-.05,0-.01,0-.03,0-.05,0-.01,0-.03,0-.05,0-.02,0-.03,0-.05,0-.01,0-.03,0-.05,0-.01,0-.03,0-.05,0-.02,0-.03,0-.05,0-.02,0-.03,0-.05,0-.01,0-.03,0-.05,0-.01,0-.03,0-.05,0-.02,0-.03,0-.05,0-.01,0-.03,0-.05,0-.01,0-.03,0-.05,0-.01,0-.03,0-.05,0-.02,0-.03,0-.05,0-.01,0-.03,0-.05,0-.01,0-.03,0-.05,0-.01,0-.03,0-.05,0-.01,0-.03,0-.05,0-.01,0-.03,0-.05,0-.01,0-.03,0-.05,0-.02,0-.03,0-.05,0-.01,0-.03,0-.05,0-.01,0-.03,0-.05,0-.01,0-.03,0-.05,0-.01,0-.03,0-.05,0-.01,0-.03,0-.05,0-.01,0-.03,0-.05,0-.02,0-.03,0-.05,0-.01,0-.03,0-.05,0-.01,0-.03,0-.05,0-.01,0-.03,0-.05,0-.02,0-.03,0-.05,0-.01,0-.03,0-.05,0-.01,0-.03,0-.05,0-.02,0-.03,0-.05,0-.02,0-.03,0-.05,0-.01,0-.03,0-.05,0-.01,0-.03,0-.05,0-.02,0-.03,0-.05,0-.01,0-.03,0-.05,0-.01,0-.03,0-.05,0-.01,0-.03,0-.05,0-.02,0-.03,0-.05,0-.01,0-.03,0-.05,0-.01,0-.03,0-.05,0-.01,0-.03,0-.05,0-.01,0-.03,0-.05,0-.01,0-.03,0-.05,0-.01,0-.03,0-.05,0-.02,0-.03,0-.05,0-.01,0-.03,0-.05,0-.01,0-.03,0-.05,0-.01,0-.03,0-.05,0-.01,0-.03,0-.05,0-.01,0-.03,0-.05,0-.01,0-.03,0-.05,0-.02,0-.03,0-.05,0-.01,0-.03,0-.05,0-.01,0-.03,0-.05,0-.01,0-.03,0-.05,0-.02,0-.03,0-.05,0-.01,0-.03,0-.05,0-.01,0-.03,0-.05,0-.02,0-.03,0-.05,0-.02,0-.03,0-.05,0-.01,0-.03,0-.05,0-.01,0-.03,0-.05,0-.02,0-.03,0-.05,0-.01,0-.03,0-.05,0-.01,0-.03,0-.05,0-.01,0-.03,0-.05,0-.02,0-.03,0-.05,0-.01,0-.03,0-.05,0-.01,0-.03,0-.05,0-.01,0-.03,0-.05,0-.01,0-.03,0-.05,0-.01,0-.03,0-.05,0-.01,0-.03,0-.05,0-.02,0-.03,0-.05,0-.01,0-.03,0-.05,0-.01,0-.03,0-.05,0-.01,0-.03,0-.05,0-.01,0-.03,0-.05,0-.01,0-.03,0-.05,0-.01,0-.03,0-.05,0-.02,0-.03,0-.05,0-.01,0-.03,0-.05,0-.01,0-.03,0-.05,0-.01,0-.03,0-.06,0,0,0-.01,0-.02,0-.08,0-.16.03-.22.01-.03.04-.06.06-.09.03-.05.06-.11.1-.16.29-.39.91-.7,1.78-.85,1.57-.28,3.39.04,4.06.72.24.24.29.47.27.65v2.06s0,.01,0,.01c.06-.03.1-.06.16-.08.26-.11.55-.2.9-.28l1.58-.34M335.09,130.43h-.01s.01,0,.01,0h0ZM341,127.8c-.63-.64-2.4-.95-3.93-.68-1.52.27-2.25,1.01-1.61,1.66.64.66,2.4.96,3.92.69,1.52-.27,2.26-1.02,1.62-1.67ZM353.12,135.03c.64.66,2.4.96,3.92.69,1.52-.27,2.26-1.02,1.62-1.67-.63-.64-2.4-.95-3.93-.68-1.52.27-2.25,1.01-1.61,1.66ZM359.43,128c-.63-.64-2.4-.95-3.93-.68-1.52.27-2.25,1.01-1.61,1.66.64.66,2.4.96,3.92.69,1.52-.27,2.26-1.02,1.62-1.67ZM374.58,129.85l-3.53-.78h0c.02-.08.03-.15,0-.23h0s4.47-.99,4.47-.99l-1.94-.82-1.94-.82-2.32,1.9h-.01c-.17,0-.35,0-.52,0h-.02l-1.83-1.5-3.96,1.68,4.09.54h0c-.02.08-.02.16,0,.24l-6.19,1.32s-.02,0-.02,0h0s0,0,0,0c-.3.07-.59.16-.84.27-1.26.53-1.37,1.37-.34,1.96.02,0,.03.02.05.03.09.05.19.1.29.14h0c.11.05.22.09.34.12.02,0,.04.01.06.02,1.39.44,3.35.39,4.61-.14.26-.11.46-.23.62-.36h0s0,0,.01-.01l3.11-2.63c.18.01.37.01.55,0h.01l1.27,1.74,3.96-1.68ZM369.06,135.42c1.51.27,3.27-.04,3.9-.69.64-.65-.08-1.4-1.6-1.67-1.54-.27-3.3.04-3.93.69-.63.65.09,1.39,1.63,1.67ZM375.24,138.59c.64-.65-.08-1.4-1.6-1.67-1.54-.27-3.3.04-3.93.69-.64.65.09,1.39,1.63,1.67,1.51.27,3.27-.04,3.9-.69ZM369.51,143.25c1.51.27,3.27-.04,3.9-.69.64-.65-.08-1.4-1.59-1.67-1.54-.27-3.3.04-3.93.69-.63.65.09,1.39,1.63,1.67ZM367.51,145.13v-.24s0,.11,0,.11v-.16s0,.11,0,.11v-.16s0,.11,0,.11v-.16s0,.11,0,.11v-.16s0,.11,0,.11v-.16s0,.11,0,.11v-.16s0,.11,0,.11v-.16s0,.11,0,.11v-.16s0,.11,0,.11v-.16s0,.11,0,.11v-.77s0,.21,0,.21v-.26s0,.21,0,.21v-.26s0,.21,0,.21v-.26s0,.21,0,.21v-.26s0,.21,0,.21v-.26s0,.21,0,.21v-.26s0,.21,0,.21v-.26s0,.21,0,.21v-.26s0,.21,0,.21v-.26s0,.21,0,.21v-.26s0,.21,0,.21v-.26s0,.21,0,.21v-.28h0v-.14h0v-.05h0v-.33h0v-.05h0v-.14h0v-.14h0v-.26c-.02-.18.03-.41.27-.65.08-.08.18-.16.3-.24-.65-.27-1.02-.64-1.02-1.08v-.65h0v-.37h0v-.39s0,.21,0,.21v-.25s0,.21,0,.21v-.25s0,.21,0,.21v-.25s0,.21,0,.21v-.25s0,.21,0,.21v-.25s0,.21,0,.21v-.25s0,.21,0,.21v-.25s0,.21,0,.21v-.25s0,.21,0,.21v-.25s0,.21,0,.21v-.25s0,.21,0,.21v-.25s0,.21,0,.21v-.51h0v-.05h0v-.05h0v-.05h0v-.37h-.01s-1.28,1.08-1.28,1.08l-.04.04h-.01c-.17.13-.38.24-.62.35-1.06.45-2.6.55-3.92.31l-2.12.65v.08c1.22-.43,2.84-.62,5.24-.49h.19v.21h0v.08h0v.7h0v.54s0,.03,0,.03v.7h0v.05h0v.26h0v.74h0v.05h0v.03h0v.17h0v.19h0v.78h0v.09h0v.05c.32-.17.65-.35,1.04-.61l.09-.06,1.9,1.7ZM339.87,141.36c5.08,2.16,9.54,4.35,13.21,6.43,6.33-1.66,10.74-2.27,14.36-2.51l-1.85-1.66c-1.18.74-1.81,1.05-3.07,1.31-.01-.4.39-.95,1.35-1.66l-6.04,1.38c1.43.11,2.47.23,3.23.54-4.19.65-6.58.26-7.46-.28-1.07-.66-.5-1.41.69-1.75,1.71-.47,3.52-.01,2.56.97,3.92-.57,2.55-1.85.37-2.11,4.32,0,6.48-.71,7.06-2.43-4.29-.24-6.16.53-7.65,2.09.21-1.29-2.88-1.86-4.7-.41,2.61-.24,2.97.76,1.25,1.31-1.49.48-4.28.2-6.25-.8-2.81-1.43-.86-2.42.83-3.2.9.26,1.56,1.14,1.09,2.34l5.36-1.91c-2.59.02-4-.36-5.32-.89,1.76-.38,5.9-.48,5.9-.48l-3.3-1.4h0s-2.85-1.21-2.85-1.21c0,0-.22,1.76-1.12,2.51-1.24-.56-2.14-1.16-2.09-2.26l-4.5,2.28c2.8-.2,4.88.08,5.5.46-1.84.72-4.16,1.55-7.53.35-2.34-.84-3.02-2.02-1.88-2.66,1.29-.73,3.65-.58,3.08.53,3.42-.78,2.09-2.09-.96-2,3.68-.64,5.5-1.43,4.92-3.25-4.06.24-5.73,1.16-5.73,3-.63-.93-3.64-1.51-4.98.16,2.31-.41,3.39.36,2.28,1.09-.79.51-2.56.75-4.12.29-1.27-.37-2.2-1.39-.66-3.17.73.33,1.01.76,1.27,1.37l3.25-2.57c-1.66.41-2.96.58-3.9.57.62-.54,1.35-.81,3.09-1.3l-3.9-.79c-.56,1.54-2.01,3.41-5.91,6.1,4.9,1.56,10.05,3.46,15.13,5.62Z"/></g></g><g id="_1x1_2__light-blue"><g id="block-2"><polygon id="surface-2" class="cls-6" points="356.25 56.72 419.83 83.74 419.83 113.44 356.25 140.45 292.67 113.44 292.67 83.74 356.25 56.72"/><path id="outline-2" class="cls-4" d="M356.25,56.72l63.58,27.01v29.7l-63.58,27.01-63.58-27.01v-29.7l63.58-27.01ZM356.25,56.91l-63.13,26.82,63.13,26.82,63.13-26.82-63.13-26.82ZM356.43,140.19l63.23-26.86v-29.32l-63.23,26.86v29.32ZM292.85,113.32l63.23,26.86v-29.32l-63.23-26.86v29.32Z"/></g><g id="crown-2"><path class="cls-4" d="M348.77,78.18c-.39.07-.79.1-1.18.1-1.21,0-2.35-.31-2.87-.84-.19-.19-.28-.39-.27-.63v-.4s0,.35,0,.35v-1.16s0,.37,0,.37v-.37s0,.22,0,.22v-1.55s0,.2,0,.2v-3.54s0-.01,0-.02c0-.08,0-.16.03-.22.01-.04.05-.08.07-.12.02-.04.04-.07.07-.11.28-.4.91-.72,1.79-.88,1.57-.28,3.39.04,4.06.72.24.24.29.47.27.66,0,0,0,0,0,0v5.88c0,.6-.77,1.12-1.97,1.33ZM350.36,70.41c-.63-.64-2.4-.95-3.93-.68-1.52.27-2.25,1.01-1.61,1.66.64.66,2.4.96,3.92.69,1.52-.27,2.26-1.02,1.62-1.67Z"/><path class="cls-4" d="M362.44,71.75l4.53-1.92,1.86,1.52c.15,0,.3,0,.45,0l2.34-1.92,4.38,1.86v5.95s-.94.21-.94.21v.02h0v.02h0v.02h0v.08h0v.02h0v.03h0v.02h0v.02h0v.02h0v.05h0v.06h0v.03h0v.13h0v.02h0v.06h0v.03h0v.06h0v.02h0v.05h0v.09h0v.02h0v.02h0v.15h0v.13h0v.08h0v.11h0v.09h0v.23s-1.73.73-1.73.73v.23c.12.01.23.02.35.04.9.16,1.53.5,1.8.92,0,.01.02.03.03.04.03.05.07.1.09.15.02.07.03.15.03.24,0,0,0,.02,0,.03v5.88c0,.22-.08.42-.27.61-.31.31-.86.56-1.57.7v.84s0,.05,0,.05v.08s0,.03,0,.06v.18s0,.03,0,.06v.18s0,.03,0,.02v.74h0v.14h0s0,.09,0,.09v.13s0,.03,0,.06v.04c0,.22-.08.42-.27.61-.66.68-2.47,1-4.03.73-.78-.14-1.37-.39-1.69-.72h-.01v.83h0v.03h0v.5h0v.11h0s0,.12,0,.12v.61h0v.53l-.33.02c-4.33.28-8.88,1.08-14.33,2.5h-.06s-.05-.01-.05-.01c-3.8-2.15-8.24-4.31-13.2-6.42-4.96-2.11-10.05-4-15.12-5.61l-.28-.1v-5.94l.25-.17c3.33-2.3,5.19-4.22,5.85-6.03l.04-.12,4.54.92v-2.02h0s0-.03,0-.04h0s0-.01,0-.02c0-.08,0-.16.03-.22.01-.04.05-.07.07-.11.02-.04.04-.07.07-.11.28-.4.91-.72,1.79-.88,1.57-.28,3.39.04,4.06.72.25.25.29.49.27.68h0v2.79c.74-.15,1.62-.26,2.65-.32h.11s.03.1.03.1c.08.25.11.48.1.7,0,.01,0,.02,0,.03v3.99l1.28-.65v.02s0,0,0,0v.24c-.05.96.69,1.51,1.91,2.07.79-.73,1-2.34,1-2.35l.02-.19,4.26,1.81v-2.01h0s0-.03,0-.05h0s0-.01,0-.02c0-.08,0-.16.03-.22.09-.28.35-.52.73-.72h0s0-.03,0-.05c0-.01,0-.03,0-.05,0-.01,0-.03,0-.05,0-.01,0-.03,0-.05,0-.02,0-.03,0-.05,0-.01,0-.03,0-.05,0-.01,0-.03,0-.05,0-.01,0-.03,0-.05,0-.01,0-.03,0-.05,0-.01,0-.03,0-.05,0-.01,0-.03,0-.05,0-.02,0-.03,0-.05,0-.01,0-.03,0-.05,0-.01,0-.03,0-.05,0-.01,0-.03,0-.05,0-.01,0-.03,0-.05,0-.01,0-.03,0-.05,0-.01,0-.03,0-.05,0-.02,0-.03,0-.05,0-.01,0-.03,0-.05,0-.01,0-.03,0-.05,0-.01,0-.03,0-.05,0-.02,0-.03,0-.05,0-.01,0-.03,0-.05,0-.01,0-.03,0-.05,0-.02,0-.03,0-.05,0-.02,0-.03,0-.05,0-.01,0-.03,0-.05,0-.01,0-.03,0-.05,0-.02,0-.03,0-.05,0-.01,0-.03,0-.05,0-.01,0-.03,0-.05,0-.01,0-.03,0-.05,0-.02,0-.03,0-.05,0-.01,0-.03,0-.05,0-.01,0-.03,0-.05,0-.01,0-.03,0-.05,0-.01,0-.03,0-.05,0-.01,0-.03,0-.05,0-.01,0-.03,0-.05,0-.02,0-.03,0-.05,0-.01,0-.03,0-.05,0-.01,0-.03,0-.05,0-.01,0-.03,0-.05,0-.01,0-.03,0-.05,0-.01,0-.03,0-.05,0-.01,0-.03,0-.05,0-.02,0-.03,0-.05,0-.01,0-.03,0-.05,0-.01,0-.03,0-.05,0-.01,0-.03,0-.05,0-.02,0-.03,0-.05,0-.01,0-.03,0-.05,0-.01,0-.03,0-.05,0-.02,0-.03,0-.05,0-.02,0-.03,0-.05,0-.01,0-.03,0-.05,0-.01,0-.03,0-.05,0-.02,0-.03,0-.05,0-.01,0-.03,0-.05,0-.01,0-.03,0-.05,0-.01,0-.03,0-.05,0-.02,0-.03,0-.05,0-.01,0-.03,0-.05,0-.01,0-.03,0-.05,0-.01,0-.03,0-.05,0-.01,0-.03,0-.05,0-.01,0-.03,0-.05,0-.01,0-.03,0-.05,0-.02,0-.03,0-.05,0-.01,0-.03,0-.05,0-.01,0-.03,0-.05,0-.01,0-.03,0-.05,0-.01,0-.03,0-.05,0-.01,0-.03,0-.05,0-.01,0-.03,0-.05,0-.02,0-.03,0-.05,0-.01,0-.03,0-.05,0-.01,0-.03,0-.05,0-.01,0-.03,0-.05,0-.02,0-.03,0-.05,0-.01,0-.03,0-.05,0-.01,0-.03,0-.05,0-.02,0-.03,0-.05,0-.02,0-.03,0-.05,0-.01,0-.03,0-.05,0-.01,0-.03,0-.05,0-.02,0-.03,0-.05,0-.01,0-.03,0-.05,0-.01,0-.03,0-.05,0-.01,0-.03,0-.05,0-.02,0-.03,0-.05,0-.01,0-.03,0-.05,0-.01,0-.03,0-.05,0-.01,0-.03,0-.05,0-.01,0-.03,0-.05,0-.01,0-.03,0-.05,0-.01,0-.03,0-.05,0-.02,0-.03,0-.05,0-.01,0-.03,0-.05,0-.01,0-.03,0-.05,0-.01,0-.03,0-.05,0-.01,0-.03,0-.05,0-.01,0-.03,0-.05,0-.01,0-.03,0-.05,0-.02,0-.03,0-.05,0-.01,0-.03,0-.05,0-.01,0-.03,0-.05,0-.01,0-.03,0-.06,0,0,0-.01,0-.02,0-.08,0-.16.03-.22.01-.03.04-.06.06-.09.03-.05.06-.11.1-.16.29-.39.91-.7,1.78-.85,1.57-.28,3.39.04,4.06.72.24.24.29.47.27.65v2.06s0,.01,0,.01c.06-.03.1-.06.16-.08.26-.11.55-.2.9-.28l1.58-.34M335.09,73.81h-.01s.01,0,.01,0h0ZM341,71.19c-.63-.64-2.4-.95-3.93-.68-1.52.27-2.25,1.01-1.61,1.66.64.66,2.4.96,3.92.69,1.52-.27,2.26-1.02,1.62-1.67ZM353.12,78.42c.64.66,2.4.96,3.92.69,1.52-.27,2.26-1.02,1.62-1.67-.63-.64-2.4-.95-3.93-.68-1.52.27-2.25,1.01-1.61,1.66ZM359.43,71.38c-.63-.64-2.4-.95-3.93-.68-1.52.27-2.25,1.01-1.61,1.66.64.66,2.4.96,3.92.69,1.52-.27,2.26-1.02,1.62-1.67ZM374.58,73.24l-3.53-.78h0c.02-.08.03-.15,0-.23h0s4.47-.99,4.47-.99l-1.94-.82-1.94-.82-2.32,1.9h-.01c-.17,0-.35,0-.52,0h-.02l-1.83-1.5-3.96,1.68,4.09.54h0c-.02.08-.02.16,0,.24l-6.19,1.32s-.02,0-.02,0h0s0,0,0,0c-.3.07-.59.16-.84.27-1.26.53-1.37,1.37-.34,1.96.02,0,.03.02.05.03.09.05.19.1.29.14h0c.11.05.22.09.34.12.02,0,.04.01.06.02,1.39.44,3.35.39,4.61-.14.26-.11.46-.23.62-.36h0s0,0,.01-.01l3.11-2.63c.18.01.37.01.55,0h.01l1.27,1.74,3.96-1.68ZM369.06,78.8c1.51.27,3.27-.04,3.9-.69.64-.65-.08-1.4-1.6-1.67-1.54-.27-3.3.04-3.93.69-.63.65.09,1.39,1.63,1.67ZM375.24,81.97c.64-.65-.08-1.4-1.6-1.67-1.54-.27-3.3.04-3.93.69-.64.65.09,1.39,1.63,1.67,1.51.27,3.27-.04,3.9-.69ZM369.51,86.63c1.51.27,3.27-.04,3.9-.69.64-.65-.08-1.4-1.59-1.67-1.54-.27-3.3.04-3.93.69-.63.65.09,1.39,1.63,1.67ZM367.51,88.52v-.24s0,.11,0,.11v-.16s0,.11,0,.11v-.16s0,.11,0,.11v-.16s0,.11,0,.11v-.16s0,.11,0,.11v-.16s0,.11,0,.11v-.16s0,.11,0,.11v-.16s0,.11,0,.11v-.16s0,.11,0,.11v-.16s0,.11,0,.11v-.77s0,.21,0,.21v-.26s0,.21,0,.21v-.26s0,.21,0,.21v-.26s0,.21,0,.21v-.26s0,.21,0,.21v-.26s0,.21,0,.21v-.26s0,.21,0,.21v-.26s0,.21,0,.21v-.26s0,.21,0,.21v-.26s0,.21,0,.21v-.26s0,.21,0,.21v-.26s0,.21,0,.21v-.28h0v-.14h0v-.05h0v-.33h0v-.05h0v-.14h0v-.14h0v-.26c-.02-.18.03-.41.27-.65.08-.08.18-.16.3-.24-.65-.27-1.02-.64-1.02-1.08v-.65h0v-.37h0v-.39s0,.21,0,.21v-.25s0,.21,0,.21v-.25s0,.21,0,.21v-.25s0,.21,0,.21v-.25s0,.21,0,.21v-.25s0,.21,0,.21v-.25s0,.21,0,.21v-.25s0,.21,0,.21v-.25s0,.21,0,.21v-.25s0,.21,0,.21v-.25s0,.21,0,.21v-.25s0,.21,0,.21v-.51h0v-.05h0v-.05h0v-.05h0v-.37h-.01s-1.28,1.08-1.28,1.08l-.04.04h-.01c-.17.13-.38.24-.62.35-1.06.45-2.6.55-3.92.31l-2.12.65v.08c1.22-.43,2.84-.62,5.24-.49h.19v.21h0v.08h0v.7h0v.54s0,.03,0,.03v.7h0v.05h0v.26h0v.74h0v.05h0v.03h0v.17h0v.19h0v.78h0v.09h0v.05c.32-.17.65-.35,1.04-.61l.09-.06,1.9,1.7ZM339.87,84.74c5.08,2.16,9.54,4.35,13.21,6.43,6.33-1.66,10.74-2.27,14.36-2.51l-1.85-1.66c-1.18.74-1.81,1.05-3.07,1.31-.01-.4.39-.95,1.35-1.66l-6.04,1.38c1.43.11,2.47.23,3.23.54-4.19.65-6.58.26-7.46-.28-1.07-.66-.5-1.41.69-1.75,1.71-.47,3.52-.01,2.56.97,3.92-.57,2.55-1.85.37-2.11,4.32,0,6.48-.71,7.06-2.43-4.29-.24-6.16.53-7.65,2.09.21-1.29-2.88-1.86-4.7-.41,2.61-.24,2.97.76,1.25,1.31-1.49.48-4.28.2-6.25-.8-2.81-1.43-.86-2.42.83-3.2.9.26,1.56,1.14,1.09,2.34l5.36-1.91c-2.59.02-4-.36-5.32-.89,1.76-.38,5.9-.48,5.9-.48l-3.3-1.4h0s-2.85-1.21-2.85-1.21c0,0-.22,1.76-1.12,2.51-1.24-.56-2.14-1.16-2.09-2.26l-4.5,2.28c2.8-.2,4.88.08,5.5.46-1.84.72-4.16,1.55-7.53.35-2.34-.84-3.02-2.02-1.88-2.66,1.29-.73,3.65-.58,3.08.53,3.42-.78,2.09-2.09-.96-2,3.68-.64,5.5-1.43,4.92-3.25-4.06.24-5.73,1.16-5.73,3-.63-.93-3.64-1.51-4.98.16,2.31-.41,3.39.36,2.28,1.09-.79.51-2.56.75-4.12.29-1.27-.37-2.2-1.39-.66-3.17.73.33,1.01.76,1.27,1.37l3.25-2.57c-1.66.41-2.96.58-3.9.57.62-.54,1.35-.81,3.09-1.3l-3.9-.79c-.56,1.54-2.01,3.41-5.91,6.1,4.9,1.56,10.05,3.46,15.13,5.62Z"/></g></g><g id="_1x1_1__white"><g id="block-3"><polygon id="surface-3" class="cls-5" points="356.25 0 419.83 27.01 419.83 56.72 356.25 83.73 292.67 56.72 292.67 27.01 356.25 0"/><path id="outline-3" class="cls-4" d="M356.25,0l63.58,27.01v29.7l-63.58,27.01-63.58-27.01v-29.7L356.25,0ZM356.25.19l-63.13,26.82,63.13,26.82,63.13-26.82L356.25.19ZM356.43,83.46l63.23-26.86v-29.32l-63.23,26.86v29.32ZM292.85,56.6l63.23,26.86v-29.32l-63.23-26.86v29.32Z"/></g><g id="crown-3"><path class="cls-4" d="M348.77,21.45c-.39.07-.79.1-1.18.1-1.21,0-2.35-.31-2.87-.84-.19-.19-.28-.39-.27-.63v-.4s0,.35,0,.35v-1.16s0,.37,0,.37v-.37s0,.22,0,.22v-1.55s0,.2,0,.2v-3.54s0-.01,0-.02c0-.08,0-.16.03-.22.01-.04.05-.08.07-.12.02-.04.04-.07.07-.11.28-.4.91-.72,1.79-.88,1.57-.28,3.39.04,4.06.72.24.24.29.47.27.66,0,0,0,0,0,0v5.88c0,.6-.77,1.12-1.97,1.33ZM350.36,13.68c-.63-.64-2.4-.95-3.93-.68-1.52.27-2.25,1.01-1.61,1.66.64.66,2.4.96,3.92.69,1.52-.27,2.26-1.02,1.62-1.67Z"/><path class="cls-4" d="M362.44,15.03l4.53-1.92,1.86,1.52c.15,0,.3,0,.45,0l2.34-1.92,4.38,1.86v5.95s-.94.21-.94.21v.02h0v.02h0v.02h0v.08h0v.02h0v.03h0v.02h0v.02h0v.02h0v.05h0v.06h0v.03h0v.13h0v.02h0v.06h0v.03h0v.06h0v.02h0v.05h0v.09h0v.02h0v.02h0v.15h0v.13h0v.08h0v.11h0v.09h0v.23s-1.73.73-1.73.73v.23c.12.01.23.02.35.04.9.16,1.53.5,1.8.92,0,.01.02.03.03.04.03.05.07.1.09.15.02.07.03.15.03.24,0,0,0,.02,0,.03v5.88c0,.22-.08.42-.27.61-.31.31-.86.56-1.57.7v.84s0,.05,0,.05v.08s0,.03,0,.06v.18s0,.03,0,.06v.18s0,.03,0,.02v.74h0v.14h0s0,.09,0,.09v.13s0,.03,0,.06v.04c0,.22-.08.42-.27.61-.66.68-2.47,1-4.03.73-.78-.14-1.37-.39-1.69-.72h-.01v.83h0v.03h0v.5h0v.11h0s0,.12,0,.12v.61h0v.53l-.33.02c-4.33.28-8.88,1.08-14.33,2.5h-.06s-.05-.01-.05-.01c-3.8-2.15-8.24-4.31-13.2-6.42-4.96-2.11-10.05-4-15.12-5.61l-.28-.1v-5.94l.25-.17c3.33-2.3,5.19-4.22,5.85-6.03l.04-.12,4.54.92v-2.02h0s0-.03,0-.04h0s0-.01,0-.02c0-.08,0-.16.03-.22.01-.04.05-.07.07-.11.02-.04.04-.07.07-.11.28-.4.91-.72,1.79-.88,1.57-.28,3.39.04,4.06.72.25.25.29.49.27.68h0v2.79c.74-.15,1.62-.26,2.65-.32h.11s.03.1.03.1c.08.25.11.48.1.7,0,.01,0,.02,0,.03v3.99l1.28-.65v.02s0,0,0,0v.24c-.05.96.69,1.51,1.91,2.07.79-.73,1-2.34,1-2.35l.02-.19,4.26,1.81v-2.01h0s0-.03,0-.05h0s0-.01,0-.02c0-.08,0-.16.03-.22.09-.28.35-.52.73-.72h0s0-.03,0-.05c0-.01,0-.03,0-.05,0-.01,0-.03,0-.05,0-.01,0-.03,0-.05,0-.02,0-.03,0-.05,0-.01,0-.03,0-.05,0-.01,0-.03,0-.05,0-.01,0-.03,0-.05,0-.01,0-.03,0-.05,0-.01,0-.03,0-.05,0-.01,0-.03,0-.05,0-.02,0-.03,0-.05,0-.01,0-.03,0-.05,0-.01,0-.03,0-.05,0-.01,0-.03,0-.05,0-.01,0-.03,0-.05,0-.01,0-.03,0-.05,0-.01,0-.03,0-.05,0-.02,0-.03,0-.05,0-.01,0-.03,0-.05,0-.01,0-.03,0-.05,0-.01,0-.03,0-.05,0-.02,0-.03,0-.05,0-.01,0-.03,0-.05,0-.01,0-.03,0-.05,0-.02,0-.03,0-.05,0-.02,0-.03,0-.05,0-.01,0-.03,0-.05,0-.01,0-.03,0-.05,0-.02,0-.03,0-.05,0-.01,0-.03,0-.05,0-.01,0-.03,0-.05,0-.01,0-.03,0-.05,0-.02,0-.03,0-.05,0-.01,0-.03,0-.05,0-.01,0-.03,0-.05,0-.01,0-.03,0-.05,0-.01,0-.03,0-.05,0-.01,0-.03,0-.05,0-.01,0-.03,0-.05,0-.02,0-.03,0-.05,0-.01,0-.03,0-.05,0-.01,0-.03,0-.05,0-.01,0-.03,0-.05,0-.01,0-.03,0-.05,0-.01,0-.03,0-.05,0-.01,0-.03,0-.05,0-.02,0-.03,0-.05,0-.01,0-.03,0-.05,0-.01,0-.03,0-.05,0-.01,0-.03,0-.05,0-.02,0-.03,0-.05,0-.01,0-.03,0-.05,0-.01,0-.03,0-.05,0-.02,0-.03,0-.05,0-.02,0-.03,0-.05,0-.01,0-.03,0-.05,0-.01,0-.03,0-.05,0-.02,0-.03,0-.05,0-.01,0-.03,0-.05,0-.01,0-.03,0-.05,0-.01,0-.03,0-.05,0-.02,0-.03,0-.05,0-.01,0-.03,0-.05,0-.01,0-.03,0-.05,0-.01,0-.03,0-.05,0-.01,0-.03,0-.05,0-.01,0-.03,0-.05,0-.01,0-.03,0-.05,0-.02,0-.03,0-.05,0-.01,0-.03,0-.05,0-.01,0-.03,0-.05,0-.01,0-.03,0-.05,0-.01,0-.03,0-.05,0-.01,0-.03,0-.05,0-.01,0-.03,0-.05,0-.02,0-.03,0-.05,0-.01,0-.03,0-.05,0-.01,0-.03,0-.05,0-.01,0-.03,0-.05,0-.02,0-.03,0-.05,0-.01,0-.03,0-.05,0-.01,0-.03,0-.05,0-.02,0-.03,0-.05,0-.02,0-.03,0-.05,0-.01,0-.03,0-.05,0-.01,0-.03,0-.05,0-.02,0-.03,0-.05,0-.01,0-.03,0-.05,0-.01,0-.03,0-.05,0-.01,0-.03,0-.05,0-.02,0-.03,0-.05,0-.01,0-.03,0-.05,0-.01,0-.03,0-.05,0-.01,0-.03,0-.05,0-.01,0-.03,0-.05,0-.01,0-.03,0-.05,0-.01,0-.03,0-.05,0-.02,0-.03,0-.05,0-.01,0-.03,0-.05,0-.01,0-.03,0-.05,0-.01,0-.03,0-.05,0-.01,0-.03,0-.05,0-.01,0-.03,0-.05,0-.01,0-.03,0-.05,0-.02,0-.03,0-.05,0-.01,0-.03,0-.05,0-.01,0-.03,0-.05,0-.01,0-.03,0-.06,0,0,0-.01,0-.02,0-.08,0-.16.03-.22.01-.03.04-.06.06-.09.03-.05.06-.11.1-.16.29-.39.91-.7,1.78-.85,1.57-.28,3.39.04,4.06.72.24.24.29.47.27.65v2.06s0,.01,0,.01c.06-.03.1-.06.16-.08.26-.11.55-.2.9-.28l1.58-.34M335.09,17.09h-.01s.01,0,.01,0h0ZM341,14.46c-.63-.64-2.4-.95-3.93-.68-1.52.27-2.25,1.01-1.61,1.66.64.66,2.4.96,3.92.69,1.52-.27,2.26-1.02,1.62-1.67ZM353.12,21.69c.64.66,2.4.96,3.92.69,1.52-.27,2.26-1.02,1.62-1.67-.63-.64-2.4-.95-3.93-.68-1.52.27-2.25,1.01-1.61,1.66ZM359.43,14.66c-.63-.64-2.4-.95-3.93-.68-1.52.27-2.25,1.01-1.61,1.66.64.66,2.4.96,3.92.69,1.52-.27,2.26-1.02,1.62-1.67ZM374.58,16.51l-3.53-.78h0c.02-.08.03-.15,0-.23h0s4.47-.99,4.47-.99l-1.94-.82-1.94-.82-2.32,1.9h-.01c-.17,0-.35,0-.52,0h-.02l-1.83-1.5-3.96,1.68,4.09.54h0c-.02.08-.02.16,0,.24l-6.19,1.32s-.02,0-.02,0h0s0,0,0,0c-.3.07-.59.16-.84.27-1.26.53-1.37,1.37-.34,1.96.02,0,.03.02.05.03.09.05.19.1.29.14h0c.11.05.22.09.34.12.02,0,.04.01.06.02,1.39.44,3.35.39,4.61-.14.26-.11.46-.23.62-.36h0s0,0,.01-.01l3.11-2.63c.18.01.37.01.55,0h.01l1.27,1.74,3.96-1.68ZM369.06,22.08c1.51.27,3.27-.04,3.9-.69.64-.65-.08-1.4-1.6-1.67-1.54-.27-3.3.04-3.93.69-.63.65.09,1.39,1.63,1.67ZM375.24,25.25c.64-.65-.08-1.4-1.6-1.67-1.54-.27-3.3.04-3.93.69-.64.65.09,1.39,1.63,1.67,1.51.27,3.27-.04,3.9-.69ZM369.51,29.91c1.51.27,3.27-.04,3.9-.69.64-.65-.08-1.4-1.59-1.67-1.54-.27-3.3.04-3.93.69-.63.65.09,1.39,1.63,1.67ZM367.51,31.79v-.24s0,.11,0,.11v-.16s0,.11,0,.11v-.16s0,.11,0,.11v-.16s0,.11,0,.11v-.16s0,.11,0,.11v-.16s0,.11,0,.11v-.16s0,.11,0,.11v-.16s0,.11,0,.11v-.16s0,.11,0,.11v-.16s0,.11,0,.11v-.77s0,.21,0,.21v-.26s0,.21,0,.21v-.26s0,.21,0,.21v-.26s0,.21,0,.21v-.26s0,.21,0,.21v-.26s0,.21,0,.21v-.26s0,.21,0,.21v-.26s0,.21,0,.21v-.26s0,.21,0,.21v-.26s0,.21,0,.21v-.26s0,.21,0,.21v-.26s0,.21,0,.21v-.28h0v-.14h0v-.05h0v-.33h0v-.05h0v-.14h0v-.14h0v-.26c-.02-.18.03-.41.27-.65.08-.08.18-.16.3-.24-.65-.27-1.02-.64-1.02-1.08v-.65h0v-.37h0v-.39s0,.21,0,.21v-.25s0,.21,0,.21v-.25s0,.21,0,.21v-.25s0,.21,0,.21v-.25s0,.21,0,.21v-.25s0,.21,0,.21v-.25s0,.21,0,.21v-.25s0,.21,0,.21v-.25s0,.21,0,.21v-.25s0,.21,0,.21v-.25s0,.21,0,.21v-.25s0,.21,0,.21v-.51h0v-.05h0v-.05h0v-.05h0v-.37h-.01s-1.28,1.08-1.28,1.08l-.04.04h-.01c-.17.13-.38.24-.62.35-1.06.45-2.6.55-3.92.31l-2.12.65v.08c1.22-.43,2.84-.62,5.24-.49h.19v.21h0v.08h0v.7h0v.54s0,.03,0,.03v.7h0v.05h0v.26h0v.74h0v.05h0v.03h0v.17h0v.19h0v.78h0v.09h0v.05c.32-.17.65-.35,1.04-.61l.09-.06,1.9,1.7ZM339.87,28.02c5.08,2.16,9.54,4.35,13.21,6.43,6.33-1.66,10.74-2.27,14.36-2.51l-1.85-1.66c-1.18.74-1.81,1.05-3.07,1.31-.01-.4.39-.95,1.35-1.66l-6.04,1.38c1.43.11,2.47.23,3.23.54-4.19.65-6.58.26-7.46-.28-1.07-.66-.5-1.41.69-1.75,1.71-.47,3.52-.01,2.56.97,3.92-.57,2.55-1.85.37-2.11,4.32,0,6.48-.71,7.06-2.43-4.29-.24-6.16.53-7.65,2.09.21-1.29-2.88-1.86-4.7-.41,2.61-.24,2.97.76,1.25,1.31-1.49.48-4.28.2-6.25-.8-2.81-1.43-.86-2.42.83-3.2.9.26,1.56,1.14,1.09,2.34l5.36-1.91c-2.59.02-4-.36-5.32-.89,1.76-.38,5.9-.48,5.9-.48l-3.3-1.4h0s-2.85-1.21-2.85-1.21c0,0-.22,1.76-1.12,2.51-1.24-.56-2.14-1.16-2.09-2.26l-4.5,2.28c2.8-.2,4.88.08,5.5.46-1.84.72-4.16,1.55-7.53.35-2.34-.84-3.02-2.02-1.88-2.66,1.29-.73,3.65-.58,3.08.53,3.42-.78,2.09-2.09-.96-2,3.68-.64,5.5-1.43,4.92-3.25-4.06.24-5.73,1.16-5.73,3-.63-.93-3.64-1.51-4.98.16,2.31-.41,3.39.36,2.28,1.09-.79.51-2.56.75-4.12.29-1.27-.37-2.2-1.39-.66-3.17.73.33,1.01.76,1.27,1.37l3.25-2.57c-1.66.41-2.96.58-3.9.57.62-.54,1.35-.81,3.09-1.3l-3.9-.79c-.56,1.54-2.01,3.41-5.91,6.1,4.9,1.56,10.05,3.46,15.13,5.62Z"/></g></g><g id="_1x1_2__green"><g id="block-4"><polygon id="surface-4" class="cls-10" points="63.58 113.34 127.16 140.35 127.16 170.06 63.58 197.07 0 170.06 0 140.35 63.58 113.34"/><path id="outline-4" class="cls-4" d="M63.58,113.34l63.58,27.01v29.7l-63.58,27.01L0,170.06v-29.7l63.58-27.01ZM63.58,113.53L.45,140.35l63.13,26.82,63.13-26.82-63.13-26.82ZM63.75,196.8l63.23-26.86v-29.32l-63.23,26.86v29.32ZM.18,169.94l63.23,26.86v-29.32L.18,140.62v29.32Z"/></g><g id="crown-4"><path class="cls-4" d="M56.09,134.79c-.39.07-.79.1-1.18.1-1.21,0-2.35-.31-2.87-.84-.19-.19-.28-.39-.27-.63v-.4s0,.35,0,.35v-1.16s0,.37,0,.37v-.37s0,.22,0,.22v-1.55s0,.2,0,.2v-3.54s0-.01,0-.02c0-.08,0-.16.03-.22.01-.04.05-.08.07-.12.02-.04.04-.07.07-.11.28-.4.91-.72,1.79-.88,1.57-.28,3.39.04,4.06.72.24.24.29.47.27.66,0,0,0,0,0,0v5.88c0,.6-.77,1.12-1.97,1.33ZM57.69,127.02c-.63-.64-2.4-.95-3.93-.68-1.52.27-2.25,1.01-1.61,1.66.64.66,2.4.96,3.92.69,1.52-.27,2.26-1.02,1.62-1.67Z"/><path class="cls-4" d="M69.77,128.37l4.53-1.92,1.86,1.52c.15,0,.3,0,.45,0l2.34-1.92,4.38,1.86v5.95s-.94.21-.94.21v.02h0v.02h0v.02h0v.08h0v.02h0v.03h0v.02h0v.02h0v.02h0v.05h0v.06h0v.03h0v.13h0v.02h0v.06h0v.03h0v.06h0v.02h0v.05h0v.09h0v.02h0v.02h0v.15h0v.13h0v.08h0v.11h0v.09h0v.23s-1.73.73-1.73.73v.23c.12.01.23.02.35.04.9.16,1.53.5,1.8.92,0,.01.02.03.03.04.03.05.07.1.09.15.02.07.03.15.03.24,0,0,0,.02,0,.03v5.88c0,.22-.08.42-.27.61-.31.31-.86.56-1.57.7v.84s0,.05,0,.05v.08s0,.03,0,.06v.18s0,.03,0,.06v.18s0,.03,0,.02v.74h0v.14h0s0,.09,0,.09v.13s0,.03,0,.06v.04c0,.22-.08.42-.27.61-.66.68-2.47,1-4.03.73-.78-.14-1.37-.39-1.69-.72h-.01v.83h0v.03h0v.5h0v.11h0s0,.12,0,.12v.61h0v.53l-.33.02c-4.33.28-8.88,1.08-14.33,2.5h-.06s-.05-.01-.05-.01c-3.8-2.15-8.24-4.31-13.2-6.42-4.96-2.11-10.05-4-15.12-5.61l-.28-.1v-5.94l.25-.17c3.33-2.3,5.19-4.22,5.85-6.03l.04-.12,4.54.92v-2.02h0s0-.03,0-.04h0s0-.01,0-.02c0-.08,0-.16.03-.22.01-.04.05-.07.07-.11.02-.04.04-.07.07-.11.28-.4.91-.72,1.79-.88,1.57-.28,3.39.04,4.06.72.25.25.29.49.27.68h0v2.79c.74-.15,1.62-.26,2.65-.32h.11s.03.1.03.1c.08.25.11.48.1.7,0,.01,0,.02,0,.03v3.99l1.28-.65v.02s0,0,0,0v.24c-.05.96.69,1.51,1.91,2.07.79-.73,1-2.34,1-2.35l.02-.19,4.26,1.81v-2.01h0s0-.03,0-.05h0s0-.01,0-.02c0-.08,0-.16.03-.22.09-.28.35-.52.73-.72h0s0-.03,0-.05c0-.01,0-.03,0-.05,0-.01,0-.03,0-.05,0-.01,0-.03,0-.05,0-.02,0-.03,0-.05,0-.01,0-.03,0-.05,0-.01,0-.03,0-.05,0-.01,0-.03,0-.05,0-.01,0-.03,0-.05,0-.01,0-.03,0-.05,0-.01,0-.03,0-.05,0-.02,0-.03,0-.05,0-.01,0-.03,0-.05,0-.01,0-.03,0-.05,0-.01,0-.03,0-.05,0-.01,0-.03,0-.05,0-.01,0-.03,0-.05,0-.01,0-.03,0-.05,0-.02,0-.03,0-.05,0-.01,0-.03,0-.05,0-.01,0-.03,0-.05,0-.01,0-.03,0-.05,0-.02,0-.03,0-.05,0-.01,0-.03,0-.05,0-.01,0-.03,0-.05,0-.02,0-.03,0-.05,0-.02,0-.03,0-.05,0-.01,0-.03,0-.05,0-.01,0-.03,0-.05,0-.02,0-.03,0-.05,0-.01,0-.03,0-.05,0-.01,0-.03,0-.05,0-.01,0-.03,0-.05,0-.02,0-.03,0-.05,0-.01,0-.03,0-.05,0-.01,0-.03,0-.05,0-.01,0-.03,0-.05,0-.01,0-.03,0-.05,0-.01,0-.03,0-.05,0-.01,0-.03,0-.05,0-.02,0-.03,0-.05,0-.01,0-.03,0-.05,0-.01,0-.03,0-.05,0-.01,0-.03,0-.05,0-.01,0-.03,0-.05,0-.01,0-.03,0-.05,0-.01,0-.03,0-.05,0-.02,0-.03,0-.05,0-.01,0-.03,0-.05,0-.01,0-.03,0-.05,0-.01,0-.03,0-.05,0-.02,0-.03,0-.05,0-.01,0-.03,0-.05,0-.01,0-.03,0-.05,0-.02,0-.03,0-.05,0-.02,0-.03,0-.05,0-.01,0-.03,0-.05,0-.01,0-.03,0-.05,0-.02,0-.03,0-.05,0-.01,0-.03,0-.05,0-.01,0-.03,0-.05,0-.01,0-.03,0-.05,0-.02,0-.03,0-.05,0-.01,0-.03,0-.05,0-.01,0-.03,0-.05,0-.01,0-.03,0-.05,0-.01,0-.03,0-.05,0-.01,0-.03,0-.05,0-.01,0-.03,0-.05,0-.02,0-.03,0-.05,0-.01,0-.03,0-.05,0-.01,0-.03,0-.05,0-.01,0-.03,0-.05,0-.01,0-.03,0-.05,0-.01,0-.03,0-.05,0-.01,0-.03,0-.05,0-.02,0-.03,0-.05,0-.01,0-.03,0-.05,0-.01,0-.03,0-.05,0-.01,0-.03,0-.05,0-.02,0-.03,0-.05,0-.01,0-.03,0-.05,0-.01,0-.03,0-.05,0-.02,0-.03,0-.05,0-.02,0-.03,0-.05,0-.01,0-.03,0-.05,0-.01,0-.03,0-.05,0-.02,0-.03,0-.05,0-.01,0-.03,0-.05,0-.01,0-.03,0-.05,0-.01,0-.03,0-.05,0-.02,0-.03,0-.05,0-.01,0-.03,0-.05,0-.01,0-.03,0-.05,0-.01,0-.03,0-.05,0-.01,0-.03,0-.05,0-.01,0-.03,0-.05,0-.01,0-.03,0-.05,0-.02,0-.03,0-.05,0-.01,0-.03,0-.05,0-.01,0-.03,0-.05,0-.01,0-.03,0-.05,0-.01,0-.03,0-.05,0-.01,0-.03,0-.05,0-.01,0-.03,0-.05,0-.02,0-.03,0-.05,0-.01,0-.03,0-.05,0-.01,0-.03,0-.05,0-.01,0-.03,0-.06,0,0,0-.01,0-.02,0-.08,0-.16.03-.22.01-.03.04-.06.06-.09.03-.05.06-.11.1-.16.29-.39.91-.7,1.78-.85,1.57-.28,3.39.04,4.06.72.24.24.29.47.27.65v2.06s0,.01,0,.01c.06-.03.1-.06.16-.08.26-.11.55-.2.9-.28l1.58-.34M42.42,130.43h-.01s.01,0,.01,0h0ZM48.33,127.8c-.63-.64-2.4-.95-3.93-.68-1.52.27-2.25,1.01-1.61,1.66.64.66,2.4.96,3.92.69,1.52-.27,2.26-1.02,1.62-1.67ZM60.45,135.03c.64.66,2.4.96,3.92.69,1.52-.27,2.26-1.02,1.62-1.67-.63-.64-2.4-.95-3.93-.68-1.52.27-2.25,1.01-1.61,1.66ZM66.76,128c-.63-.64-2.4-.95-3.93-.68-1.52.27-2.25,1.01-1.61,1.66.64.66,2.4.96,3.92.69,1.52-.27,2.26-1.02,1.62-1.67ZM81.9,129.85l-3.53-.78h0c.02-.08.03-.15,0-.23h0s4.47-.99,4.47-.99l-1.94-.82-1.94-.82-2.32,1.9h-.01c-.17,0-.35,0-.52,0h-.02l-1.83-1.5-3.96,1.68,4.09.54h0c-.02.08-.02.16,0,.24l-6.19,1.32s-.02,0-.02,0h0s0,0,0,0c-.3.07-.59.16-.84.27-1.26.53-1.37,1.37-.34,1.96.02,0,.03.02.05.03.09.05.19.1.29.14h0c.11.05.22.09.34.12.02,0,.04.01.06.02,1.39.44,3.35.39,4.61-.14.26-.11.46-.23.62-.36h0s0,0,.01-.01l3.11-2.63c.18.01.37.01.55,0h.01l1.27,1.74,3.96-1.68ZM76.38,135.42c1.51.27,3.27-.04,3.9-.69.64-.65-.08-1.4-1.6-1.67-1.54-.27-3.3.04-3.93.69-.63.65.09,1.39,1.63,1.67ZM82.57,138.59c.64-.65-.08-1.4-1.6-1.67-1.54-.27-3.3.04-3.93.69-.64.65.09,1.39,1.63,1.67,1.51.27,3.27-.04,3.9-.69ZM76.84,143.25c1.51.27,3.27-.04,3.9-.69.64-.65-.08-1.4-1.59-1.67-1.54-.27-3.3.04-3.93.69-.63.65.09,1.39,1.63,1.67ZM74.83,145.13v-.24s0,.11,0,.11v-.16s0,.11,0,.11v-.16s0,.11,0,.11v-.16s0,.11,0,.11v-.16s0,.11,0,.11v-.16s0,.11,0,.11v-.16s0,.11,0,.11v-.16s0,.11,0,.11v-.16s0,.11,0,.11v-.16s0,.11,0,.11v-.77s0,.21,0,.21v-.26s0,.21,0,.21v-.26s0,.21,0,.21v-.26s0,.21,0,.21v-.26s0,.21,0,.21v-.26s0,.21,0,.21v-.26s0,.21,0,.21v-.26s0,.21,0,.21v-.26s0,.21,0,.21v-.26s0,.21,0,.21v-.26s0,.21,0,.21v-.26s0,.21,0,.21v-.28h0v-.14h0v-.05h0v-.33h0v-.05h0v-.14h0v-.14h0v-.26c-.02-.18.03-.41.27-.65.08-.08.18-.16.3-.24-.65-.27-1.02-.64-1.02-1.08v-.65h0v-.37h0v-.39s0,.21,0,.21v-.25s0,.21,0,.21v-.25s0,.21,0,.21v-.25s0,.21,0,.21v-.25s0,.21,0,.21v-.25s0,.21,0,.21v-.25s0,.21,0,.21v-.25s0,.21,0,.21v-.25s0,.21,0,.21v-.25s0,.21,0,.21v-.25s0,.21,0,.21v-.25s0,.21,0,.21v-.51h0v-.05h0v-.05h0v-.05h0v-.37h-.01s-1.28,1.08-1.28,1.08l-.04.04h-.01c-.17.13-.38.24-.62.35-1.06.45-2.6.55-3.92.31l-2.12.65v.08c1.22-.43,2.84-.62,5.24-.49h.19v.21h0v.08h0v.7h0v.54s0,.03,0,.03v.7h0v.05h0v.26h0v.74h0v.05h0v.03h0v.17h0v.19h0v.78h0v.09h0v.05c.32-.17.65-.35,1.04-.61l.09-.06,1.9,1.7ZM47.2,141.36c5.08,2.16,9.54,4.35,13.21,6.43,6.33-1.66,10.74-2.27,14.36-2.51l-1.85-1.66c-1.18.74-1.81,1.05-3.07,1.31-.01-.4.39-.95,1.35-1.66l-6.04,1.38c1.43.11,2.47.23,3.23.54-4.19.65-6.58.26-7.46-.28-1.07-.66-.5-1.41.69-1.75,1.71-.47,3.52-.01,2.56.97,3.92-.57,2.55-1.85.37-2.11,4.32,0,6.48-.71,7.06-2.43-4.29-.24-6.16.53-7.65,2.09.21-1.29-2.88-1.86-4.7-.41,2.61-.24,2.97.76,1.25,1.31-1.49.48-4.28.2-6.25-.8-2.81-1.43-.86-2.42.83-3.2.9.26,1.56,1.14,1.09,2.34l5.36-1.91c-2.59.02-4-.36-5.32-.89,1.76-.38,5.9-.48,5.9-.48l-3.3-1.4h0s-2.85-1.21-2.85-1.21c0,0-.22,1.76-1.12,2.51-1.24-.56-2.14-1.16-2.09-2.26l-4.5,2.28c2.8-.2,4.88.08,5.5.46-1.84.72-4.16,1.55-7.53.35-2.34-.84-3.02-2.02-1.88-2.66,1.29-.73,3.65-.58,3.08.53,3.42-.78,2.09-2.09-.96-2,3.68-.64,5.5-1.43,4.92-3.25-4.06.24-5.73,1.16-5.73,3-.63-.93-3.64-1.51-4.98.16,2.31-.41,3.39.36,2.28,1.09-.79.51-2.56.75-4.12.29-1.27-.37-2.2-1.39-.66-3.17.73.33,1.01.76,1.27,1.37l3.25-2.57c-1.66.41-2.96.58-3.9.57.62-.54,1.35-.81,3.09-1.3l-3.9-.79c-.56,1.54-2.01,3.41-5.91,6.1,4.9,1.56,10.05,3.46,15.13,5.62Z"/></g></g><g id="_1x1_2__red"><g id="block-5"><polygon id="surface-5" class="cls-9" points="63.58 56.72 127.16 83.74 127.16 113.44 63.58 140.45 0 113.44 0 83.74 63.58 56.72"/><path id="outline-5" class="cls-4" d="M63.58,56.72l63.58,27.01v29.7l-63.58,27.01L0,113.44v-29.7l63.58-27.01ZM63.58,56.91L.45,83.74l63.13,26.82,63.13-26.82-63.13-26.82ZM63.75,140.19l63.23-26.86v-29.32l-63.23,26.86v29.32ZM.18,113.32l63.23,26.86v-29.32L.18,84v29.32Z"/></g><g id="crown-5"><path class="cls-4" d="M56.09,78.18c-.39.07-.79.1-1.18.1-1.21,0-2.35-.31-2.87-.84-.19-.19-.28-.39-.27-.63v-.4s0,.35,0,.35v-1.16s0,.37,0,.37v-.37s0,.22,0,.22v-1.55s0,.2,0,.2v-3.54s0-.01,0-.02c0-.08,0-.16.03-.22.01-.04.05-.08.07-.12.02-.04.04-.07.07-.11.28-.4.91-.72,1.79-.88,1.57-.28,3.39.04,4.06.72.24.24.29.47.27.66,0,0,0,0,0,0v5.88c0,.6-.77,1.12-1.97,1.33ZM57.69,70.41c-.63-.64-2.4-.95-3.93-.68-1.52.27-2.25,1.01-1.61,1.66.64.66,2.4.96,3.92.69,1.52-.27,2.26-1.02,1.62-1.67Z"/><path class="cls-4" d="M69.77,71.75l4.53-1.92,1.86,1.52c.15,0,.3,0,.45,0l2.34-1.92,4.38,1.86v5.95s-.94.21-.94.21v.02h0v.02h0v.02h0v.08h0v.02h0v.03h0v.02h0v.02h0v.02h0v.05h0v.06h0v.03h0v.13h0v.02h0v.06h0v.03h0v.06h0v.02h0v.05h0v.09h0v.02h0v.02h0v.15h0v.13h0v.08h0v.11h0v.09h0v.23s-1.73.73-1.73.73v.23c.12.01.23.02.35.04.9.16,1.53.5,1.8.92,0,.01.02.03.03.04.03.05.07.1.09.15.02.07.03.15.03.24,0,0,0,.02,0,.03v5.88c0,.22-.08.42-.27.61-.31.31-.86.56-1.57.7v.84s0,.05,0,.05v.08s0,.03,0,.06v.18s0,.03,0,.06v.18s0,.03,0,.02v.74h0v.14h0s0,.09,0,.09v.13s0,.03,0,.06v.04c0,.22-.08.42-.27.61-.66.68-2.47,1-4.03.73-.78-.14-1.37-.39-1.69-.72h-.01v.83h0v.03h0v.5h0v.11h0s0,.12,0,.12v.61h0v.53l-.33.02c-4.33.28-8.88,1.08-14.33,2.5h-.06s-.05-.01-.05-.01c-3.8-2.15-8.24-4.31-13.2-6.42-4.96-2.11-10.05-4-15.12-5.61l-.28-.1v-5.94l.25-.17c3.33-2.3,5.19-4.22,5.85-6.03l.04-.12,4.54.92v-2.02h0s0-.03,0-.04h0s0-.01,0-.02c0-.08,0-.16.03-.22.01-.04.05-.07.07-.11.02-.04.04-.07.07-.11.28-.4.91-.72,1.79-.88,1.57-.28,3.39.04,4.06.72.25.25.29.49.27.68h0v2.79c.74-.15,1.62-.26,2.65-.32h.11s.03.1.03.1c.08.25.11.48.1.7,0,.01,0,.02,0,.03v3.99l1.28-.65v.02s0,0,0,0v.24c-.05.96.69,1.51,1.91,2.07.79-.73,1-2.34,1-2.35l.02-.19,4.26,1.81v-2.01h0s0-.03,0-.05h0s0-.01,0-.02c0-.08,0-.16.03-.22.09-.28.35-.52.73-.72h0s0-.03,0-.05c0-.01,0-.03,0-.05,0-.01,0-.03,0-.05,0-.01,0-.03,0-.05,0-.02,0-.03,0-.05,0-.01,0-.03,0-.05,0-.01,0-.03,0-.05,0-.01,0-.03,0-.05,0-.01,0-.03,0-.05,0-.01,0-.03,0-.05,0-.01,0-.03,0-.05,0-.02,0-.03,0-.05,0-.01,0-.03,0-.05,0-.01,0-.03,0-.05,0-.01,0-.03,0-.05,0-.01,0-.03,0-.05,0-.01,0-.03,0-.05,0-.01,0-.03,0-.05,0-.02,0-.03,0-.05,0-.01,0-.03,0-.05,0-.01,0-.03,0-.05,0-.01,0-.03,0-.05,0-.02,0-.03,0-.05,0-.01,0-.03,0-.05,0-.01,0-.03,0-.05,0-.02,0-.03,0-.05,0-.02,0-.03,0-.05,0-.01,0-.03,0-.05,0-.01,0-.03,0-.05,0-.02,0-.03,0-.05,0-.01,0-.03,0-.05,0-.01,0-.03,0-.05,0-.01,0-.03,0-.05,0-.02,0-.03,0-.05,0-.01,0-.03,0-.05,0-.01,0-.03,0-.05,0-.01,0-.03,0-.05,0-.01,0-.03,0-.05,0-.01,0-.03,0-.05,0-.01,0-.03,0-.05,0-.02,0-.03,0-.05,0-.01,0-.03,0-.05,0-.01,0-.03,0-.05,0-.01,0-.03,0-.05,0-.01,0-.03,0-.05,0-.01,0-.03,0-.05,0-.01,0-.03,0-.05,0-.02,0-.03,0-.05,0-.01,0-.03,0-.05,0-.01,0-.03,0-.05,0-.01,0-.03,0-.05,0-.02,0-.03,0-.05,0-.01,0-.03,0-.05,0-.01,0-.03,0-.05,0-.02,0-.03,0-.05,0-.02,0-.03,0-.05,0-.01,0-.03,0-.05,0-.01,0-.03,0-.05,0-.02,0-.03,0-.05,0-.01,0-.03,0-.05,0-.01,0-.03,0-.05,0-.01,0-.03,0-.05,0-.02,0-.03,0-.05,0-.01,0-.03,0-.05,0-.01,0-.03,0-.05,0-.01,0-.03,0-.05,0-.01,0-.03,0-.05,0-.01,0-.03,0-.05,0-.01,0-.03,0-.05,0-.02,0-.03,0-.05,0-.01,0-.03,0-.05,0-.01,0-.03,0-.05,0-.01,0-.03,0-.05,0-.01,0-.03,0-.05,0-.01,0-.03,0-.05,0-.01,0-.03,0-.05,0-.02,0-.03,0-.05,0-.01,0-.03,0-.05,0-.01,0-.03,0-.05,0-.01,0-.03,0-.05,0-.02,0-.03,0-.05,0-.01,0-.03,0-.05,0-.01,0-.03,0-.05,0-.02,0-.03,0-.05,0-.02,0-.03,0-.05,0-.01,0-.03,0-.05,0-.01,0-.03,0-.05,0-.02,0-.03,0-.05,0-.01,0-.03,0-.05,0-.01,0-.03,0-.05,0-.01,0-.03,0-.05,0-.02,0-.03,0-.05,0-.01,0-.03,0-.05,0-.01,0-.03,0-.05,0-.01,0-.03,0-.05,0-.01,0-.03,0-.05,0-.01,0-.03,0-.05,0-.01,0-.03,0-.05,0-.02,0-.03,0-.05,0-.01,0-.03,0-.05,0-.01,0-.03,0-.05,0-.01,0-.03,0-.05,0-.01,0-.03,0-.05,0-.01,0-.03,0-.05,0-.01,0-.03,0-.05,0-.02,0-.03,0-.05,0-.01,0-.03,0-.05,0-.01,0-.03,0-.05,0-.01,0-.03,0-.06,0,0,0-.01,0-.02,0-.08,0-.16.03-.22.01-.03.04-.06.06-.09.03-.05.06-.11.1-.16.29-.39.91-.7,1.78-.85,1.57-.28,3.39.04,4.06.72.24.24.29.47.27.65v2.06s0,.01,0,.01c.06-.03.1-.06.16-.08.26-.11.55-.2.9-.28l1.58-.34M42.42,73.81h-.01s.01,0,.01,0h0ZM48.33,71.19c-.63-.64-2.4-.95-3.93-.68-1.52.27-2.25,1.01-1.61,1.66.64.66,2.4.96,3.92.69,1.52-.27,2.26-1.02,1.62-1.67ZM60.45,78.42c.64.66,2.4.96,3.92.69,1.52-.27,2.26-1.02,1.62-1.67-.63-.64-2.4-.95-3.93-.68-1.52.27-2.25,1.01-1.61,1.66ZM66.76,71.38c-.63-.64-2.4-.95-3.93-.68-1.52.27-2.25,1.01-1.61,1.66.64.66,2.4.96,3.92.69,1.52-.27,2.26-1.02,1.62-1.67ZM81.9,73.24l-3.53-.78h0c.02-.08.03-.15,0-.23h0s4.47-.99,4.47-.99l-1.94-.82-1.94-.82-2.32,1.9h-.01c-.17,0-.35,0-.52,0h-.02l-1.83-1.5-3.96,1.68,4.09.54h0c-.02.08-.02.16,0,.24l-6.19,1.32s-.02,0-.02,0h0s0,0,0,0c-.3.07-.59.16-.84.27-1.26.53-1.37,1.37-.34,1.96.02,0,.03.02.05.03.09.05.19.1.29.14h0c.11.05.22.09.34.12.02,0,.04.01.06.02,1.39.44,3.35.39,4.61-.14.26-.11.46-.23.62-.36h0s0,0,.01-.01l3.11-2.63c.18.01.37.01.55,0h.01l1.27,1.74,3.96-1.68ZM76.38,78.8c1.51.27,3.27-.04,3.9-.69.64-.65-.08-1.4-1.6-1.67-1.54-.27-3.3.04-3.93.69-.63.65.09,1.39,1.63,1.67ZM82.57,81.97c.64-.65-.08-1.4-1.6-1.67-1.54-.27-3.3.04-3.93.69-.64.65.09,1.39,1.63,1.67,1.51.27,3.27-.04,3.9-.69ZM76.84,86.63c1.51.27,3.27-.04,3.9-.69.64-.65-.08-1.4-1.59-1.67-1.54-.27-3.3.04-3.93.69-.63.65.09,1.39,1.63,1.67ZM74.83,88.52v-.24s0,.11,0,.11v-.16s0,.11,0,.11v-.16s0,.11,0,.11v-.16s0,.11,0,.11v-.16s0,.11,0,.11v-.16s0,.11,0,.11v-.16s0,.11,0,.11v-.16s0,.11,0,.11v-.16s0,.11,0,.11v-.16s0,.11,0,.11v-.77s0,.21,0,.21v-.26s0,.21,0,.21v-.26s0,.21,0,.21v-.26s0,.21,0,.21v-.26s0,.21,0,.21v-.26s0,.21,0,.21v-.26s0,.21,0,.21v-.26s0,.21,0,.21v-.26s0,.21,0,.21v-.26s0,.21,0,.21v-.26s0,.21,0,.21v-.26s0,.21,0,.21v-.28h0v-.14h0v-.05h0v-.33h0v-.05h0v-.14h0v-.14h0v-.26c-.02-.18.03-.41.27-.65.08-.08.18-.16.3-.24-.65-.27-1.02-.64-1.02-1.08v-.65h0v-.37h0v-.39s0,.21,0,.21v-.25s0,.21,0,.21v-.25s0,.21,0,.21v-.25s0,.21,0,.21v-.25s0,.21,0,.21v-.25s0,.21,0,.21v-.25s0,.21,0,.21v-.25s0,.21,0,.21v-.25s0,.21,0,.21v-.25s0,.21,0,.21v-.25s0,.21,0,.21v-.25s0,.21,0,.21v-.51h0v-.05h0v-.05h0v-.05h0v-.37h-.01s-1.28,1.08-1.28,1.08l-.04.04h-.01c-.17.13-.38.24-.62.35-1.06.45-2.6.55-3.92.31l-2.12.65v.08c1.22-.43,2.84-.62,5.24-.49h.19v.21h0v.08h0v.7h0v.54s0,.03,0,.03v.7h0v.05h0v.26h0v.74h0v.05h0v.03h0v.17h0v.19h0v.78h0v.09h0v.05c.32-.17.65-.35,1.04-.61l.09-.06,1.9,1.7ZM47.2,84.74c5.08,2.16,9.54,4.35,13.21,6.43,6.33-1.66,10.74-2.27,14.36-2.51l-1.85-1.66c-1.18.74-1.81,1.05-3.07,1.31-.01-.4.39-.95,1.35-1.66l-6.04,1.38c1.43.11,2.47.23,3.23.54-4.19.65-6.58.26-7.46-.28-1.07-.66-.5-1.41.69-1.75,1.71-.47,3.52-.01,2.56.97,3.92-.57,2.55-1.85.37-2.11,4.32,0,6.48-.71,7.06-2.43-4.29-.24-6.16.53-7.65,2.09.21-1.29-2.88-1.86-4.7-.41,2.61-.24,2.97.76,1.25,1.31-1.49.48-4.28.2-6.25-.8-2.81-1.43-.86-2.42.83-3.2.9.26,1.56,1.14,1.09,2.34l5.36-1.91c-2.59.02-4-.36-5.32-.89,1.76-.38,5.9-.48,5.9-.48l-3.3-1.4h0s-2.85-1.21-2.85-1.21c0,0-.22,1.76-1.12,2.51-1.24-.56-2.14-1.16-2.09-2.26l-4.5,2.28c2.8-.2,4.88.08,5.5.46-1.84.72-4.16,1.55-7.53.35-2.34-.84-3.02-2.02-1.88-2.66,1.29-.73,3.65-.58,3.08.53,3.42-.78,2.09-2.09-.96-2,3.68-.64,5.5-1.43,4.92-3.25-4.06.24-5.73,1.16-5.73,3-.63-.93-3.64-1.51-4.98.16,2.31-.41,3.39.36,2.28,1.09-.79.51-2.56.75-4.12.29-1.27-.37-2.2-1.39-.66-3.17.73.33,1.01.76,1.27,1.37l3.25-2.57c-1.66.41-2.96.58-3.9.57.62-.54,1.35-.81,3.09-1.3l-3.9-.79c-.56,1.54-2.01,3.41-5.91,6.1,4.9,1.56,10.05,3.46,15.13,5.62Z"/></g></g><g id="_1x1_1__light-purple"><g id="block-6"><polygon id="surface-6" class="cls-1" points="63.58 0 127.16 27.01 127.16 56.72 63.58 83.73 0 56.72 0 27.01 63.58 0"/><path id="outline-6" class="cls-4" d="M63.58,0l63.58,27.01v29.7l-63.58,27.01L0,56.72v-29.7L63.58,0ZM63.58.19L.45,27.01l63.13,26.82,63.13-26.82L63.58.19ZM63.75,83.46l63.23-26.86v-29.32l-63.23,26.86v29.32ZM.18,56.6l63.23,26.86v-29.32L.18,27.28v29.32Z"/></g><g id="crown-6"><path class="cls-4" d="M56.09,21.45c-.39.07-.79.1-1.18.1-1.21,0-2.35-.31-2.87-.84-.19-.19-.28-.39-.27-.63v-.4s0,.35,0,.35v-1.16s0,.37,0,.37v-.37s0,.22,0,.22v-1.55s0,.2,0,.2v-3.54s0-.01,0-.02c0-.08,0-.16.03-.22.01-.04.05-.08.07-.12.02-.04.04-.07.07-.11.28-.4.91-.72,1.79-.88,1.57-.28,3.39.04,4.06.72.24.24.29.47.27.66,0,0,0,0,0,0v5.88c0,.6-.77,1.12-1.97,1.33ZM57.69,13.68c-.63-.64-2.4-.95-3.93-.68-1.52.27-2.25,1.01-1.61,1.66.64.66,2.4.96,3.92.69,1.52-.27,2.26-1.02,1.62-1.67Z"/><path class="cls-4" d="M69.77,15.03l4.53-1.92,1.86,1.52c.15,0,.3,0,.45,0l2.34-1.92,4.38,1.86v5.95s-.94.21-.94.21v.02h0v.02h0v.02h0v.08h0v.02h0v.03h0v.02h0v.02h0v.02h0v.05h0v.06h0v.03h0v.13h0v.02h0v.06h0v.03h0v.06h0v.02h0v.05h0v.09h0v.02h0v.02h0v.15h0v.13h0v.08h0v.11h0v.09h0v.23s-1.73.73-1.73.73v.23c.12.01.23.02.35.04.9.16,1.53.5,1.8.92,0,.01.02.03.03.04.03.05.07.1.09.15.02.07.03.15.03.24,0,0,0,.02,0,.03v5.88c0,.22-.08.42-.27.61-.31.31-.86.56-1.57.7v.84s0,.05,0,.05v.08s0,.03,0,.06v.18s0,.03,0,.06v.18s0,.03,0,.02v.74h0v.14h0s0,.09,0,.09v.13s0,.03,0,.06v.04c0,.22-.08.42-.27.61-.66.68-2.47,1-4.03.73-.78-.14-1.37-.39-1.69-.72h-.01v.83h0v.03h0v.5h0v.11h0s0,.12,0,.12v.61h0v.53l-.33.02c-4.33.28-8.88,1.08-14.33,2.5h-.06s-.05-.01-.05-.01c-3.8-2.15-8.24-4.31-13.2-6.42-4.96-2.11-10.05-4-15.12-5.61l-.28-.1v-5.94l.25-.17c3.33-2.3,5.19-4.22,5.85-6.03l.04-.12,4.54.92v-2.02h0s0-.03,0-.04h0s0-.01,0-.02c0-.08,0-.16.03-.22.01-.04.05-.07.07-.11.02-.04.04-.07.07-.11.28-.4.91-.72,1.79-.88,1.57-.28,3.39.04,4.06.72.25.25.29.49.27.68h0v2.79c.74-.15,1.62-.26,2.65-.32h.11s.03.1.03.1c.08.25.11.48.1.7,0,.01,0,.02,0,.03v3.99l1.28-.65v.02s0,0,0,0v.24c-.05.96.69,1.51,1.91,2.07.79-.73,1-2.34,1-2.35l.02-.19,4.26,1.81v-2.01h0s0-.03,0-.05h0s0-.01,0-.02c0-.08,0-.16.03-.22.09-.28.35-.52.73-.72h0s0-.03,0-.05c0-.01,0-.03,0-.05,0-.01,0-.03,0-.05,0-.01,0-.03,0-.05,0-.02,0-.03,0-.05,0-.01,0-.03,0-.05,0-.01,0-.03,0-.05,0-.01,0-.03,0-.05,0-.01,0-.03,0-.05,0-.01,0-.03,0-.05,0-.01,0-.03,0-.05,0-.02,0-.03,0-.05,0-.01,0-.03,0-.05,0-.01,0-.03,0-.05,0-.01,0-.03,0-.05,0-.01,0-.03,0-.05,0-.01,0-.03,0-.05,0-.01,0-.03,0-.05,0-.02,0-.03,0-.05,0-.01,0-.03,0-.05,0-.01,0-.03,0-.05,0-.01,0-.03,0-.05,0-.02,0-.03,0-.05,0-.01,0-.03,0-.05,0-.01,0-.03,0-.05,0-.02,0-.03,0-.05,0-.02,0-.03,0-.05,0-.01,0-.03,0-.05,0-.01,0-.03,0-.05,0-.02,0-.03,0-.05,0-.01,0-.03,0-.05,0-.01,0-.03,0-.05,0-.01,0-.03,0-.05,0-.02,0-.03,0-.05,0-.01,0-.03,0-.05,0-.01,0-.03,0-.05,0-.01,0-.03,0-.05,0-.01,0-.03,0-.05,0-.01,0-.03,0-.05,0-.01,0-.03,0-.05,0-.02,0-.03,0-.05,0-.01,0-.03,0-.05,0-.01,0-.03,0-.05,0-.01,0-.03,0-.05,0-.01,0-.03,0-.05,0-.01,0-.03,0-.05,0-.01,0-.03,0-.05,0-.02,0-.03,0-.05,0-.01,0-.03,0-.05,0-.01,0-.03,0-.05,0-.01,0-.03,0-.05,0-.02,0-.03,0-.05,0-.01,0-.03,0-.05,0-.01,0-.03,0-.05,0-.02,0-.03,0-.05,0-.02,0-.03,0-.05,0-.01,0-.03,0-.05,0-.01,0-.03,0-.05,0-.02,0-.03,0-.05,0-.01,0-.03,0-.05,0-.01,0-.03,0-.05,0-.01,0-.03,0-.05,0-.02,0-.03,0-.05,0-.01,0-.03,0-.05,0-.01,0-.03,0-.05,0-.01,0-.03,0-.05,0-.01,0-.03,0-.05,0-.01,0-.03,0-.05,0-.01,0-.03,0-.05,0-.02,0-.03,0-.05,0-.01,0-.03,0-.05,0-.01,0-.03,0-.05,0-.01,0-.03,0-.05,0-.01,0-.03,0-.05,0-.01,0-.03,0-.05,0-.01,0-.03,0-.05,0-.02,0-.03,0-.05,0-.01,0-.03,0-.05,0-.01,0-.03,0-.05,0-.01,0-.03,0-.05,0-.02,0-.03,0-.05,0-.01,0-.03,0-.05,0-.01,0-.03,0-.05,0-.02,0-.03,0-.05,0-.02,0-.03,0-.05,0-.01,0-.03,0-.05,0-.01,0-.03,0-.05,0-.02,0-.03,0-.05,0-.01,0-.03,0-.05,0-.01,0-.03,0-.05,0-.01,0-.03,0-.05,0-.02,0-.03,0-.05,0-.01,0-.03,0-.05,0-.01,0-.03,0-.05,0-.01,0-.03,0-.05,0-.01,0-.03,0-.05,0-.01,0-.03,0-.05,0-.01,0-.03,0-.05,0-.02,0-.03,0-.05,0-.01,0-.03,0-.05,0-.01,0-.03,0-.05,0-.01,0-.03,0-.05,0-.01,0-.03,0-.05,0-.01,0-.03,0-.05,0-.01,0-.03,0-.05,0-.02,0-.03,0-.05,0-.01,0-.03,0-.05,0-.01,0-.03,0-.05,0-.01,0-.03,0-.06,0,0,0-.01,0-.02,0-.08,0-.16.03-.22.01-.03.04-.06.06-.09.03-.05.06-.11.1-.16.29-.39.91-.7,1.78-.85,1.57-.28,3.39.04,4.06.72.24.24.29.47.27.65v2.06s0,.01,0,.01c.06-.03.1-.06.16-.08.26-.11.55-.2.9-.28l1.58-.34M42.42,17.09h-.01s.01,0,.01,0h0ZM48.33,14.46c-.63-.64-2.4-.95-3.93-.68-1.52.27-2.25,1.01-1.61,1.66.64.66,2.4.96,3.92.69,1.52-.27,2.26-1.02,1.62-1.67ZM60.45,21.69c.64.66,2.4.96,3.92.69,1.52-.27,2.26-1.02,1.62-1.67-.63-.64-2.4-.95-3.93-.68-1.52.27-2.25,1.01-1.61,1.66ZM66.76,14.66c-.63-.64-2.4-.95-3.93-.68-1.52.27-2.25,1.01-1.61,1.66.64.66,2.4.96,3.92.69,1.52-.27,2.26-1.02,1.62-1.67ZM81.9,16.51l-3.53-.78h0c.02-.08.03-.15,0-.23h0s4.47-.99,4.47-.99l-1.94-.82-1.94-.82-2.32,1.9h-.01c-.17,0-.35,0-.52,0h-.02l-1.83-1.5-3.96,1.68,4.09.54h0c-.02.08-.02.16,0,.24l-6.19,1.32s-.02,0-.02,0h0s0,0,0,0c-.3.07-.59.16-.84.27-1.26.53-1.37,1.37-.34,1.96.02,0,.03.02.05.03.09.05.19.1.29.14h0c.11.05.22.09.34.12.02,0,.04.01.06.02,1.39.44,3.35.39,4.61-.14.26-.11.46-.23.62-.36h0s0,0,.01-.01l3.11-2.63c.18.01.37.01.55,0h.01l1.27,1.74,3.96-1.68ZM76.38,22.08c1.51.27,3.27-.04,3.9-.69.64-.65-.08-1.4-1.6-1.67-1.54-.27-3.3.04-3.93.69-.63.65.09,1.39,1.63,1.67ZM82.57,25.25c.64-.65-.08-1.4-1.6-1.67-1.54-.27-3.3.04-3.93.69-.64.65.09,1.39,1.63,1.67,1.51.27,3.27-.04,3.9-.69ZM76.84,29.91c1.51.27,3.27-.04,3.9-.69.64-.65-.08-1.4-1.59-1.67-1.54-.27-3.3.04-3.93.69-.63.65.09,1.39,1.63,1.67ZM74.83,31.79v-.24s0,.11,0,.11v-.16s0,.11,0,.11v-.16s0,.11,0,.11v-.16s0,.11,0,.11v-.16s0,.11,0,.11v-.16s0,.11,0,.11v-.16s0,.11,0,.11v-.16s0,.11,0,.11v-.16s0,.11,0,.11v-.16s0,.11,0,.11v-.77s0,.21,0,.21v-.26s0,.21,0,.21v-.26s0,.21,0,.21v-.26s0,.21,0,.21v-.26s0,.21,0,.21v-.26s0,.21,0,.21v-.26s0,.21,0,.21v-.26s0,.21,0,.21v-.26s0,.21,0,.21v-.26s0,.21,0,.21v-.26s0,.21,0,.21v-.26s0,.21,0,.21v-.28h0v-.14h0v-.05h0v-.33h0v-.05h0v-.14h0v-.14h0v-.26c-.02-.18.03-.41.27-.65.08-.08.18-.16.3-.24-.65-.27-1.02-.64-1.02-1.08v-.65h0v-.37h0v-.39s0,.21,0,.21v-.25s0,.21,0,.21v-.25s0,.21,0,.21v-.25s0,.21,0,.21v-.25s0,.21,0,.21v-.25s0,.21,0,.21v-.25s0,.21,0,.21v-.25s0,.21,0,.21v-.25s0,.21,0,.21v-.25s0,.21,0,.21v-.25s0,.21,0,.21v-.25s0,.21,0,.21v-.51h0v-.05h0v-.05h0v-.05h0v-.37h-.01s-1.28,1.08-1.28,1.08l-.04.04h-.01c-.17.13-.38.24-.62.35-1.06.45-2.6.55-3.92.31l-2.12.65v.08c1.22-.43,2.84-.62,5.24-.49h.19v.21h0v.08h0v.7h0v.54s0,.03,0,.03v.7h0v.05h0v.26h0v.74h0v.05h0v.03h0v.17h0v.19h0v.78h0v.09h0v.05c.32-.17.65-.35,1.04-.61l.09-.06,1.9,1.7ZM47.2,28.02c5.08,2.16,9.54,4.35,13.21,6.43,6.33-1.66,10.74-2.27,14.36-2.51l-1.85-1.66c-1.18.74-1.81,1.05-3.07,1.31-.01-.4.39-.95,1.35-1.66l-6.04,1.38c1.43.11,2.47.23,3.23.54-4.19.65-6.58.26-7.46-.28-1.07-.66-.5-1.41.69-1.75,1.71-.47,3.52-.01,2.56.97,3.92-.57,2.55-1.85.37-2.11,4.32,0,6.48-.71,7.06-2.43-4.29-.24-6.16.53-7.65,2.09.21-1.29-2.88-1.86-4.7-.41,2.61-.24,2.97.76,1.25,1.31-1.49.48-4.28.2-6.25-.8-2.81-1.43-.86-2.42.83-3.2.9.26,1.56,1.14,1.09,2.34l5.36-1.91c-2.59.02-4-.36-5.32-.89,1.76-.38,5.9-.48,5.9-.48l-3.3-1.4h0s-2.85-1.21-2.85-1.21c0,0-.22,1.76-1.12,2.51-1.24-.56-2.14-1.16-2.09-2.26l-4.5,2.28c2.8-.2,4.88.08,5.5.46-1.84.72-4.16,1.55-7.53.35-2.34-.84-3.02-2.02-1.88-2.66,1.29-.73,3.65-.58,3.08.53,3.42-.78,2.09-2.09-.96-2,3.68-.64,5.5-1.43,4.92-3.25-4.06.24-5.73,1.16-5.73,3-.63-.93-3.64-1.51-4.98.16,2.31-.41,3.39.36,2.28,1.09-.79.51-2.56.75-4.12.29-1.27-.37-2.2-1.39-.66-3.17.73.33,1.01.76,1.27,1.37l3.25-2.57c-1.66.41-2.96.58-3.9.57.62-.54,1.35-.81,3.09-1.3l-3.9-.79c-.56,1.54-2.01,3.41-5.91,6.1,4.9,1.56,10.05,3.46,15.13,5.62Z"/></g></g><g id="_1x1_2__yellow"><g id="block-7"><polygon id="surface-7" class="cls-8" points="648.92 113.34 712.5 140.35 712.5 170.06 648.92 197.07 585.34 170.06 585.34 140.35 648.92 113.34"/><path id="outline-7" class="cls-4" d="M648.92,113.34l63.58,27.01v29.7l-63.58,27.01-63.58-27.01v-29.7l63.58-27.01ZM648.92,113.53l-63.13,26.82,63.13,26.82,63.13-26.82-63.13-26.82ZM649.1,196.8l63.23-26.86v-29.32l-63.23,26.86v29.32ZM585.52,169.94l63.23,26.86v-29.32l-63.23-26.86v29.32Z"/></g><g id="crown-7"><path class="cls-4" d="M641.44,134.79c-.39.07-.79.1-1.18.1-1.21,0-2.35-.31-2.87-.84-.19-.19-.28-.39-.27-.63v-.4s0,.35,0,.35v-1.16s0,.37,0,.37v-.37s0,.22,0,.22v-1.55s0,.2,0,.2v-3.54s0-.01,0-.02c0-.08,0-.16.03-.22.01-.04.05-.08.07-.12.02-.04.04-.07.07-.11.28-.4.91-.72,1.79-.88,1.57-.28,3.39.04,4.06.72.24.24.29.47.27.66,0,0,0,0,0,0v5.88c0,.6-.77,1.12-1.97,1.33ZM643.03,127.02c-.63-.64-2.4-.95-3.93-.68-1.52.27-2.25,1.01-1.61,1.66.64.66,2.4.96,3.92.69,1.52-.27,2.26-1.02,1.62-1.67Z"/><path class="cls-4" d="M655.11,128.37l4.53-1.92,1.86,1.52c.15,0,.3,0,.45,0l2.34-1.92,4.38,1.86v5.95s-.94.21-.94.21v.02h0v.02h0v.02h0v.08h0v.02h0v.03h0v.02h0v.02h0v.02h0v.05h0v.06h0v.03h0v.13h0v.02h0v.06h0v.03h0v.06h0v.02h0v.05h0v.09h0v.02h0v.02h0v.15h0v.13h0v.08h0v.11h0v.09h0v.23s-1.73.73-1.73.73v.23c.12.01.23.02.35.04.9.16,1.53.5,1.8.92,0,.01.02.03.03.04.03.05.07.1.09.15.02.07.03.15.03.24,0,0,0,.02,0,.03v5.88c0,.22-.08.42-.27.61-.31.31-.86.56-1.57.7v.84s0,.05,0,.05v.08s0,.03,0,.06v.18s0,.03,0,.06v.18s0,.03,0,.02v.74h0v.14h0s0,.09,0,.09v.13s0,.03,0,.06v.04c0,.22-.08.42-.27.61-.66.68-2.47,1-4.03.73-.78-.14-1.37-.39-1.69-.72h-.01v.83h0v.03h0v.5h0v.11h0s0,.12,0,.12v.61h0v.53l-.33.02c-4.33.28-8.88,1.08-14.33,2.5h-.06s-.05-.01-.05-.01c-3.8-2.15-8.24-4.31-13.2-6.42-4.96-2.11-10.05-4-15.12-5.61l-.28-.1v-5.94l.25-.17c3.33-2.3,5.19-4.22,5.85-6.03l.04-.12,4.54.92v-2.02h0s0-.03,0-.04h0s0-.01,0-.02c0-.08,0-.16.03-.22.01-.04.05-.07.07-.11.02-.04.04-.07.07-.11.28-.4.91-.72,1.79-.88,1.57-.28,3.39.04,4.06.72.25.25.29.49.27.68h0v2.79c.74-.15,1.62-.26,2.65-.32h.11s.03.1.03.1c.08.25.11.48.1.7,0,.01,0,.02,0,.03v3.99l1.28-.65v.02s0,0,0,0v.24c-.05.96.69,1.51,1.91,2.07.79-.73,1-2.34,1-2.35l.02-.19,4.26,1.81v-2.01h0s0-.03,0-.05h0s0-.01,0-.02c0-.08,0-.16.03-.22.09-.28.35-.52.73-.72h0s0-.03,0-.05c0-.01,0-.03,0-.05,0-.01,0-.03,0-.05,0-.01,0-.03,0-.05,0-.02,0-.03,0-.05,0-.01,0-.03,0-.05,0-.01,0-.03,0-.05,0-.01,0-.03,0-.05,0-.01,0-.03,0-.05,0-.01,0-.03,0-.05,0-.01,0-.03,0-.05,0-.02,0-.03,0-.05,0-.01,0-.03,0-.05,0-.01,0-.03,0-.05,0-.01,0-.03,0-.05,0-.01,0-.03,0-.05,0-.01,0-.03,0-.05,0-.01,0-.03,0-.05,0-.02,0-.03,0-.05,0-.01,0-.03,0-.05,0-.01,0-.03,0-.05,0-.01,0-.03,0-.05,0-.02,0-.03,0-.05,0-.01,0-.03,0-.05,0-.01,0-.03,0-.05,0-.02,0-.03,0-.05,0-.02,0-.03,0-.05,0-.01,0-.03,0-.05,0-.01,0-.03,0-.05,0-.02,0-.03,0-.05,0-.01,0-.03,0-.05,0-.01,0-.03,0-.05,0-.01,0-.03,0-.05,0-.02,0-.03,0-.05,0-.01,0-.03,0-.05,0-.01,0-.03,0-.05,0-.01,0-.03,0-.05,0-.01,0-.03,0-.05,0-.01,0-.03,0-.05,0-.01,0-.03,0-.05,0-.02,0-.03,0-.05,0-.01,0-.03,0-.05,0-.01,0-.03,0-.05,0-.01,0-.03,0-.05,0-.01,0-.03,0-.05,0-.01,0-.03,0-.05,0-.01,0-.03,0-.05,0-.02,0-.03,0-.05,0-.01,0-.03,0-.05,0-.01,0-.03,0-.05,0-.01,0-.03,0-.05,0-.02,0-.03,0-.05,0-.01,0-.03,0-.05,0-.01,0-.03,0-.05,0-.02,0-.03,0-.05,0-.02,0-.03,0-.05,0-.01,0-.03,0-.05,0-.01,0-.03,0-.05,0-.02,0-.03,0-.05,0-.01,0-.03,0-.05,0-.01,0-.03,0-.05,0-.01,0-.03,0-.05,0-.02,0-.03,0-.05,0-.01,0-.03,0-.05,0-.01,0-.03,0-.05,0-.01,0-.03,0-.05,0-.01,0-.03,0-.05,0-.01,0-.03,0-.05,0-.01,0-.03,0-.05,0-.02,0-.03,0-.05,0-.01,0-.03,0-.05,0-.01,0-.03,0-.05,0-.01,0-.03,0-.05,0-.01,0-.03,0-.05,0-.01,0-.03,0-.05,0-.01,0-.03,0-.05,0-.02,0-.03,0-.05,0-.01,0-.03,0-.05,0-.01,0-.03,0-.05,0-.01,0-.03,0-.05,0-.02,0-.03,0-.05,0-.01,0-.03,0-.05,0-.01,0-.03,0-.05,0-.02,0-.03,0-.05,0-.02,0-.03,0-.05,0-.01,0-.03,0-.05,0-.01,0-.03,0-.05,0-.02,0-.03,0-.05,0-.01,0-.03,0-.05,0-.01,0-.03,0-.05,0-.01,0-.03,0-.05,0-.02,0-.03,0-.05,0-.01,0-.03,0-.05,0-.01,0-.03,0-.05,0-.01,0-.03,0-.05,0-.01,0-.03,0-.05,0-.01,0-.03,0-.05,0-.01,0-.03,0-.05,0-.02,0-.03,0-.05,0-.01,0-.03,0-.05,0-.01,0-.03,0-.05,0-.01,0-.03,0-.05,0-.01,0-.03,0-.05,0-.01,0-.03,0-.05,0-.01,0-.03,0-.05,0-.02,0-.03,0-.05,0-.01,0-.03,0-.05,0-.01,0-.03,0-.05,0-.01,0-.03,0-.06,0,0,0-.01,0-.02,0-.08,0-.16.03-.22.01-.03.04-.06.06-.09.03-.05.06-.11.1-.16.29-.39.91-.7,1.78-.85,1.57-.28,3.39.04,4.06.72.24.24.29.47.27.65v2.06s0,.01,0,.01c.06-.03.1-.06.16-.08.26-.11.55-.2.9-.28l1.58-.34M627.76,130.43h-.01s.01,0,.01,0h0ZM633.67,127.8c-.63-.64-2.4-.95-3.93-.68-1.52.27-2.25,1.01-1.61,1.66.64.66,2.4.96,3.92.69,1.52-.27,2.26-1.02,1.62-1.67ZM645.8,135.03c.64.66,2.4.96,3.92.69,1.52-.27,2.26-1.02,1.62-1.67-.63-.64-2.4-.95-3.93-.68-1.52.27-2.25,1.01-1.61,1.66ZM652.1,128c-.63-.64-2.4-.95-3.93-.68-1.52.27-2.25,1.01-1.61,1.66.64.66,2.4.96,3.92.69,1.52-.27,2.26-1.02,1.62-1.67ZM667.25,129.85l-3.53-.78h0c.02-.08.03-.15,0-.23h0s4.47-.99,4.47-.99l-1.94-.82-1.94-.82-2.32,1.9h-.01c-.17,0-.35,0-.52,0h-.02l-1.83-1.5-3.96,1.68,4.09.54h0c-.02.08-.02.16,0,.24l-6.19,1.32s-.02,0-.02,0h0s0,0,0,0c-.3.07-.59.16-.84.27-1.26.53-1.37,1.37-.34,1.96.02,0,.03.02.05.03.09.05.19.1.29.14h0c.11.05.22.09.34.12.02,0,.04.01.06.02,1.39.44,3.35.39,4.61-.14.26-.11.46-.23.62-.36h0s0,0,.01-.01l3.11-2.63c.18.01.37.01.55,0h.01l1.27,1.74,3.96-1.68ZM661.73,135.42c1.51.27,3.27-.04,3.9-.69.64-.65-.08-1.4-1.6-1.67-1.54-.27-3.3.04-3.93.69-.63.65.09,1.39,1.63,1.67ZM667.91,138.59c.64-.65-.08-1.4-1.6-1.67-1.54-.27-3.3.04-3.93.69-.64.65.09,1.39,1.63,1.67,1.51.27,3.27-.04,3.9-.69ZM662.18,143.25c1.51.27,3.27-.04,3.9-.69.64-.65-.08-1.4-1.59-1.67-1.54-.27-3.3.04-3.93.69-.63.65.09,1.39,1.63,1.67ZM660.18,145.13v-.24s0,.11,0,.11v-.16s0,.11,0,.11v-.16s0,.11,0,.11v-.16s0,.11,0,.11v-.16s0,.11,0,.11v-.16s0,.11,0,.11v-.16s0,.11,0,.11v-.16s0,.11,0,.11v-.16s0,.11,0,.11v-.16s0,.11,0,.11v-.77s0,.21,0,.21v-.26s0,.21,0,.21v-.26s0,.21,0,.21v-.26s0,.21,0,.21v-.26s0,.21,0,.21v-.26s0,.21,0,.21v-.26s0,.21,0,.21v-.26s0,.21,0,.21v-.26s0,.21,0,.21v-.26s0,.21,0,.21v-.26s0,.21,0,.21v-.26s0,.21,0,.21v-.28h0v-.14h0v-.05h0v-.33h0v-.05h0v-.14h0v-.14h0v-.26c-.02-.18.03-.41.27-.65.08-.08.18-.16.3-.24-.65-.27-1.02-.64-1.02-1.08v-.65h0v-.37h0v-.39s0,.21,0,.21v-.25s0,.21,0,.21v-.25s0,.21,0,.21v-.25s0,.21,0,.21v-.25s0,.21,0,.21v-.25s0,.21,0,.21v-.25s0,.21,0,.21v-.25s0,.21,0,.21v-.25s0,.21,0,.21v-.25s0,.21,0,.21v-.25s0,.21,0,.21v-.25s0,.21,0,.21v-.51h0v-.05h0v-.05h0v-.05h0v-.37h-.01s-1.28,1.08-1.28,1.08l-.04.04h-.01c-.17.13-.38.24-.62.35-1.06.45-2.6.55-3.92.31l-2.12.65v.08c1.22-.43,2.84-.62,5.24-.49h.19v.21h0v.08h0v.7h0v.54s0,.03,0,.03v.7h0v.05h0v.26h0v.74h0v.05h0v.03h0v.17h0v.19h0v.78h0v.09h0v.05c.32-.17.65-.35,1.04-.61l.09-.06,1.9,1.7ZM632.55,141.36c5.08,2.16,9.54,4.35,13.21,6.43,6.33-1.66,10.74-2.27,14.36-2.51l-1.85-1.66c-1.18.74-1.81,1.05-3.07,1.31-.01-.4.39-.95,1.35-1.66l-6.04,1.38c1.43.11,2.47.23,3.23.54-4.19.65-6.58.26-7.46-.28-1.07-.66-.5-1.41.69-1.75,1.71-.47,3.52-.01,2.56.97,3.92-.57,2.55-1.85.37-2.11,4.32,0,6.48-.71,7.06-2.43-4.29-.24-6.16.53-7.65,2.09.21-1.29-2.88-1.86-4.7-.41,2.61-.24,2.97.76,1.25,1.31-1.49.48-4.28.2-6.25-.8-2.81-1.43-.86-2.42.83-3.2.9.26,1.56,1.14,1.09,2.34l5.36-1.91c-2.59.02-4-.36-5.32-.89,1.76-.38,5.9-.48,5.9-.48l-3.3-1.4h0s-2.85-1.21-2.85-1.21c0,0-.22,1.76-1.12,2.51-1.24-.56-2.14-1.16-2.09-2.26l-4.5,2.28c2.8-.2,4.88.08,5.5.46-1.84.72-4.16,1.55-7.53.35-2.34-.84-3.02-2.02-1.88-2.66,1.29-.73,3.65-.58,3.08.53,3.42-.78,2.09-2.09-.96-2,3.68-.64,5.5-1.43,4.92-3.25-4.06.24-5.73,1.16-5.73,3-.63-.93-3.64-1.51-4.98.16,2.31-.41,3.39.36,2.28,1.09-.79.51-2.56.75-4.12.29-1.27-.37-2.2-1.39-.66-3.17.73.33,1.01.76,1.27,1.37l3.25-2.57c-1.66.41-2.96.58-3.9.57.62-.54,1.35-.81,3.09-1.3l-3.9-.79c-.56,1.54-2.01,3.41-5.91,6.1,4.9,1.56,10.05,3.46,15.13,5.62Z"/></g></g><g id="_1x1_2__turquoise"><g id="block-8"><polygon id="surface-8" class="cls-7" points="648.92 56.72 712.5 83.74 712.5 113.44 648.92 140.45 585.34 113.44 585.34 83.74 648.92 56.72"/><path id="outline-8" class="cls-4" d="M648.92,56.72l63.58,27.01v29.7l-63.58,27.01-63.58-27.01v-29.7l63.58-27.01ZM648.92,56.91l-63.13,26.82,63.13,26.82,63.13-26.82-63.13-26.82ZM649.1,140.19l63.23-26.86v-29.32l-63.23,26.86v29.32ZM585.52,113.32l63.23,26.86v-29.32l-63.23-26.86v29.32Z"/></g><g id="crown-8"><path class="cls-4" d="M641.44,78.18c-.39.07-.79.1-1.18.1-1.21,0-2.35-.31-2.87-.84-.19-.19-.28-.39-.27-.63v-.4s0,.35,0,.35v-1.16s0,.37,0,.37v-.37s0,.22,0,.22v-1.55s0,.2,0,.2v-3.54s0-.01,0-.02c0-.08,0-.16.03-.22.01-.04.05-.08.07-.12.02-.04.04-.07.07-.11.28-.4.91-.72,1.79-.88,1.57-.28,3.39.04,4.06.72.24.24.29.47.27.66,0,0,0,0,0,0v5.88c0,.6-.77,1.12-1.97,1.33ZM643.03,70.41c-.63-.64-2.4-.95-3.93-.68-1.52.27-2.25,1.01-1.61,1.66.64.66,2.4.96,3.92.69,1.52-.27,2.26-1.02,1.62-1.67Z"/><path class="cls-4" d="M655.11,71.75l4.53-1.92,1.86,1.52c.15,0,.3,0,.45,0l2.34-1.92,4.38,1.86v5.95s-.94.21-.94.21v.02h0v.02h0v.02h0v.08h0v.02h0v.03h0v.02h0v.02h0v.02h0v.05h0v.06h0v.03h0v.13h0v.02h0v.06h0v.03h0v.06h0v.02h0v.05h0v.09h0v.02h0v.02h0v.15h0v.13h0v.08h0v.11h0v.09h0v.23s-1.73.73-1.73.73v.23c.12.01.23.02.35.04.9.16,1.53.5,1.8.92,0,.01.02.03.03.04.03.05.07.1.09.15.02.07.03.15.03.24,0,0,0,.02,0,.03v5.88c0,.22-.08.42-.27.61-.31.31-.86.56-1.57.7v.84s0,.05,0,.05v.08s0,.03,0,.06v.18s0,.03,0,.06v.18s0,.03,0,.02v.74h0v.14h0s0,.09,0,.09v.13s0,.03,0,.06v.04c0,.22-.08.42-.27.61-.66.68-2.47,1-4.03.73-.78-.14-1.37-.39-1.69-.72h-.01v.83h0v.03h0v.5h0v.11h0s0,.12,0,.12v.61h0v.53l-.33.02c-4.33.28-8.88,1.08-14.33,2.5h-.06s-.05-.01-.05-.01c-3.8-2.15-8.24-4.31-13.2-6.42-4.96-2.11-10.05-4-15.12-5.61l-.28-.1v-5.94l.25-.17c3.33-2.3,5.19-4.22,5.85-6.03l.04-.12,4.54.92v-2.02h0s0-.03,0-.04h0s0-.01,0-.02c0-.08,0-.16.03-.22.01-.04.05-.07.07-.11.02-.04.04-.07.07-.11.28-.4.91-.72,1.79-.88,1.57-.28,3.39.04,4.06.72.25.25.29.49.27.68h0v2.79c.74-.15,1.62-.26,2.65-.32h.11s.03.1.03.1c.08.25.11.48.1.7,0,.01,0,.02,0,.03v3.99l1.28-.65v.02s0,0,0,0v.24c-.05.96.69,1.51,1.91,2.07.79-.73,1-2.34,1-2.35l.02-.19,4.26,1.81v-2.01h0s0-.03,0-.05h0s0-.01,0-.02c0-.08,0-.16.03-.22.09-.28.35-.52.73-.72h0s0-.03,0-.05c0-.01,0-.03,0-.05,0-.01,0-.03,0-.05,0-.01,0-.03,0-.05,0-.02,0-.03,0-.05,0-.01,0-.03,0-.05,0-.01,0-.03,0-.05,0-.01,0-.03,0-.05,0-.01,0-.03,0-.05,0-.01,0-.03,0-.05,0-.01,0-.03,0-.05,0-.02,0-.03,0-.05,0-.01,0-.03,0-.05,0-.01,0-.03,0-.05,0-.01,0-.03,0-.05,0-.01,0-.03,0-.05,0-.01,0-.03,0-.05,0-.01,0-.03,0-.05,0-.02,0-.03,0-.05,0-.01,0-.03,0-.05,0-.01,0-.03,0-.05,0-.01,0-.03,0-.05,0-.02,0-.03,0-.05,0-.01,0-.03,0-.05,0-.01,0-.03,0-.05,0-.02,0-.03,0-.05,0-.02,0-.03,0-.05,0-.01,0-.03,0-.05,0-.01,0-.03,0-.05,0-.02,0-.03,0-.05,0-.01,0-.03,0-.05,0-.01,0-.03,0-.05,0-.01,0-.03,0-.05,0-.02,0-.03,0-.05,0-.01,0-.03,0-.05,0-.01,0-.03,0-.05,0-.01,0-.03,0-.05,0-.01,0-.03,0-.05,0-.01,0-.03,0-.05,0-.01,0-.03,0-.05,0-.02,0-.03,0-.05,0-.01,0-.03,0-.05,0-.01,0-.03,0-.05,0-.01,0-.03,0-.05,0-.01,0-.03,0-.05,0-.01,0-.03,0-.05,0-.01,0-.03,0-.05,0-.02,0-.03,0-.05,0-.01,0-.03,0-.05,0-.01,0-.03,0-.05,0-.01,0-.03,0-.05,0-.02,0-.03,0-.05,0-.01,0-.03,0-.05,0-.01,0-.03,0-.05,0-.02,0-.03,0-.05,0-.02,0-.03,0-.05,0-.01,0-.03,0-.05,0-.01,0-.03,0-.05,0-.02,0-.03,0-.05,0-.01,0-.03,0-.05,0-.01,0-.03,0-.05,0-.01,0-.03,0-.05,0-.02,0-.03,0-.05,0-.01,0-.03,0-.05,0-.01,0-.03,0-.05,0-.01,0-.03,0-.05,0-.01,0-.03,0-.05,0-.01,0-.03,0-.05,0-.01,0-.03,0-.05,0-.02,0-.03,0-.05,0-.01,0-.03,0-.05,0-.01,0-.03,0-.05,0-.01,0-.03,0-.05,0-.01,0-.03,0-.05,0-.01,0-.03,0-.05,0-.01,0-.03,0-.05,0-.02,0-.03,0-.05,0-.01,0-.03,0-.05,0-.01,0-.03,0-.05,0-.01,0-.03,0-.05,0-.02,0-.03,0-.05,0-.01,0-.03,0-.05,0-.01,0-.03,0-.05,0-.02,0-.03,0-.05,0-.02,0-.03,0-.05,0-.01,0-.03,0-.05,0-.01,0-.03,0-.05,0-.02,0-.03,0-.05,0-.01,0-.03,0-.05,0-.01,0-.03,0-.05,0-.01,0-.03,0-.05,0-.02,0-.03,0-.05,0-.01,0-.03,0-.05,0-.01,0-.03,0-.05,0-.01,0-.03,0-.05,0-.01,0-.03,0-.05,0-.01,0-.03,0-.05,0-.01,0-.03,0-.05,0-.02,0-.03,0-.05,0-.01,0-.03,0-.05,0-.01,0-.03,0-.05,0-.01,0-.03,0-.05,0-.01,0-.03,0-.05,0-.01,0-.03,0-.05,0-.01,0-.03,0-.05,0-.02,0-.03,0-.05,0-.01,0-.03,0-.05,0-.01,0-.03,0-.05,0-.01,0-.03,0-.06,0,0,0-.01,0-.02,0-.08,0-.16.03-.22.01-.03.04-.06.06-.09.03-.05.06-.11.1-.16.29-.39.91-.7,1.78-.85,1.57-.28,3.39.04,4.06.72.24.24.29.47.27.65v2.06s0,.01,0,.01c.06-.03.1-.06.16-.08.26-.11.55-.2.9-.28l1.58-.34M627.76,73.81h-.01s.01,0,.01,0h0ZM633.67,71.19c-.63-.64-2.4-.95-3.93-.68-1.52.27-2.25,1.01-1.61,1.66.64.66,2.4.96,3.92.69,1.52-.27,2.26-1.02,1.62-1.67ZM645.8,78.42c.64.66,2.4.96,3.92.69,1.52-.27,2.26-1.02,1.62-1.67-.63-.64-2.4-.95-3.93-.68-1.52.27-2.25,1.01-1.61,1.66ZM652.1,71.38c-.63-.64-2.4-.95-3.93-.68-1.52.27-2.25,1.01-1.61,1.66.64.66,2.4.96,3.92.69,1.52-.27,2.26-1.02,1.62-1.67ZM667.25,73.24l-3.53-.78h0c.02-.08.03-.15,0-.23h0s4.47-.99,4.47-.99l-1.94-.82-1.94-.82-2.32,1.9h-.01c-.17,0-.35,0-.52,0h-.02l-1.83-1.5-3.96,1.68,4.09.54h0c-.02.08-.02.16,0,.24l-6.19,1.32s-.02,0-.02,0h0s0,0,0,0c-.3.07-.59.16-.84.27-1.26.53-1.37,1.37-.34,1.96.02,0,.03.02.05.03.09.05.19.1.29.14h0c.11.05.22.09.34.12.02,0,.04.01.06.02,1.39.44,3.35.39,4.61-.14.26-.11.46-.23.62-.36h0s0,0,.01-.01l3.11-2.63c.18.01.37.01.55,0h.01l1.27,1.74,3.96-1.68ZM661.73,78.8c1.51.27,3.27-.04,3.9-.69.64-.65-.08-1.4-1.6-1.67-1.54-.27-3.3.04-3.93.69-.63.65.09,1.39,1.63,1.67ZM667.91,81.97c.64-.65-.08-1.4-1.6-1.67-1.54-.27-3.3.04-3.93.69-.64.65.09,1.39,1.63,1.67,1.51.27,3.27-.04,3.9-.69ZM662.18,86.63c1.51.27,3.27-.04,3.9-.69.64-.65-.08-1.4-1.59-1.67-1.54-.27-3.3.04-3.93.69-.63.65.09,1.39,1.63,1.67ZM660.18,88.52v-.24s0,.11,0,.11v-.16s0,.11,0,.11v-.16s0,.11,0,.11v-.16s0,.11,0,.11v-.16s0,.11,0,.11v-.16s0,.11,0,.11v-.16s0,.11,0,.11v-.16s0,.11,0,.11v-.16s0,.11,0,.11v-.16s0,.11,0,.11v-.77s0,.21,0,.21v-.26s0,.21,0,.21v-.26s0,.21,0,.21v-.26s0,.21,0,.21v-.26s0,.21,0,.21v-.26s0,.21,0,.21v-.26s0,.21,0,.21v-.26s0,.21,0,.21v-.26s0,.21,0,.21v-.26s0,.21,0,.21v-.26s0,.21,0,.21v-.26s0,.21,0,.21v-.28h0v-.14h0v-.05h0v-.33h0v-.05h0v-.14h0v-.14h0v-.26c-.02-.18.03-.41.27-.65.08-.08.18-.16.3-.24-.65-.27-1.02-.64-1.02-1.08v-.65h0v-.37h0v-.39s0,.21,0,.21v-.25s0,.21,0,.21v-.25s0,.21,0,.21v-.25s0,.21,0,.21v-.25s0,.21,0,.21v-.25s0,.21,0,.21v-.25s0,.21,0,.21v-.25s0,.21,0,.21v-.25s0,.21,0,.21v-.25s0,.21,0,.21v-.25s0,.21,0,.21v-.25s0,.21,0,.21v-.51h0v-.05h0v-.05h0v-.05h0v-.37h-.01s-1.28,1.08-1.28,1.08l-.04.04h-.01c-.17.13-.38.24-.62.35-1.06.45-2.6.55-3.92.31l-2.12.65v.08c1.22-.43,2.84-.62,5.24-.49h.19v.21h0v.08h0v.7h0v.54s0,.03,0,.03v.7h0v.05h0v.26h0v.74h0v.05h0v.03h0v.17h0v.19h0v.78h0v.09h0v.05c.32-.17.65-.35,1.04-.61l.09-.06,1.9,1.7ZM632.55,84.74c5.08,2.16,9.54,4.35,13.21,6.43,6.33-1.66,10.74-2.27,14.36-2.51l-1.85-1.66c-1.18.74-1.81,1.05-3.07,1.31-.01-.4.39-.95,1.35-1.66l-6.04,1.38c1.43.11,2.47.23,3.23.54-4.19.65-6.58.26-7.46-.28-1.07-.66-.5-1.41.69-1.75,1.71-.47,3.52-.01,2.56.97,3.92-.57,2.55-1.85.37-2.11,4.32,0,6.48-.71,7.06-2.43-4.29-.24-6.16.53-7.65,2.09.21-1.29-2.88-1.86-4.7-.41,2.61-.24,2.97.76,1.25,1.31-1.49.48-4.28.2-6.25-.8-2.81-1.43-.86-2.42.83-3.2.9.26,1.56,1.14,1.09,2.34l5.36-1.91c-2.59.02-4-.36-5.32-.89,1.76-.38,5.9-.48,5.9-.48l-3.3-1.4h0s-2.85-1.21-2.85-1.21c0,0-.22,1.76-1.12,2.51-1.24-.56-2.14-1.16-2.09-2.26l-4.5,2.28c2.8-.2,4.88.08,5.5.46-1.84.72-4.16,1.55-7.53.35-2.34-.84-3.02-2.02-1.88-2.66,1.29-.73,3.65-.58,3.08.53,3.42-.78,2.09-2.09-.96-2,3.68-.64,5.5-1.43,4.92-3.25-4.06.24-5.73,1.16-5.73,3-.63-.93-3.64-1.51-4.98.16,2.31-.41,3.39.36,2.28,1.09-.79.51-2.56.75-4.12.29-1.27-.37-2.2-1.39-.66-3.17.73.33,1.01.76,1.27,1.37l3.25-2.57c-1.66.41-2.96.58-3.9.57.62-.54,1.35-.81,3.09-1.3l-3.9-.79c-.56,1.54-2.01,3.41-5.91,6.1,4.9,1.56,10.05,3.46,15.13,5.62Z"/></g></g><g id="_1x1_1__pink"><g id="block-9"><polygon id="surface-9" class="cls-3" points="648.92 0 712.5 27.01 712.5 56.72 648.92 83.73 585.34 56.72 585.34 27.01 648.92 0"/><path id="outline-9" class="cls-4" d="M648.92,0l63.58,27.01v29.7l-63.58,27.01-63.58-27.01v-29.7L648.92,0ZM648.92.19l-63.13,26.82,63.13,26.82,63.13-26.82L648.92.19ZM649.1,83.46l63.23-26.86v-29.32l-63.23,26.86v29.32ZM585.52,56.6l63.23,26.86v-29.32l-63.23-26.86v29.32Z"/></g><g id="crown-9"><path class="cls-4" d="M641.44,21.45c-.39.07-.79.1-1.18.1-1.21,0-2.35-.31-2.87-.84-.19-.19-.28-.39-.27-.63v-.4s0,.35,0,.35v-1.16s0,.37,0,.37v-.37s0,.22,0,.22v-1.55s0,.2,0,.2v-3.54s0-.01,0-.02c0-.08,0-.16.03-.22.01-.04.05-.08.07-.12.02-.04.04-.07.07-.11.28-.4.91-.72,1.79-.88,1.57-.28,3.39.04,4.06.72.24.24.29.47.27.66,0,0,0,0,0,0v5.88c0,.6-.77,1.12-1.97,1.33ZM643.03,13.68c-.63-.64-2.4-.95-3.93-.68-1.52.27-2.25,1.01-1.61,1.66.64.66,2.4.96,3.92.69,1.52-.27,2.26-1.02,1.62-1.67Z"/><path class="cls-4" d="M655.11,15.03l4.53-1.92,1.86,1.52c.15,0,.3,0,.45,0l2.34-1.92,4.38,1.86v5.95s-.94.21-.94.21v.02h0v.02h0v.02h0v.08h0v.02h0v.03h0v.02h0v.02h0v.02h0v.05h0v.06h0v.03h0v.13h0v.02h0v.06h0v.03h0v.06h0v.02h0v.05h0v.09h0v.02h0v.02h0v.15h0v.13h0v.08h0v.11h0v.09h0v.23s-1.73.73-1.73.73v.23c.12.01.23.02.35.04.9.16,1.53.5,1.8.92,0,.01.02.03.03.04.03.05.07.1.09.15.02.07.03.15.03.24,0,0,0,.02,0,.03v5.88c0,.22-.08.42-.27.61-.31.31-.86.56-1.57.7v.84s0,.05,0,.05v.08s0,.03,0,.06v.18s0,.03,0,.06v.18s0,.03,0,.02v.74h0v.14h0s0,.09,0,.09v.13s0,.03,0,.06v.04c0,.22-.08.42-.27.61-.66.68-2.47,1-4.03.73-.78-.14-1.37-.39-1.69-.72h-.01v.83h0v.03h0v.5h0v.11h0s0,.12,0,.12v.61h0v.53l-.33.02c-4.33.28-8.88,1.08-14.33,2.5h-.06s-.05-.01-.05-.01c-3.8-2.15-8.24-4.31-13.2-6.42-4.96-2.11-10.05-4-15.12-5.61l-.28-.1v-5.94l.25-.17c3.33-2.3,5.19-4.22,5.85-6.03l.04-.12,4.54.92v-2.02h0s0-.03,0-.04h0s0-.01,0-.02c0-.08,0-.16.03-.22.01-.04.05-.07.07-.11.02-.04.04-.07.07-.11.28-.4.91-.72,1.79-.88,1.57-.28,3.39.04,4.06.72.25.25.29.49.27.68h0v2.79c.74-.15,1.62-.26,2.65-.32h.11s.03.1.03.1c.08.25.11.48.1.7,0,.01,0,.02,0,.03v3.99l1.28-.65v.02s0,0,0,0v.24c-.05.96.69,1.51,1.91,2.07.79-.73,1-2.34,1-2.35l.02-.19,4.26,1.81v-2.01h0s0-.03,0-.05h0s0-.01,0-.02c0-.08,0-.16.03-.22.09-.28.35-.52.73-.72h0s0-.03,0-.05c0-.01,0-.03,0-.05,0-.01,0-.03,0-.05,0-.01,0-.03,0-.05,0-.02,0-.03,0-.05,0-.01,0-.03,0-.05,0-.01,0-.03,0-.05,0-.01,0-.03,0-.05,0-.01,0-.03,0-.05,0-.01,0-.03,0-.05,0-.01,0-.03,0-.05,0-.02,0-.03,0-.05,0-.01,0-.03,0-.05,0-.01,0-.03,0-.05,0-.01,0-.03,0-.05,0-.01,0-.03,0-.05,0-.01,0-.03,0-.05,0-.01,0-.03,0-.05,0-.02,0-.03,0-.05,0-.01,0-.03,0-.05,0-.01,0-.03,0-.05,0-.01,0-.03,0-.05,0-.02,0-.03,0-.05,0-.01,0-.03,0-.05,0-.01,0-.03,0-.05,0-.02,0-.03,0-.05,0-.02,0-.03,0-.05,0-.01,0-.03,0-.05,0-.01,0-.03,0-.05,0-.02,0-.03,0-.05,0-.01,0-.03,0-.05,0-.01,0-.03,0-.05,0-.01,0-.03,0-.05,0-.02,0-.03,0-.05,0-.01,0-.03,0-.05,0-.01,0-.03,0-.05,0-.01,0-.03,0-.05,0-.01,0-.03,0-.05,0-.01,0-.03,0-.05,0-.01,0-.03,0-.05,0-.02,0-.03,0-.05,0-.01,0-.03,0-.05,0-.01,0-.03,0-.05,0-.01,0-.03,0-.05,0-.01,0-.03,0-.05,0-.01,0-.03,0-.05,0-.01,0-.03,0-.05,0-.02,0-.03,0-.05,0-.01,0-.03,0-.05,0-.01,0-.03,0-.05,0-.01,0-.03,0-.05,0-.02,0-.03,0-.05,0-.01,0-.03,0-.05,0-.01,0-.03,0-.05,0-.02,0-.03,0-.05,0-.02,0-.03,0-.05,0-.01,0-.03,0-.05,0-.01,0-.03,0-.05,0-.02,0-.03,0-.05,0-.01,0-.03,0-.05,0-.01,0-.03,0-.05,0-.01,0-.03,0-.05,0-.02,0-.03,0-.05,0-.01,0-.03,0-.05,0-.01,0-.03,0-.05,0-.01,0-.03,0-.05,0-.01,0-.03,0-.05,0-.01,0-.03,0-.05,0-.01,0-.03,0-.05,0-.02,0-.03,0-.05,0-.01,0-.03,0-.05,0-.01,0-.03,0-.05,0-.01,0-.03,0-.05,0-.01,0-.03,0-.05,0-.01,0-.03,0-.05,0-.01,0-.03,0-.05,0-.02,0-.03,0-.05,0-.01,0-.03,0-.05,0-.01,0-.03,0-.05,0-.01,0-.03,0-.05,0-.02,0-.03,0-.05,0-.01,0-.03,0-.05,0-.01,0-.03,0-.05,0-.02,0-.03,0-.05,0-.02,0-.03,0-.05,0-.01,0-.03,0-.05,0-.01,0-.03,0-.05,0-.02,0-.03,0-.05,0-.01,0-.03,0-.05,0-.01,0-.03,0-.05,0-.01,0-.03,0-.05,0-.02,0-.03,0-.05,0-.01,0-.03,0-.05,0-.01,0-.03,0-.05,0-.01,0-.03,0-.05,0-.01,0-.03,0-.05,0-.01,0-.03,0-.05,0-.01,0-.03,0-.05,0-.02,0-.03,0-.05,0-.01,0-.03,0-.05,0-.01,0-.03,0-.05,0-.01,0-.03,0-.05,0-.01,0-.03,0-.05,0-.01,0-.03,0-.05,0-.01,0-.03,0-.05,0-.02,0-.03,0-.05,0-.01,0-.03,0-.05,0-.01,0-.03,0-.05,0-.01,0-.03,0-.06,0,0,0-.01,0-.02,0-.08,0-.16.03-.22.01-.03.04-.06.06-.09.03-.05.06-.11.1-.16.29-.39.91-.7,1.78-.85,1.57-.28,3.39.04,4.06.72.24.24.29.47.27.65v2.06s0,.01,0,.01c.06-.03.1-.06.16-.08.26-.11.55-.2.9-.28l1.58-.34M627.76,17.09h-.01s.01,0,.01,0h0ZM633.67,14.46c-.63-.64-2.4-.95-3.93-.68-1.52.27-2.25,1.01-1.61,1.66.64.66,2.4.96,3.92.69,1.52-.27,2.26-1.02,1.62-1.67ZM645.8,21.69c.64.66,2.4.96,3.92.69,1.52-.27,2.26-1.02,1.62-1.67-.63-.64-2.4-.95-3.93-.68-1.52.27-2.25,1.01-1.61,1.66ZM652.1,14.66c-.63-.64-2.4-.95-3.93-.68-1.52.27-2.25,1.01-1.61,1.66.64.66,2.4.96,3.92.69,1.52-.27,2.26-1.02,1.62-1.67ZM667.25,16.51l-3.53-.78h0c.02-.08.03-.15,0-.23h0s4.47-.99,4.47-.99l-1.94-.82-1.94-.82-2.32,1.9h-.01c-.17,0-.35,0-.52,0h-.02l-1.83-1.5-3.96,1.68,4.09.54h0c-.02.08-.02.16,0,.24l-6.19,1.32s-.02,0-.02,0h0s0,0,0,0c-.3.07-.59.16-.84.27-1.26.53-1.37,1.37-.34,1.96.02,0,.03.02.05.03.09.05.19.1.29.14h0c.11.05.22.09.34.12.02,0,.04.01.06.02,1.39.44,3.35.39,4.61-.14.26-.11.46-.23.62-.36h0s0,0,.01-.01l3.11-2.63c.18.01.37.01.55,0h.01l1.27,1.74,3.96-1.68ZM661.73,22.08c1.51.27,3.27-.04,3.9-.69.64-.65-.08-1.4-1.6-1.67-1.54-.27-3.3.04-3.93.69-.63.65.09,1.39,1.63,1.67ZM667.91,25.25c.64-.65-.08-1.4-1.6-1.67-1.54-.27-3.3.04-3.93.69-.64.65.09,1.39,1.63,1.67,1.51.27,3.27-.04,3.9-.69ZM662.18,29.91c1.51.27,3.27-.04,3.9-.69.64-.65-.08-1.4-1.59-1.67-1.54-.27-3.3.04-3.93.69-.63.65.09,1.39,1.63,1.67ZM660.18,31.79v-.24s0,.11,0,.11v-.16s0,.11,0,.11v-.16s0,.11,0,.11v-.16s0,.11,0,.11v-.16s0,.11,0,.11v-.16s0,.11,0,.11v-.16s0,.11,0,.11v-.16s0,.11,0,.11v-.16s0,.11,0,.11v-.16s0,.11,0,.11v-.77s0,.21,0,.21v-.26s0,.21,0,.21v-.26s0,.21,0,.21v-.26s0,.21,0,.21v-.26s0,.21,0,.21v-.26s0,.21,0,.21v-.26s0,.21,0,.21v-.26s0,.21,0,.21v-.26s0,.21,0,.21v-.26s0,.21,0,.21v-.26s0,.21,0,.21v-.26s0,.21,0,.21v-.28h0v-.14h0v-.05h0v-.33h0v-.05h0v-.14h0v-.14h0v-.26c-.02-.18.03-.41.27-.65.08-.08.18-.16.3-.24-.65-.27-1.02-.64-1.02-1.08v-.65h0v-.37h0v-.39s0,.21,0,.21v-.25s0,.21,0,.21v-.25s0,.21,0,.21v-.25s0,.21,0,.21v-.25s0,.21,0,.21v-.25s0,.21,0,.21v-.25s0,.21,0,.21v-.25s0,.21,0,.21v-.25s0,.21,0,.21v-.25s0,.21,0,.21v-.25s0,.21,0,.21v-.25s0,.21,0,.21v-.51h0v-.05h0v-.05h0v-.05h0v-.37h-.01s-1.28,1.08-1.28,1.08l-.04.04h-.01c-.17.13-.38.24-.62.35-1.06.45-2.6.55-3.92.31l-2.12.65v.08c1.22-.43,2.84-.62,5.24-.49h.19v.21h0v.08h0v.7h0v.54s0,.03,0,.03v.7h0v.05h0v.26h0v.74h0v.05h0v.03h0v.17h0v.19h0v.78h0v.09h0v.05c.32-.17.65-.35,1.04-.61l.09-.06,1.9,1.7ZM632.55,28.02c5.08,2.16,9.54,4.35,13.21,6.43,6.33-1.66,10.74-2.27,14.36-2.51l-1.85-1.66c-1.18.74-1.81,1.05-3.07,1.31-.01-.4.39-.95,1.35-1.66l-6.04,1.38c1.43.11,2.47.23,3.23.54-4.19.65-6.58.26-7.46-.28-1.07-.66-.5-1.41.69-1.75,1.71-.47,3.52-.01,2.56.97,3.92-.57,2.55-1.85.37-2.11,4.32,0,6.48-.71,7.06-2.43-4.29-.24-6.16.53-7.65,2.09.21-1.29-2.88-1.86-4.7-.41,2.61-.24,2.97.76,1.25,1.31-1.49.48-4.28.2-6.25-.8-2.81-1.43-.86-2.42.83-3.2.9.26,1.56,1.14,1.09,2.34l5.36-1.91c-2.59.02-4-.36-5.32-.89,1.76-.38,5.9-.48,5.9-.48l-3.3-1.4h0s-2.85-1.21-2.85-1.21c0,0-.22,1.76-1.12,2.51-1.24-.56-2.14-1.16-2.09-2.26l-4.5,2.28c2.8-.2,4.88.08,5.5.46-1.84.72-4.16,1.55-7.53.35-2.34-.84-3.02-2.02-1.88-2.66,1.29-.73,3.65-.58,3.08.53,3.42-.78,2.09-2.09-.96-2,3.68-.64,5.5-1.43,4.92-3.25-4.06.24-5.73,1.16-5.73,3-.63-.93-3.64-1.51-4.98.16,2.31-.41,3.39.36,2.28,1.09-.79.51-2.56.75-4.12.29-1.27-.37-2.2-1.39-.66-3.17.73.33,1.01.76,1.27,1.37l3.25-2.57c-1.66.41-2.96.58-3.9.57.62-.54,1.35-.81,3.09-1.3l-3.9-.79c-.56,1.54-2.01,3.41-5.91,6.1,4.9,1.56,10.05,3.46,15.13,5.62Z"/></g></g></svg>