<?xml version="1.0" encoding="UTF-8"?>
<svg version="1.1" viewBox="0 0 712.5 355.1" xmlns="http://www.w3.org/2000/svg">
<defs>
<style>.cls-1 {
        fill: #f3f2f1;
      }

      .cls-2 {
        fill: #6f72af;
      }

      .cls-3 {
        fill: #4c2c92;
      }

      .cls-4 {
        fill: #1d70b8;
      }

      .cls-5 {
        fill: #f47738;
      }

      .cls-6 {
        fill: #d53880;
      }

      .cls-7 {
        fill: #0b0c0c;
      }

      .cls-8 {
        fill: #fff;
      }

      .cls-9 {
        fill: #5694ca;
      }

      .cls-10 {
        fill: #912b88;
      }

      .cls-11 {
        fill: #fd0;
      }

      .cls-12 {
        fill: #d4351c;
      }

      .cls-13 {
        fill: #f499be;
      }

      .cls-14 {
        fill: #00703c;
      }</style>
</defs>
<polygon class="cls-5" points="166.8 29.5 293.9 83.5 293.9 113.1 166.8 167.1 39.8 113.1 39.8 83.5"/>
<path class="cls-7" d="m166.8 29.5 127.1 54v29.7l-127.1 54-127.1-54v-29.7l127.1-54zm0 0.2-126.6 53.8 126.6 53.8 126.6-53.8-126.6-53.8zm0.2 137.1 126.7-53.8v-29.3l-126.7 53.8v29.3zm-127.1-53.8 126.7 53.8v-29.3l-126.7-53.8v29.3z"/>
<path class="cls-7" d="m159.2 104.9h-1.2c-1.2 0-2.4-0.3-2.9-0.8-0.2-0.2-0.3-0.4-0.3-0.6v-0.4 0.3-1.2 0.4-0.4 0.2-1.6 0.2-3.5-0.2-0.1s0 0 0-0.1c0.3-0.4 0.9-0.7 1.8-0.9 1.6-0.3 3.4 0 4.1 0.7 0.2 0.2 0.3 0.5 0.3 0.7v5.9c0 0.6-0.8 1.1-2 1.3zm1.6-7.8c-0.6-0.6-2.4-0.9-3.9-0.7-1.5 0.3-2.2 1-1.6 1.7s2.4 1 3.9 0.7 2.3-1 1.6-1.7z"/>
<path class="cls-7" d="m172.9 98.5 4.5-1.9 1.9 1.5h0.4l2.3-1.9 4.4 1.9v5.9l-0.9 0.2v1.7l-1.7 0.7v0.2h0.4c0.9 0.2 1.5 0.5 1.8 0.9v0.2 0.2 5.9c0 0.2 0 0.4-0.3 0.6-0.3 0.3-0.9 0.6-1.6 0.7v1.4s0 0 0 0v1.1c0 0.3 0 0.5-0.3 0.7-0.7 0.7-2.5 1-4 0.7-0.8-0.1-1.4-0.4-1.7-0.7v2.8h-0.3c-4.3 0.3-8.9 1.1-14.3 2.5h-0.1c-3.8-2.2-8.2-4.3-13.2-6.4s-10-4-15.1-5.6h-0.3v-6l0.2-0.2c3.3-2.3 5.2-4.2 5.9-6 0-0.1 4.5 0.8 4.5 0.8v-2-0.3-0.1s0 0 0-0.1c0.3-0.4 0.9-0.7 1.8-0.9 1.6-0.3 3.4 0 4.1 0.7 0.2 0.2 0.3 0.5 0.3 0.7v2.8c0.7-0.2 1.6-0.3 2.6-0.3h0.1c0 0.3 0.1 0.6 0.1 0.8v4l1.3-0.7v0.3c0 1 0.7 1.5 1.9 2.1 0.8-0.7 1-2.3 1-2.3v-0.2s4.3 1.8 4.3 1.8v-2-0.2c0-0.3 0.4-0.5 0.7-0.7s0 0 0 0v-7.2-0.2s0-0.1 0.1-0.2c0.3-0.4 0.9-0.7 1.8-0.8 1.6-0.3 3.4 0 4.1 0.7 0.2 0.2 0.3 0.5 0.3 0.7v2.1h0.2c0.3-0.1 0.6-0.2 0.9-0.3l1.6-0.3m-27 2.2zm5.9-2.6c-0.6-0.6-2.4-0.9-3.9-0.7s-2.2 1-1.6 1.7 2.4 1 3.9 0.7 2.3-1 1.6-1.7zm12.1 7.2c0.6 0.7 2.4 1 3.9 0.7s2.3-1 1.6-1.7c-0.6-0.6-2.4-0.9-3.9-0.7s-2.2 1-1.6 1.7zm6.3-7c-0.6-0.6-2.4-0.9-3.9-0.7s-2.2 1-1.6 1.7 2.4 1 3.9 0.7 2.3-1 1.6-1.7zm15.1 1.9-3.5-0.8v-0.2s4.5-1 4.5-1l-3.9-1.6-2.3 1.9h-0.6l-1.8-1.5-3.9 1.7 4.1 0.5v0.2l-6.2 1.3c-0.3 0-0.6 0.2-0.8 0.3-1.3 0.5-1.4 1.4-0.3 2 0 0 0.2 0 0.3 0.1 0.1 0 0.2 0 0.3 0.1 1.4 0.4 3.4 0.4 4.6-0.1 0.3-0.1 0.5-0.2 0.6-0.4s0 0 0 0l3.1-2.6h0.6l1.3 1.7 3.9-1.7zm-5.5 5.5c1.5 0.3 3.3 0 3.9-0.7s0-1.4-1.6-1.7c-1.5-0.3-3.3 0-3.9 0.7s0 1.4 1.6 1.7zm6.2 3.2c0.6-0.7 0-1.4-1.6-1.7-1.5-0.3-3.3 0-3.9 0.7s0 1.4 1.6 1.7c1.5 0.3 3.3 0 3.9-0.7zm-5.7 4.6c1.5 0.3 3.3 0 3.9-0.7s0-1.4-1.6-1.7c-1.5-0.3-3.3 0-3.9 0.7s0 1.4 1.6 1.7zm-2 1.9v-0.2 0 0 0 0 0 0 0 0 0-0.7 0.2-0.3 0.2-0.3 0.2-0.3 0.2-0.3 0.2-0.3 0.2-0.3 0.2-0.3 0.2-0.3 0.2-0.3 0.2-0.3 0.2-0.3 0.2-1.4c0-0.2 0-0.4 0.3-0.7 0 0 0.2-0.2 0.3-0.2-0.6-0.3-1-0.6-1-1.1v-1.4 0.2-0.2 0.2-0.2 0.2-0.2 0.2-0.2 0.2-0.2 0.2-0.2 0.2-0.2 0.2-0.2 0.2-0.2 0.2-0.2 0.2-0.2 0.2-1l-1.3 1.1s0 0 0 0l-0.6 0.3c-1.1 0.4-2.6 0.6-3.9 0.3l-2.1 0.7c1.2-0.3 2.8-0.5 5.2-0.4h0.2v4.6c0.3-0.2 0.6-0.3 1-0.6l1.9 1.6zm-27.6-3.7c5.1 2.2 9.5 4.3 13.2 6.4 6.3-1.7 10.7-2.3 14.3-2.5l-1.9-1.7c-1.2 0.7-1.8 1.1-3.1 1.3 0-0.4 0.4-0.9 1.4-1.7l-6 1.4c1.4 0.1 2.5 0.2 3.2 0.5-4.2 0.7-6.6 0.3-7.4-0.3-1.1-0.7-0.5-1.4 0.7-1.8 1.7-0.5 3.5 0 2.6 1 3.9-0.6 2.6-1.8 0.4-2.1 4.3 0 6.5-0.7 7.1-2.4-4.3-0.2-6.1 0.5-7.6 2.1 0.2-1.3-2.9-1.9-4.7-0.4 2.6-0.2 3 0.8 1.2 1.3-1.5 0.5-4.3 0.2-6.2-0.8-2.8-1.4-0.9-2.4 0.8-3.2 0.9 0.3 1.6 1.1 1.1 2.3l5.4-1.9c-2.6 0-4-0.4-5.3-0.9 1.8-0.4 5.9-0.5 5.9-0.5l-3.3-1.4-2.9-1.2s-0.2 1.8-1.1 2.5c-1.2-0.6-2.1-1.2-2.1-2.3l-4.5 2.3c2.8-0.2 4.9 0 5.5 0.5-1.8 0.7-4.2 1.5-7.5 0.3-2.3-0.8-3-2-1.9-2.7 1.3-0.7 3.6-0.6 3.1 0.5 3.4-0.8 2.1-2.1-1-2 3.7-0.6 5.5-1.4 4.9-3.2-4.1 0.2-5.7 1.2-5.7 3-0.6-0.9-3.6-1.5-5 0.2 2.3-0.4 3.4 0.4 2.3 1.1-0.8 0.5-2.6 0.8-4.1 0.3-1.3-0.4-2.2-1.4-0.7-3.2 0.7 0.3 1 0.8 1.3 1.4l3.2-2.6c-1.6 0.4-3 0.6-3.9 0.6 0.6-0.5 1.3-0.8 3.1-1.3l-3.9-0.8c-0.6 1.5-2 3.4-5.9 6.1 4.9 1.6 10 3.4 15.1 5.6z"/>
<path class="cls-7" d="m222.8 77.9h-1.2c-1.2 0-2.4-0.3-2.9-0.8-0.2-0.2-0.3-0.4-0.3-0.6v-0.4 0.3-1.2 0.4-0.4 0.2-1.6 0.2-3.5-0.2-0.1s0 0 0-0.1c0.3-0.4 0.9-0.7 1.8-0.9 1.6-0.3 3.4 0 4.1 0.7 0.2 0.2 0.3 0.5 0.3 0.7v5.9c0 0.6-0.8 1.1-2 1.3zm1.6-7.7c-0.6-0.6-2.4-0.9-3.9-0.7-1.5 0.3-2.2 1-1.6 1.7s2.4 1 3.9 0.7 2.3-1 1.6-1.7z"/>
<path class="cls-7" d="m236.4 71.5 4.5-1.9 1.9 1.5h0.4l2.3-1.9 4.4 1.9v5.9l-0.9 0.2v1.7l-1.7 0.7v0.2h0.4c0.9 0.2 1.5 0.5 1.8 0.9v0.2 0.2 5.9c0 0.2 0 0.4-0.3 0.6-0.3 0.3-0.9 0.6-1.6 0.7v1.4s0 0 0 0v1.1c0 0.3 0 0.5-0.3 0.7-0.7 0.7-2.5 1-4 0.7-0.8-0.1-1.4-0.4-1.7-0.7v2.8h-0.3c-4.3 0.3-8.9 1.1-14.3 2.5h-0.1c-3.8-2.2-8.2-4.3-13.2-6.4s-10-4-15.1-5.6h-0.3v-6l0.2-0.2c3.3-2.3 5.2-4.2 5.9-6 0-0.1 4.5 0.8 4.5 0.8v-2-0.3-0.1s0 0 0-0.1c0.3-0.4 0.9-0.7 1.8-0.9 1.6-0.3 3.4 0 4.1 0.7 0.2 0.2 0.3 0.5 0.3 0.7v2.8c0.7-0.2 1.6-0.3 2.6-0.3h0.1c0 0.3 0.1 0.6 0.1 0.8v4l1.3-0.7v0.3c0 1 0.7 1.5 1.9 2.1 0.8-0.7 1-2.3 1-2.3v-0.2s4.3 1.8 4.3 1.8v-2-0.2c0-0.3 0.4-0.5 0.7-0.7s0 0 0 0v-7.2-0.2s0-0.1 0.1-0.2c0.3-0.4 0.9-0.7 1.8-0.8 1.6-0.3 3.4 0 4.1 0.7 0.2 0.2 0.3 0.5 0.3 0.7v2.1h0.2c0.3-0.1 0.6-0.2 0.9-0.3l1.6-0.3m-27 2.2zm5.9-2.6c-0.6-0.6-2.4-0.9-3.9-0.7s-2.2 1-1.6 1.7 2.4 1 3.9 0.7 2.3-1 1.6-1.7zm12.1 7.2c0.6 0.7 2.4 1 3.9 0.7s2.3-1 1.6-1.7c-0.6-0.6-2.4-0.9-3.9-0.7s-2.2 1-1.6 1.7zm6.3-7c-0.6-0.6-2.4-0.9-3.9-0.7s-2.2 1-1.6 1.7 2.4 1 3.9 0.7 2.3-1 1.6-1.7zm15.2 1.9-3.5-0.8v-0.2s4.5-1 4.5-1l-3.9-1.6-2.3 1.9h-0.6l-1.8-1.5-3.9 1.7 4.1 0.5v0.2l-6.2 1.3c-0.3 0-0.6 0.2-0.8 0.3-1.3 0.5-1.4 1.4-0.3 2 0 0 0.2 0 0.3 0.1 0.1 0 0.2 0 0.3 0.1 1.4 0.4 3.4 0.4 4.6-0.1 0.3-0.1 0.5-0.2 0.6-0.4s0 0 0 0l3.1-2.6h0.6l1.3 1.7 3.9-1.7zm-5.5 5.5c1.5 0.3 3.3 0 3.9-0.7s0-1.4-1.6-1.7c-1.5-0.3-3.3 0-3.9 0.7s0 1.4 1.6 1.7zm6.1 3.2c0.6-0.7 0-1.4-1.6-1.7-1.5-0.3-3.3 0-3.9 0.7s0 1.4 1.6 1.7c1.5 0.3 3.3 0 3.9-0.7zm-5.7 4.7c1.5 0.3 3.3 0 3.9-0.7s0-1.4-1.6-1.7c-1.5-0.3-3.3 0-3.9 0.7s0 1.4 1.6 1.7zm-2 1.8v-0.2 0 0 0 0 0 0 0 0 0-0.7 0.2-0.3 0.2-0.3 0.2-0.3 0.2-0.3 0.2-0.3 0.2-0.3 0.2-0.3 0.2-0.3 0.2-0.3 0.2-0.3 0.2-0.3 0.2-1.4c0-0.2 0-0.4 0.3-0.7 0 0 0.2-0.2 0.3-0.2-0.6-0.3-1-0.6-1-1.1v-1.4 0.2-0.2 0.2-0.2 0.2-0.2 0.2-0.2 0.2-0.2 0.2-0.2 0.2-0.2 0.2-0.2 0.2-0.2 0.2-0.2 0.2-0.2 0.2-1l-1.3 1.1s0 0 0 0l-0.6 0.3c-1.1 0.4-2.6 0.6-3.9 0.3l-2.1 0.7c1.2-0.3 2.8-0.5 5.2-0.4h0.2v4.6c0.3-0.2 0.6-0.3 1-0.6l1.9 1.6zm-27.6-3.7c5.1 2.2 9.5 4.3 13.2 6.4 6.3-1.7 10.7-2.3 14.3-2.5l-1.9-1.7c-1.2 0.7-1.8 1.1-3.1 1.3 0-0.4 0.4-0.9 1.4-1.7l-6 1.4c1.4 0.1 2.5 0.2 3.2 0.5-4.2 0.7-6.6 0.3-7.4-0.3-1.1-0.7-0.5-1.4 0.7-1.8 1.7-0.5 3.5 0 2.6 1 3.9-0.6 2.6-1.8 0.4-2.1 4.3 0 6.5-0.7 7.1-2.4-4.3-0.2-6.1 0.5-7.6 2.1 0.2-1.3-2.9-1.9-4.7-0.4 2.6-0.2 3 0.8 1.2 1.3-1.5 0.5-4.3 0.2-6.2-0.8-2.8-1.4-0.9-2.4 0.8-3.2 0.9 0.3 1.6 1.1 1.1 2.3l5.4-1.9c-2.6 0-4-0.4-5.3-0.9 1.8-0.4 5.9-0.5 5.9-0.5l-3.3-1.4-2.9-1.2s-0.2 1.8-1.1 2.5c-1.2-0.6-2.1-1.2-2.1-2.3l-4.5 2.3c2.8-0.2 4.9 0 5.5 0.5-1.8 0.7-4.2 1.5-7.5 0.3-2.3-0.8-3-2-1.9-2.7 1.3-0.7 3.6-0.6 3.1 0.5 3.4-0.8 2.1-2.1-1-2 3.7-0.6 5.5-1.4 4.9-3.2-4.1 0.2-5.7 1.2-5.7 3-0.6-0.9-3.6-1.5-5 0.2 2.3-0.4 3.4 0.4 2.3 1.1-0.8 0.5-2.6 0.8-4.1 0.3-1.3-0.4-2.2-1.4-0.7-3.2 0.7 0.3 1 0.8 1.3 1.4l3.2-2.6c-1.6 0.4-3 0.6-3.9 0.6 0.6-0.5 1.3-0.8 3.1-1.3l-3.9-0.8c-0.6 1.5-2 3.4-5.9 6.1 4.9 1.6 10 3.4 15.1 5.6z"/>
<path class="cls-7" d="m95.7 77.9h-1.2c-1.2 0-2.3-0.3-2.9-0.8-0.2-0.2-0.3-0.4-0.3-0.6v-0.4 0.3-1.2 0.4-0.4 0.2-1.6 0.2-3.5-0.2-0.1s0 0 0-0.1c0.3-0.4 0.9-0.7 1.8-0.9 1.6-0.3 3.4 0 4.1 0.7 0.2 0.2 0.3 0.5 0.3 0.7v5.9c0 0.6-0.8 1.1-2 1.3zm1.6-7.7c-0.6-0.6-2.4-0.9-3.9-0.7-1.5 0.3-2.2 1-1.6 1.7s2.4 1 3.9 0.7 2.3-1 1.6-1.7z"/>
<path class="cls-7" d="m109.4 71.5 4.5-1.9 1.9 1.5h0.4l2.3-1.9 4.4 1.9v5.9l-0.9 0.2v1.7l-1.7 0.7v0.2h0.3c0.9 0.2 1.5 0.5 1.8 0.9v0.2 0.2 5.9c0 0.2 0 0.4-0.3 0.6-0.3 0.3-0.9 0.6-1.6 0.7v1.4s0 0 0 0v1.1c0 0.3 0 0.5-0.3 0.7-0.7 0.7-2.5 1-4 0.7-0.8-0.1-1.4-0.4-1.7-0.7v2.8h-0.3c-4.3 0.3-8.9 1.1-14.3 2.5h-0.1c-3.8-2.2-8.2-4.3-13.2-6.4s-10-4-15.1-5.6h-0.3v-6l0.2-0.2c3.3-2.3 5.2-4.2 5.8-6 0-0.1 4.5 0.8 4.5 0.8v-2-0.3-0.1s0 0 0-0.1c0.3-0.4 0.9-0.7 1.8-0.9 1.6-0.3 3.4 0 4.1 0.7 0.2 0.2 0.3 0.5 0.3 0.7v2.8c0.7-0.2 1.6-0.3 2.6-0.3h0.1c0 0.3 0.1 0.6 0 0.8v4l1.3-0.7v0.3c0 1 0.7 1.5 1.9 2.1 0.8-0.7 1-2.3 1-2.3v-0.2s4.3 1.8 4.3 1.8v-2-0.2c0-0.3 0.3-0.5 0.7-0.7s0 0 0 0v-7.2-0.2-0.2c0.3-0.4 0.9-0.7 1.8-0.8 1.6-0.3 3.4 0 4.1 0.7 0.2 0.2 0.3 0.5 0.3 0.7v2.1h0.2c0.3-0.1 0.6-0.2 0.9-0.3l1.6-0.3m-26.6 2.2zm5.9-2.6c-0.6-0.6-2.4-0.9-3.9-0.7s-2.2 1-1.6 1.7 2.4 1 3.9 0.7 2.3-1 1.6-1.7zm12.1 7.2c0.6 0.7 2.4 1 3.9 0.7s2.3-1 1.6-1.7c-0.6-0.6-2.4-0.9-3.9-0.7s-2.2 1-1.6 1.7zm6.3-7c-0.6-0.6-2.4-0.9-3.9-0.7s-2.2 1-1.6 1.7 2.4 1 3.9 0.7 2.3-1 1.6-1.7zm15.1 1.9-3.5-0.8v-0.2s4.5-1 4.5-1l-3.9-1.6-2.3 1.9h-0.5l-1.8-1.5-3.9 1.7 4.1 0.5v0.2l-6.2 1.3c-0.3 0-0.6 0.2-0.8 0.3-1.3 0.5-1.4 1.4-0.3 2 0 0 0.2 0 0.3 0.1 0.1 0 0.2 0 0.3 0.1 1.4 0.4 3.3 0.4 4.6-0.1 0.3-0.1 0.5-0.2 0.6-0.4s0 0 0 0l3.1-2.6h0.6l1.3 1.7 3.9-1.7zm-5.5 5.5c1.5 0.3 3.3 0 3.9-0.7s0-1.4-1.6-1.7c-1.5-0.3-3.3 0-3.9 0.7s0 1.4 1.6 1.7zm6.2 3.2c0.6-0.7 0-1.4-1.6-1.7-1.5-0.3-3.3 0-3.9 0.7s0 1.4 1.6 1.7c1.5 0.3 3.3 0 3.9-0.7zm-5.8 4.7c1.5 0.3 3.3 0 3.9-0.7s0-1.4-1.6-1.7c-1.5-0.3-3.3 0-3.9 0.7s0 1.4 1.6 1.7zm-2 1.8v-0.2 0 0 0 0 0 0 0 0 0-0.7 0.2-0.3 0.2-0.3 0.2-0.3 0.2-0.3 0.2-0.3 0.2-0.3 0.2-0.3 0.2-0.3 0.2-0.3 0.2-0.3 0.2-0.3 0.2-1.4c0-0.2 0-0.4 0.3-0.7s0.2-0.2 0.3-0.2c-0.7-0.3-1-0.6-1-1.1v-1.4 0.2-0.2 0.2-0.2 0.2-0.2 0.2-0.2 0.2-0.2 0.2-0.2 0.2-0.2 0.2-0.2 0.2-0.2 0.2-0.2 0.2-0.2 0.2-1l-1.3 1.1s0 0 0 0l-0.6 0.3c-1.1 0.4-2.6 0.6-3.9 0.3l-2.1 0.7c1.2-0.3 2.8-0.5 5.2-0.4h0.2v4.6c0.3-0.2 0.7-0.3 1-0.6l1.9 1.6zm-27.6-3.7c5.1 2.2 9.5 4.3 13.2 6.4 6.3-1.7 10.7-2.3 14.3-2.5l-1.8-1.7c-1.2 0.7-1.8 1.1-3.1 1.3 0-0.4 0.4-0.9 1.3-1.7l-6 1.4c1.4 0.1 2.5 0.2 3.2 0.5-4.2 0.7-6.6 0.3-7.4-0.3-1.1-0.7-0.5-1.4 0.7-1.8 1.7-0.5 3.5 0 2.6 1 3.9-0.6 2.6-1.8 0.4-2.1 4.3 0 6.5-0.7 7.1-2.4-4.3-0.2-6.2 0.5-7.7 2.1 0.2-1.3-2.9-1.9-4.7-0.4 2.6-0.2 3 0.8 1.2 1.3-1.5 0.5-4.3 0.2-6.2-0.8-2.8-1.4-0.9-2.4 0.8-3.2 0.9 0.3 1.6 1.1 1.1 2.3l5.3-1.9c-2.6 0-4-0.4-5.3-0.9 1.8-0.4 5.9-0.5 5.9-0.5l-3.3-1.4-2.8-1.2s-0.2 1.8-1.1 2.5c-1.2-0.6-2.1-1.2-2.1-2.3l-4.5 2.3c2.8-0.2 4.9 0 5.5 0.5-1.8 0.7-4.2 1.5-7.5 0.3-2.3-0.8-3-2-1.9-2.7 1.3-0.7 3.6-0.6 3.1 0.5 3.4-0.8 2.1-2.1-1-2 3.7-0.6 5.5-1.4 4.9-3.2-4.1 0.2-5.7 1.2-5.7 3-0.6-0.9-3.6-1.5-5 0.2 2.3-0.4 3.4 0.4 2.3 1.1-0.8 0.5-2.6 0.8-4.1 0.3-1.3-0.4-2.2-1.4-0.7-3.2 0.7 0.3 1 0.8 1.3 1.4l3.2-2.6c-1.7 0.4-3 0.6-3.9 0.6 0.6-0.5 1.3-0.8 3.1-1.3l-3.9-0.8c-0.6 1.5-2 3.4-5.9 6.1 4.9 1.6 10 3.4 15.1 5.6z"/>
<path class="cls-7" d="m159.2 50.9h-1.2c-1.2 0-2.4-0.3-2.9-0.8-0.2-0.2-0.3-0.4-0.3-0.6v-0.4 0.3-1.2 0.4-0.4 0.2-1.5 0.2-3.5-0.2-0.1-0.1c0.3-0.4 0.9-0.7 1.8-0.9 1.6-0.3 3.4 0 4.1 0.7 0.2 0.2 0.3 0.5 0.3 0.7v5.9c0 0.6-0.8 1.1-2 1.3zm1.6-7.7c-0.6-0.6-2.4-1-3.9-0.7s-2.2 1-1.6 1.7 2.4 1 3.9 0.7 2.3-1 1.6-1.7z"/>
<path class="cls-7" d="m172.9 44.5 4.5-1.9 1.9 1.5h0.4l2.3-1.9 4.4 1.9v6l-0.9 0.2v1.7l-1.7 0.7v0.2h0.4c0.9 0.2 1.5 0.5 1.8 0.9v0.2 0.2 5.9c0 0.2 0 0.4-0.3 0.6-0.3 0.3-0.9 0.6-1.6 0.7v1.4s0 0 0 0v1.1c0 0.3 0 0.5-0.3 0.7-0.7 0.7-2.5 1-4 0.7-0.8-0.1-1.4-0.4-1.7-0.7v2.8h-0.3c-4.3 0.3-8.9 1.1-14.3 2.5h-0.1c-3.8-2.2-8.2-4.3-13.2-6.4s-10-4-15.1-5.6h-0.3v-6l0.2-0.2c3.3-2.3 5.2-4.2 5.9-6 0-0.1 4.5 0.8 4.5 0.8v-2-0.3-0.1s0 0 0-0.1c0.3-0.4 0.9-0.7 1.8-0.9 1.6-0.3 3.4 0 4.1 0.7 0.2 0.2 0.3 0.5 0.3 0.7v2.8c0.7-0.2 1.6-0.3 2.6-0.3h0.1c0 0.3 0.1 0.6 0.1 0.8v4l1.3-0.7v0.3c0 1 0.7 1.5 1.9 2.1 0.8-0.7 1-2.3 1-2.3v-0.2s4.3 1.8 4.3 1.8v-2-0.3c0-0.3 0.4-0.5 0.7-0.7s0 0 0 0v-5.4-0.2s0-0.1 0.1-0.2c0.3-0.4 0.9-0.7 1.8-0.8 1.6-0.3 3.4 0 4.1 0.7 0.2 0.2 0.3 0.5 0.3 0.7v2.1h0.2c0.3-0.1 0.6-0.2 0.9-0.3l1.6-0.3m-27 0.5zm5.9-2.7c-0.6-0.6-2.4-1-3.9-0.7s-2.2 1-1.6 1.7 2.4 1 3.9 0.7 2.3-1 1.6-1.7zm12.1 7.3c0.6 0.7 2.4 1 3.9 0.7s2.3-1 1.6-1.7c-0.6-0.6-2.4-1-3.9-0.7s-2.2 1-1.6 1.7zm6.3-7.1c-0.6-0.6-2.4-1-3.9-0.7s-2.2 1-1.6 1.7 2.4 1 3.9 0.7 2.3-1 1.6-1.7zm15.1 1.9-3.5-0.8v-0.2s4.5-1 4.5-1l-3.9-1.6-2.3 1.9h-0.6l-1.8-1.5-3.9 1.7 4.1 0.5v0.2l-6.2 1.3c-0.3 0-0.6 0.2-0.8 0.3-1.3 0.5-1.4 1.4-0.3 2 0 0 0.2 0 0.3 0.1 0.1 0 0.2 0 0.3 0.1 1.4 0.4 3.4 0.4 4.6-0.1 0.3-0.1 0.5-0.2 0.6-0.4s0 0 0 0l3.1-2.6h0.6l1.3 1.7 3.9-1.7zm-5.5 5.6c1.5 0.3 3.3 0 3.9-0.7s0-1.4-1.6-1.7c-1.5-0.3-3.3 0-3.9 0.7s0 1.4 1.6 1.7zm6.2 3.1c0.6-0.7 0-1.4-1.6-1.7-1.5-0.3-3.3 0-3.9 0.7s0 1.4 1.6 1.7c1.5 0.3 3.3 0 3.9-0.7zm-5.7 4.7c1.5 0.3 3.3 0 3.9-0.7s0-1.4-1.6-1.7c-1.5-0.3-3.3 0-3.9 0.7s0 1.4 1.6 1.7zm-2 1.9v-0.2 0 0 0 0 0 0 0 0 0-0.7 0.2-0.3 0.2-0.3 0.2-0.3 0.2-0.3 0.2-0.3 0.2-0.3 0.2-0.3 0.2-0.3 0.2-0.3 0.2-0.3 0.2-0.3 0.2-1.4c0-0.2 0-0.4 0.3-0.7 0 0 0.2-0.2 0.3-0.2-0.6-0.3-1-0.6-1-1.1v-1.4 0.2-0.2 0.2-0.2 0.2-0.2 0.2-0.2 0.2-0.2 0.2-0.2 0.2-0.2 0.2-0.2 0.2-0.2 0.2-0.2 0.2-0.2 0.2-1l-1.3 1.1s0 0 0 0l-0.6 0.3c-1.1 0.5-2.6 0.5-3.9 0.3l-2.1 0.7c1.2-0.3 2.8-0.5 5.2-0.4h0.2v4.6c0.3-0.2 0.6-0.3 1-0.6l1.9 1.6zm-27.6-3.8c5.1 2.2 9.5 4.3 13.2 6.4 6.3-1.7 10.7-2.3 14.3-2.5l-1.9-1.7c-1.2 0.7-1.8 1-3.1 1.3 0-0.4 0.4-1 1.4-1.7l-6 1.4c1.4 0.1 2.5 0.2 3.2 0.5-4.2 0.7-6.6 0.3-7.4-0.3-1.1-0.7-0.5-1.4 0.7-1.8 1.7-0.5 3.5 0 2.6 1 3.9-0.6 2.6-1.8 0.4-2.1 4.3 0 6.5-0.7 7.1-2.4-4.3-0.2-6.1 0.5-7.6 2.1 0.2-1.3-2.9-1.9-4.7-0.4 2.6-0.2 3 0.8 1.2 1.3-1.5 0.5-4.3 0.2-6.2-0.8-2.8-1.4-0.9-2.4 0.8-3.2 0.9 0.3 1.6 1.1 1.1 2.3l5.4-1.9c-2.6 0-4-0.4-5.3-0.9 1.8-0.4 5.9-0.5 5.9-0.5l-3.3-1.4-2.9-1.2s-0.2 1.8-1.1 2.5c-1.2-0.6-2.1-1.2-2.1-2.3l-4.5 2.3c2.8-0.2 4.9 0 5.5 0.5-1.8 0.7-4.2 1.5-7.5 0.3-2.3-0.8-3-2-1.9-2.7 1.3-0.7 3.6-0.6 3.1 0.5 3.4-0.8 2.1-2.1-1-2 3.7-0.6 5.5-1.4 4.9-3.2-4.1 0.2-5.7 1.2-5.7 3-0.6-0.9-3.6-1.5-5 0.2 2.3-0.4 3.4 0.4 2.3 1.1-0.8 0.5-2.6 0.8-4.1 0.3-1.3-0.4-2.2-1.4-0.7-3.2 0.7 0.3 1 0.8 1.3 1.4l3.2-2.6c-1.6 0.4-3 0.6-3.9 0.6 0.6-0.5 1.3-0.8 3.1-1.3l-3.9-0.8c-0.6 1.5-2 3.4-5.9 6.1 4.9 1.6 10 3.5 15.1 5.6z"/>
<polygon class="cls-11" points="103.4 27.1 166.5 0 293.5 54 293.5 83.7 230 110.7 102.9 56.8 102.9 27.1 230 81"/>
<path class="cls-7" d="M102.9,27.1L166.5,0l127.1,54v29.7l-63.5,27-127.1-53.8v-29.7l127.1,53.8L102.9,27.1ZM229.8,81.1L103.1,27.4v29.3l126.7,53.7v-29.3ZM230.2,110.4l63.2-26.8v-29.3l-63.2,26.8v29.3ZM166.5.2l-63.1,27,126.6,53.6,63.1-26.8L166.5.2Z"/>
<path class="cls-7" d="m222.4 48.4h-1.2c-1.2 0-2.4-0.3-2.9-0.8-0.2-0.2-0.3-0.4-0.3-0.6v-0.4 0.3-1.2 0.4-0.4 0.2-1.5 0.2-3.5-0.2-0.1-0.1c0.3-0.4 0.9-0.7 1.8-0.9 1.6-0.3 3.4 0 4.1 0.7 0.2 0.2 0.3 0.5 0.3 0.7v5.9c0 0.6-0.8 1.1-2 1.3zm1.6-7.7c-0.6-0.6-2.4-1-3.9-0.7s-2.2 1-1.6 1.7 2.4 1 3.9 0.7 2.3-1 1.6-1.7z"/>
<path class="cls-7" d="m236.1 42 4.5-1.9 1.9 1.5h0.4l2.3-1.9 4.4 1.9v6l-0.9 0.2v1.7l-1.7 0.7v0.2h0.4c0.9 0.2 1.5 0.5 1.8 0.9v0.2 0.2 5.9c0 0.2 0 0.4-0.3 0.6-0.3 0.3-0.9 0.6-1.6 0.7v1.4s0 0 0 0v1.1c0 0.3 0 0.5-0.3 0.7-0.7 0.7-2.5 1-4 0.7-0.8-0.1-1.4-0.4-1.7-0.7v2.8h-0.3c-4.3 0.3-8.9 1.1-14.3 2.5h-0.1c-3.8-2.2-8.2-4.3-13.2-6.4s-10-4-15.1-5.6h-0.3v-6l0.2-0.2c3.3-2.3 5.2-4.2 5.9-6 0-0.1 4.5 0.8 4.5 0.8v-2-0.3-0.1s0 0 0-0.1c0.3-0.4 0.9-0.7 1.8-0.9 1.6-0.3 3.4 0 4.1 0.7 0.2 0.2 0.3 0.5 0.3 0.7v2.8c0.7-0.2 1.6-0.3 2.6-0.3h0.1c0 0.3 0.1 0.6 0.1 0.8v4l1.3-0.7v0.3c0 1 0.7 1.5 1.9 2.1 0.8-0.7 1-2.3 1-2.3v-0.2s4.3 1.8 4.3 1.8v-2-0.3c0-0.3 0.4-0.5 0.7-0.7s0 0 0 0v-5.4-0.2s0-0.1 0.1-0.2c0.3-0.4 0.9-0.7 1.8-0.8 1.6-0.3 3.4 0 4.1 0.7 0.2 0.2 0.3 0.5 0.3 0.7v2.1h0.2c0.3-0.1 0.6-0.2 0.9-0.3l1.6-0.3m-27 0.5zm5.9-2.6c-0.6-0.6-2.4-1-3.9-0.7s-2.2 1-1.6 1.7 2.4 1 3.9 0.7 2.3-1 1.6-1.7zm12.1 7.2c0.6 0.7 2.4 1 3.9 0.7s2.3-1 1.6-1.7c-0.6-0.6-2.4-1-3.9-0.7s-2.2 1-1.6 1.7zm6.3-7.1c-0.6-0.6-2.4-1-3.9-0.7s-2.2 1-1.6 1.7 2.4 1 3.9 0.7 2.3-1 1.6-1.7zm15.1 1.9-3.5-0.8v-0.2s4.5-1 4.5-1l-3.9-1.6-2.3 1.9h-0.6l-1.8-1.5-3.9 1.7 4.1 0.5v0.2l-6.2 1.3c-0.3 0-0.6 0.2-0.8 0.3-1.3 0.5-1.4 1.4-0.3 2 0 0 0.2 0 0.3 0.1 0.1 0 0.2 0 0.3 0.1 1.4 0.4 3.4 0.4 4.6-0.1 0.3-0.1 0.5-0.2 0.6-0.4s0 0 0 0l3.1-2.6h0.6l1.3 1.7 3.9-1.7zm-5.5 5.6c1.5 0.3 3.3 0 3.9-0.7s0-1.4-1.6-1.7c-1.5-0.3-3.3 0-3.9 0.7s0 1.4 1.6 1.7zm6.2 3.1c0.6-0.7 0-1.4-1.6-1.7-1.5-0.3-3.3 0-3.9 0.7s0 1.4 1.6 1.7c1.5 0.3 3.3 0 3.9-0.7zm-5.7 4.7c1.5 0.3 3.3 0 3.9-0.7s0-1.4-1.6-1.7c-1.5-0.3-3.3 0-3.9 0.7s0 1.4 1.6 1.7zm-2 1.9v-0.2 0 0 0 0 0 0 0 0 0-0.7 0.2-0.3 0.2-0.3 0.2-0.3 0.2-0.3 0.2-0.3 0.2-0.3 0.2-0.3 0.2-0.3 0.2-0.3 0.2-0.3 0.2-0.3 0.2-1.4c0-0.2 0-0.4 0.3-0.7 0 0 0.2-0.2 0.3-0.2-0.6-0.3-1-0.6-1-1.1v-1.4 0.2-0.2 0.2-0.2 0.2-0.2 0.2-0.2 0.2-0.2 0.2-0.2 0.2-0.2 0.2-0.2 0.2-0.2 0.2-0.2 0.2-0.2 0.2-1l-1.3 1.1s0 0 0 0l-0.6 0.3c-1.1 0.5-2.6 0.5-3.9 0.3l-2.1 0.7c1.2-0.3 2.8-0.5 5.2-0.4h0.2v4.6c0.3-0.2 0.6-0.3 1-0.6l1.9 1.6zm-27.7-3.8c5.1 2.2 9.5 4.3 13.2 6.4 6.3-1.7 10.7-2.3 14.3-2.5l-1.9-1.7c-1.2 0.7-1.8 1-3.1 1.3 0-0.4 0.4-1 1.4-1.7l-6 1.4c1.4 0.1 2.5 0.2 3.2 0.5-4.2 0.7-6.6 0.3-7.4-0.3-1.1-0.7-0.5-1.4 0.7-1.8 1.7-0.5 3.5 0 2.6 1 3.9-0.6 2.6-1.8 0.4-2.1 4.3 0 6.5-0.7 7.1-2.4-4.3-0.2-6.1 0.5-7.6 2.1 0.2-1.3-2.9-1.9-4.7-0.4 2.6-0.2 3 0.8 1.2 1.3-1.5 0.5-4.3 0.2-6.2-0.8-2.8-1.4-0.9-2.4 0.8-3.2 0.9 0.3 1.6 1.1 1.1 2.3l5.4-1.9c-2.6 0-4-0.4-5.3-0.9 1.8-0.4 5.9-0.5 5.9-0.5l-3.3-1.4-2.9-1.2s-0.2 1.8-1.1 2.5c-1.2-0.6-2.1-1.2-2.1-2.3l-4.5 2.3c2.8-0.2 4.9 0 5.5 0.5-1.8 0.7-4.2 1.5-7.5 0.3-2.3-0.8-3-2-1.9-2.7 1.3-0.7 3.6-0.6 3.1 0.5 3.4-0.8 2.1-2.1-1-2 3.7-0.6 5.5-1.4 4.9-3.2-4.1 0.2-5.7 1.2-5.7 3-0.6-0.9-3.6-1.5-5 0.2 2.3-0.4 3.4 0.4 2.3 1.1-0.8 0.5-2.6 0.8-4.1 0.3-1.3-0.4-2.2-1.4-0.7-3.2 0.7 0.3 1 0.8 1.3 1.4l3.2-2.6c-1.6 0.4-3 0.6-3.9 0.6 0.6-0.5 1.3-0.8 3.1-1.3l-3.9-0.8c-0.6 1.5-2 3.4-5.9 6.1 4.9 1.6 10 3.5 15.1 5.6z"/>
<path class="cls-7" d="M158.9,21.4c-.4,0-.8.1-1.2.1-1.2,0-2.4-.3-2.9-.8-.2-.2-.3-.4-.3-.6v-.4.4-1.2.4-.4.2-1.5.2-3.5h0c0-.1,0-.2,0-.2,0,0,0,0,0-.1s0,0,0-.1c.3-.4.9-.7,1.8-.9,1.6-.3,3.4,0,4.1.7.2.2.3.5.3.7h0v5.9c0,.6-.8,1.1-2,1.3h0ZM160.5,13.7c-.6-.6-2.4-.9-3.9-.7-1.5.3-2.2,1-1.6,1.6.6.6,2.4,1,3.9.7,1.5-.3,2.3-1,1.6-1.7h0Z"/>
<path class="cls-7" d="m172.6 15 4.5-1.9 1.9 1.5h0.4l2.3-1.9 4.4 1.9v5.9l-0.9 0.2v1.7l-1.7 0.7v0.2h0.4c0.9 0.2 1.5 0.5 1.8 0.9v0.1 0.2 5.9c0 0.2 0 0.4-0.3 0.6-0.3 0.3-0.9 0.6-1.6 0.7v1.4s0 0 0 0v1.1c0 0.3 0 0.5-0.3 0.7-0.7 0.7-2.5 1-4 0.7-0.8-0.1-1.4-0.4-1.7-0.7v2.8h-0.3c-4.3 0.3-8.9 1.1-14.3 2.5h-0.1c-3.8-2.2-8.2-4.3-13.2-6.4s-10-4-15.1-5.6h-0.3v-6l0.2-0.2c3.3-2.3 5.2-4.2 5.9-6 0-0.1 4.5 0.8 4.5 0.8v-2-0.3-0.1s0 0 0-0.1c0.3-0.4 0.9-0.7 1.8-0.9 1.6-0.3 3.4 0 4.1 0.7 0.2 0.2 0.3 0.5 0.3 0.7v2.8c0.7-0.1 1.6-0.3 2.6-0.3h0.1c0 0.4 0.1 0.6 0.1 0.8v4l1.3-0.6v0.3c0 1 0.7 1.5 1.9 2.1 0.8-0.7 1-2.3 1-2.4v-0.2s4.3 1.8 4.3 1.8v-2-0.3c0-0.3 0.4-0.5 0.7-0.7s0 0 0 0v-5.8-0.2s0-0.1 0.1-0.2c0.3-0.4 0.9-0.7 1.8-0.9 1.6-0.3 3.4 0 4.1 0.7 0.2 0.2 0.3 0.5 0.3 0.6v2.1h0.2c0.3-0.1 0.6-0.2 0.9-0.3l1.6-0.3m-27.1 1.3zm6-2.6c-0.6-0.6-2.4-0.9-3.9-0.7s-2.2 1-1.6 1.6c0.6 0.7 2.4 1 3.9 0.7s2.3-1 1.6-1.7zm12.1 7.2c0.6 0.7 2.4 1 3.9 0.7s2.3-1 1.6-1.7c-0.6-0.6-2.4-1-3.9-0.7s-2.2 1-1.6 1.6zm6.3-7c-0.6-0.6-2.4-0.9-3.9-0.7s-2.2 1-1.6 1.6 2.4 1 3.9 0.7 2.3-1 1.6-1.7zm15.1 1.8-3.5-0.8v-0.2s4.5-1 4.5-1l-3.9-1.6-2.3 1.9h-0.6l-1.8-1.5-3.9 1.7 4.1 0.5v0.2l-6.2 1.3c-0.3 0-0.6 0.2-0.8 0.3-1.3 0.5-1.4 1.4-0.3 2 0 0 0.2 0.1 0.3 0.1s0.2 0 0.3 0.1c1.4 0.4 3.4 0.4 4.6-0.1 0.3-0.1 0.5-0.2 0.6-0.4s0 0 0 0l3.1-2.6h0.6l1.3 1.7 3.9-1.7zm-5.5 5.6c1.5 0.3 3.3 0 3.9-0.7 0.6-0.6 0-1.4-1.6-1.7-1.5-0.3-3.3 0-3.9 0.7s0 1.4 1.6 1.7zm6.2 3.1c0.6-0.6 0-1.4-1.6-1.7-1.5-0.3-3.3 0-3.9 0.7s0 1.4 1.6 1.7c1.5 0.3 3.3 0 3.9-0.7zm-5.8 4.7c1.5 0.3 3.3 0 3.9-0.7 0.6-0.6 0-1.4-1.6-1.7-1.5-0.3-3.3 0-3.9 0.7s0 1.4 1.6 1.7zm-2 1.9v-0.2 0 0 0 0 0 0 0 0 0-0.7 0.2-0.3 0.2-0.3 0.2-0.3 0.2-0.3 0.2-0.3 0.2-0.3 0.2-0.3 0.2-0.3 0.2-0.3 0.2-0.3 0.2-0.3 0.2-1.4c0-0.2 0-0.4 0.3-0.6s0.2-0.2 0.3-0.2c-0.6-0.3-1-0.6-1-1.1v-1.4 0.2-0.2 0.2-0.2 0.2-0.2 0.2-0.2 0.2-0.2 0.2-0.2 0.2-0.2 0.2-0.2 0.2-0.2 0.2-0.2 0.2-0.2 0.2-1l-1.3 1.1s0 0 0 0c-0.2 0.1-0.4 0.2-0.6 0.4-1.1 0.5-2.6 0.5-3.9 0.3l-2.1 0.6c1.2-0.4 2.8-0.5 5.2-0.4h0.2v4.6c0.3-0.2 0.6-0.4 1-0.6l1.9 1.6zm-27.6-3.8c5.1 2.2 9.5 4.3 13.2 6.4 6.3-1.7 10.7-2.3 14.3-2.5l-1.9-1.7c-1.2 0.7-1.8 1-3.1 1.3 0-0.4 0.4-1 1.4-1.7l-6 1.4c1.4 0.1 2.5 0.2 3.2 0.5-4.2 0.6-6.6 0.3-7.4-0.3-1.1-0.7-0.5-1.4 0.7-1.8 1.7-0.5 3.5 0 2.6 1 3.9-0.6 2.6-1.8 0.4-2.1 4.3 0 6.5-0.7 7.1-2.4-4.3-0.2-6.1 0.5-7.6 2.1 0.2-1.3-2.9-1.9-4.7-0.4 2.6-0.2 3 0.8 1.2 1.3-1.5 0.5-4.3 0.2-6.2-0.8-2.8-1.4-0.9-2.4 0.8-3.2 0.9 0.3 1.6 1.1 1.1 2.3l5.4-1.9c-2.6 0-4-0.4-5.3-0.9 1.8-0.4 5.9-0.5 5.9-0.5l-3.3-1.4-2.9-1.2s-0.2 1.8-1.1 2.5c-1.2-0.6-2.1-1.2-2.1-2.3l-4.5 2.3c2.8-0.2 4.9 0 5.5 0.5-1.8 0.7-4.2 1.5-7.5 0.4-2.3-0.8-3-2-1.9-2.6 1.3-0.7 3.6-0.6 3.1 0.5 3.4-0.8 2.1-2.1-1-2 3.7-0.6 5.5-1.4 4.9-3.2-4.1 0.2-5.7 1.2-5.7 3-0.6-0.9-3.6-1.5-5 0.2 2.3-0.4 3.4 0.4 2.3 1.1-0.8 0.5-2.6 0.8-4.1 0.3-1.3-0.4-2.2-1.4-0.7-3.2 0.7 0.3 1 0.8 1.3 1.4l3.2-2.6c-1.6 0.4-3 0.6-3.9 0.6 0.6-0.5 1.3-0.8 3.1-1.3l-3.9-0.8c-0.6 1.5-2 3.4-5.9 6.1 4.9 1.6 10 3.5 15.1 5.6z"/>
<polygon class="cls-4" points="69 271.5 5.5 298.5 5.5 328.1 69 355.1 132.5 328.1 132.5 298.5"/>
<path class="cls-7" d="m69 271.5-63.5 27v29.7l63.5 27 63.5-27v-29.7s-63.5-27-63.5-27zm0 0.1 63.1 26.8-63.1 26.8-63.1-26.8s63.1-26.8 63.1-26.8zm-0.2 83.2-63.2-26.8v-29.3l63.2 26.8v29.3zm63.5-26.8-63.2 26.8v-29.3l63.2-26.8v29.3z"/>
<path class="cls-7" d="M76.5,292.9c.4,0,.8.1,1.2.1,1.2,0,2.3-.3,2.9-.8.2-.2.3-.4.3-.6v-.4.4-1.2.4-.4.2-1.5.2-3.5h0c0,0,0-.2,0-.2,0,0,0,0,0-.1s0,0,0-.1c-.3-.4-.9-.7-1.8-.9-1.6-.3-3.4,0-4.1.7-.2.2-.3.5-.3.7h0v5.9c0,.6.8,1.1,2,1.3h0ZM74.9,285.1c.6-.6,2.4-1,3.9-.7,1.5.3,2.2,1,1.6,1.6-.6.6-2.4,1-3.9.7-1.5-.3-2.3-1-1.6-1.7h0Z"/>
<path class="cls-7" d="m62.8 286.5-4.5-1.9-1.9 1.5h-0.5l-2.3-1.9-4.4 1.9v6l0.9 0.2v1.7l1.7 0.7v0.2h-0.3c-0.9 0.2-1.5 0.5-1.8 0.9v0.1 0.2 5.9c0 0.2 0 0.4 0.3 0.6 0.3 0.3 0.9 0.6 1.6 0.7v1.4s0 0 0 0v1.1c0 0.3 0 0.5 0.3 0.7 0.7 0.7 2.5 1 4 0.7 0.8-0.1 1.4-0.4 1.7-0.7v2.8h0.3c4.3 0.3 8.9 1.1 14.3 2.5h0.1c3.8-2.2 8.2-4.3 13.2-6.4s10-4 15.1-5.6h0.3v-6l-0.2-0.2c-3.3-2.3-5.2-4.2-5.8-6 0-0.1-4.5 0.8-4.5 0.8v-2-0.3-0.1s0 0 0-0.1c-0.3-0.4-0.9-0.7-1.8-0.9-1.6-0.3-3.4 0-4.1 0.7-0.2 0.2-0.3 0.5-0.3 0.7v2.8c-0.7-0.1-1.6-0.3-2.6-0.3h-0.1c0 0.4-0.1 0.6 0 0.8v4l-1.3-0.6v0.3c0 1-0.7 1.5-1.9 2.1-0.8-0.7-1-2.3-1-2.4v-0.2s-4.3 1.8-4.3 1.8v-2-0.3c0-0.3-0.3-0.5-0.7-0.7s0 0 0 0v-5.4-0.2-0.2c-0.3-0.4-0.9-0.7-1.8-0.9-1.6-0.3-3.4 0-4.1 0.7-0.2 0.2-0.3 0.5-0.3 0.6v2.1h-0.2c-0.3-0.1-0.6-0.2-0.9-0.3l-1.6-0.3m26.7 0.7zm-5.9-2.6c0.6-0.6 2.4-1 3.9-0.7s2.2 1 1.6 1.6c-0.6 0.7-2.4 1-3.9 0.7s-2.3-1-1.6-1.7zm-12.1 7.2c-0.6 0.7-2.4 1-3.9 0.7s-2.3-1-1.6-1.7c0.6-0.6 2.4-1 3.9-0.7s2.2 1 1.6 1.6zm-6.3-7c0.6-0.6 2.4-1 3.9-0.7s2.2 1 1.6 1.6-2.4 1-3.9 0.7-2.3-1-1.6-1.7zm-15.1 1.9 3.5-0.8v-0.2s-4.5-1-4.5-1l3.9-1.6 2.3 1.9h0.5l1.8-1.5 4 1.7-4.1 0.5v0.2l6.2 1.3c0.3 0 0.6 0.2 0.8 0.3 1.3 0.5 1.4 1.4 0.3 2 0 0-0.2 0.1-0.3 0.1s-0.2 0-0.3 0.1c-1.4 0.4-3.3 0.4-4.6-0.1-0.3-0.1-0.5-0.2-0.6-0.4s0 0 0 0l-3.1-2.6h-0.5l-1.3 1.7-4-1.7zm5.5 5.5c-1.5 0.3-3.3 0-3.9-0.7-0.6-0.6 0-1.4 1.6-1.7 1.5-0.3 3.3 0 3.9 0.7s0 1.4-1.6 1.7zm-6.2 3.2c-0.6-0.6 0-1.4 1.6-1.7 1.5-0.3 3.3 0 3.9 0.7s0 1.4-1.6 1.7c-1.5 0.3-3.3 0-3.9-0.7zm5.7 4.6c-1.5 0.3-3.3 0-3.9-0.7-0.6-0.6 0-1.4 1.6-1.7 1.5-0.3 3.3 0 3.9 0.7s0 1.4-1.6 1.7zm2 1.9v-0.2 0 0 0 0 0 0 0 0 0-0.7 0.2-0.3 0.2-0.3 0.2-0.3 0.2-0.3 0.2-0.3 0.2-0.3 0.2-0.3 0.2-0.3 0.2-0.3 0.2-0.3 0.2-0.3 0.2-1.4c0-0.2 0-0.4-0.3-0.6 0 0-0.2-0.2-0.3-0.2 0.7-0.3 1-0.6 1-1.1v-1.4 0.2-0.2 0.2-0.2 0.2-0.2 0.2-0.2 0.2-0.2 0.2-0.2 0.2-0.2 0.2-0.2 0.2-0.2 0.2-0.2 0.2-0.2 0.2-1l1.3 1.1s0 0 0 0c0.2 0.1 0.4 0.2 0.6 0.4 1.1 0.5 2.6 0.5 3.9 0.3l2.1 0.6c-1.2-0.4-2.8-0.5-5.2-0.4h-0.2v4.6c-0.3-0.2-0.7-0.4-1-0.6l-1.9 1.6zm27.6-3.7c-5.1 2.2-9.5 4.3-13.2 6.4-6.3-1.6-10.7-2.3-14.3-2.5l1.8-1.7c1.2 0.7 1.8 1 3.1 1.3 0-0.4-0.4-1-1.3-1.7l6 1.4c-1.4 0.1-2.5 0.2-3.2 0.5 4.2 0.6 6.6 0.3 7.4-0.3 1.1-0.7 0.5-1.4-0.7-1.8-1.7-0.5-3.5 0-2.6 1-3.9-0.6-2.6-1.8-0.4-2.1-4.3 0-6.5-0.7-7-2.4 4.3-0.2 6.1 0.5 7.6 2.1-0.2-1.3 2.9-1.9 4.7-0.4-2.6-0.2-3 0.8-1.2 1.3 1.5 0.5 4.3 0.2 6.2-0.8 2.8-1.4 0.9-2.4-0.8-3.2-0.9 0.3-1.6 1.1-1.1 2.3l-5.3-1.9c2.6 0 4-0.4 5.3-0.9-1.8-0.4-5.9-0.5-5.9-0.5l3.3-1.4 2.8-1.2s0.2 1.8 1.1 2.5c1.2-0.6 2.1-1.2 2.1-2.3l4.5 2.3c-2.8-0.2-4.9 0-5.5 0.5 1.8 0.7 4.2 1.5 7.5 0.4 2.3-0.8 3-2 1.9-2.6-1.3-0.7-3.6-0.6-3.1 0.5-3.4-0.8-2.1-2.1 1-2-3.7-0.6-5.5-1.4-4.9-3.2 4.1 0.2 5.7 1.2 5.7 3 0.6-0.9 3.6-1.5 5 0.2-2.3-0.4-3.4 0.4-2.3 1.1 0.8 0.5 2.6 0.8 4.1 0.3 1.3-0.4 2.2-1.4 0.7-3.2-0.7 0.3-1 0.8-1.3 1.4l-3.2-2.6c1.7 0.4 3 0.6 3.9 0.6-0.6-0.5-1.3-0.8-3.1-1.3l3.9-0.8c0.6 1.5 2 3.4 5.9 6.1-4.9 1.6-10 3.5-15.1 5.6z"/>
<polygon class="cls-9" points="69 241.8 5.5 268.8 5.5 298.4 69 325.4 132.5 298.4 132.5 268.8"/>
<path class="cls-7" d="m69 241.8-63.5 27v29.7l63.5 27 63.5-27v-29.7s-63.5-27-63.5-27zm0 0.2 63.1 26.8-63.1 26.8-63.1-26.8s63.1-26.8 63.1-26.8zm-0.2 83.2-63.2-26.8v-29.3l63.2 26.8v29.3zm63.5-26.9-63.2 26.8v-29.3l63.2-26.8v29.3z"/>
<path class="cls-7" d="M76.5,263.2c.4,0,.8.1,1.2.1,1.2,0,2.3-.3,2.9-.8.2-.2.3-.4.3-.6v-.4.4-1.2.4-.4.2-1.5.2-3.5h0c0-.1,0-.2,0-.2,0,0,0,0,0-.1s0,0,0-.1c-.3-.4-.9-.7-1.8-.9-1.6-.3-3.4,0-4.1.7-.2.2-.3.5-.3.7h0v5.9c0,.6.8,1.1,2,1.3h0ZM74.9,255.4c.6-.6,2.4-.9,3.9-.7,1.5.3,2.2,1,1.6,1.6-.6.6-2.4,1-3.9.7-1.5-.3-2.3-1-1.6-1.7h0Z"/>
<path class="cls-7" d="m62.8 256.8-4.5-1.9-1.9 1.5h-0.5l-2.3-1.9-4.4 1.9v6l0.9 0.2v1.7l1.7 0.7v0.2h-0.3c-0.9 0.2-1.5 0.5-1.8 0.9v0.1 0.2 5.9c0 0.2 0 0.4 0.3 0.6 0.3 0.3 0.9 0.6 1.6 0.7v1.4s0 0 0 0v1.1c0 0.3 0 0.5 0.3 0.7 0.7 0.7 2.5 1 4 0.7 0.8-0.1 1.4-0.4 1.7-0.7v2.8h0.3c4.3 0.3 8.9 1.1 14.3 2.5h0.1c3.8-2.2 8.2-4.3 13.2-6.4s10-4 15.1-5.6h0.3v-6l-0.2-0.2c-3.3-2.3-5.2-4.2-5.8-6 0-0.1-4.5 0.8-4.5 0.8v-2-0.3-0.1s0 0 0-0.1c-0.3-0.4-0.9-0.7-1.8-0.9-1.6-0.3-3.4 0-4.1 0.7-0.2 0.2-0.3 0.5-0.3 0.7v2.8c-0.7-0.1-1.6-0.3-2.6-0.3h-0.1c0 0.4-0.1 0.6 0 0.8v4l-1.3-0.6v0.3c0 1-0.7 1.5-1.9 2.1-0.8-0.7-1-2.3-1-2.4v-0.2s-4.3 1.8-4.3 1.8v-2-0.3c0-0.3-0.3-0.5-0.7-0.7s0 0 0 0v-5.4-0.2-0.2c-0.3-0.4-0.9-0.7-1.8-0.9-1.6-0.3-3.4 0-4.1 0.7-0.2 0.2-0.3 0.5-0.3 0.6v2.1h-0.2c-0.3-0.1-0.6-0.2-0.9-0.3l-1.6-0.3m26.7 0.7zm-5.9-2.6c0.6-0.6 2.4-0.9 3.9-0.7s2.2 1 1.6 1.6c-0.6 0.7-2.4 1-3.9 0.7s-2.3-1-1.6-1.7zm-12.1 7.2c-0.6 0.7-2.4 1-3.9 0.7s-2.3-1-1.6-1.7c0.6-0.6 2.4-1 3.9-0.7s2.2 1 1.6 1.6zm-6.3-7c0.6-0.6 2.4-0.9 3.9-0.7 1.5 0.3 2.2 1 1.6 1.6s-2.4 1-3.9 0.7-2.3-1-1.6-1.7zm-15.1 1.9 3.5-0.8v-0.2s-4.5-1-4.5-1l3.9-1.6 2.3 1.9h0.5l1.8-1.5 4 1.7-4.1 0.5v0.2l6.2 1.3c0.3 0 0.6 0.2 0.8 0.3 1.3 0.5 1.4 1.4 0.3 2 0 0-0.2 0.1-0.3 0.1s-0.2 0-0.3 0.1c-1.4 0.4-3.3 0.4-4.6-0.1-0.3-0.1-0.5-0.2-0.6-0.4s0 0 0 0l-3.1-2.6h-0.5l-1.3 1.7-4-1.7zm5.5 5.5c-1.5 0.3-3.3 0-3.9-0.7-0.6-0.6 0-1.4 1.6-1.7 1.5-0.3 3.3 0 3.9 0.7s0 1.4-1.6 1.7zm-6.2 3.2c-0.6-0.6 0-1.4 1.6-1.7 1.5-0.3 3.3 0 3.9 0.7s0 1.4-1.6 1.7c-1.5 0.3-3.3 0-3.9-0.7zm5.7 4.7c-1.5 0.3-3.3 0-3.9-0.7-0.6-0.6 0-1.4 1.6-1.7 1.5-0.3 3.3 0 3.9 0.7s0 1.4-1.6 1.7zm2 1.8v-0.2 0 0 0 0 0 0 0 0 0-0.7 0.2-0.3 0.2-0.3 0.2-0.3 0.2-0.3 0.2-0.3 0.2-0.3 0.2-0.3 0.2-0.3 0.2-0.3 0.2-0.3 0.2-0.3 0.2-1.4c0-0.2 0-0.4-0.3-0.6 0 0-0.2-0.2-0.3-0.2 0.7-0.3 1-0.6 1-1.1v-1.4 0.2-0.2 0.2-0.2 0.2-0.2 0.2-0.2 0.2-0.2 0.2-0.2 0.2-0.2 0.2-0.2 0.2-0.2 0.2-0.2 0.2-0.2 0.2-1l1.3 1.1s0 0 0 0c0.2 0.1 0.4 0.2 0.6 0.4 1.1 0.5 2.6 0.5 3.9 0.3l2.1 0.6c-1.2-0.4-2.8-0.5-5.2-0.4h-0.2v4.6c-0.3-0.2-0.7-0.4-1-0.6l-1.9 1.6zm27.6-3.7c-5.1 2.2-9.5 4.3-13.2 6.4-6.3-1.6-10.7-2.3-14.3-2.5l1.8-1.7c1.2 0.7 1.8 1 3.1 1.3 0-0.4-0.4-1-1.3-1.7l6 1.4c-1.4 0.1-2.5 0.2-3.2 0.5 4.2 0.6 6.6 0.3 7.4-0.3 1.1-0.7 0.5-1.4-0.7-1.8-1.7-0.5-3.5 0-2.6 1-3.9-0.6-2.6-1.8-0.4-2.1-4.3 0-6.5-0.7-7-2.4 4.3-0.2 6.1 0.5 7.6 2.1-0.2-1.3 2.9-1.9 4.7-0.4-2.6-0.2-3 0.8-1.2 1.3 1.5 0.5 4.3 0.2 6.2-0.8 2.8-1.4 0.9-2.4-0.8-3.2-0.9 0.3-1.6 1.1-1.1 2.3l-5.3-1.9c2.6 0 4-0.4 5.3-0.9-1.8-0.4-5.9-0.5-5.9-0.5l3.3-1.4 2.8-1.2s0.2 1.8 1.1 2.5c1.2-0.6 2.1-1.2 2.1-2.3l4.5 2.3c-2.8-0.2-4.9 0-5.5 0.5 1.8 0.7 4.2 1.5 7.5 0.4 2.3-0.8 3-2 1.9-2.6-1.3-0.7-3.6-0.6-3.1 0.5-3.4-0.8-2.1-2.1 1-2-3.7-0.6-5.5-1.4-4.9-3.2 4.1 0.2 5.7 1.2 5.7 3 0.6-0.9 3.6-1.5 5 0.2-2.3-0.4-3.4 0.4-2.3 1.1 0.8 0.5 2.6 0.8 4.1 0.3 1.3-0.4 2.2-1.4 0.7-3.2-0.7 0.3-1 0.8-1.3 1.4l-3.2-2.6c1.7 0.4 3 0.6 3.9 0.6-0.6-0.5-1.3-0.8-3.1-1.3l3.9-0.8c0.6 1.5 2 3.4 5.9 6.1-4.9 1.6-10 3.5-15.1 5.6z"/>
<polygon class="cls-8" points="69.1 212 5.6 239 5.6 268.6 69.1 295.6 132.6 268.6 132.6 239"/>
<path class="cls-7" d="m69.1 212-63.5 27v29.7l63.5 27 63.5-27v-29.7l-63.5-27zm0 0.2 63.1 26.8-63.1 26.8-63.1-26.8s63.1-26.8 63.1-26.8zm-0.2 83.2-63.2-26.8v-29.3l63.2 26.8v29.3zm63.6-26.9-63.2 26.8v-29.3l63.2-26.8v29.3z"/>
<path class="cls-7" d="M76.6,233.4c.4,0,.8.1,1.2.1,1.2,0,2.3-.3,2.9-.8.2-.2.3-.4.3-.6v-.4.4-1.2.4-.4.2-1.6.2-3.5h0c0-.1,0-.2,0-.2,0,0,0,0,0-.1s0,0,0-.1c-.3-.4-.9-.7-1.8-.9-1.6-.3-3.4,0-4.1.7-.2.2-.3.5-.3.7h0v5.9c0,.6.8,1.1,2,1.3h0ZM75,225.6c.6-.6,2.4-.9,3.9-.7,1.5.3,2.2,1,1.6,1.6-.6.6-2.4,1-3.9.7-1.5-.3-2.3-1-1.6-1.7h0Z"/>
<path class="cls-7" d="m62.9 227-4.5-1.9-1.9 1.5h-0.5l-2.3-1.9-4.4 1.9v5.9l0.9 0.2v1.7l1.7 0.7v0.2h-0.3c-0.9 0.2-1.5 0.5-1.8 0.9v0.1 0.2 5.9c0 0.2 0 0.4 0.3 0.6 0.3 0.3 0.9 0.6 1.6 0.7v1.4s0 0 0 0v1.1c0 0.3 0 0.5 0.3 0.7 0.7 0.7 2.5 1 4 0.7 0.8-0.1 1.4-0.4 1.7-0.7v2.8h0.3c4.3 0.3 8.9 1.1 14.3 2.5h0.1c3.8-2.2 8.2-4.3 13.2-6.4s10-4 15.1-5.6h0.3v-6l-0.2-0.2c-3.3-2.3-5.2-4.2-5.8-6 0-0.1-4.5 0.8-4.5 0.8v-2-0.3-0.1s0 0 0-0.1c-0.3-0.4-0.9-0.7-1.8-0.9-1.6-0.3-3.4 0-4.1 0.7-0.2 0.2-0.3 0.5-0.3 0.7v2.8c-0.7-0.1-1.6-0.3-2.6-0.3h-0.1c0 0.4-0.1 0.6 0 0.8v4l-1.3-0.6v0.3c0 1-0.7 1.5-1.9 2.1-0.8-0.7-1-2.3-1-2.4v-0.2s-4.3 1.8-4.3 1.8v-2-0.3c0-0.3-0.3-0.5-0.7-0.7s0 0 0 0v-7.2-0.2-0.2c-0.3-0.4-0.9-0.7-1.8-0.9-1.6-0.3-3.4 0-4.1 0.7-0.2 0.2-0.3 0.5-0.3 0.6v2.1h-0.2c-0.3-0.1-0.6-0.2-0.9-0.3l-1.6-0.3m26.8 2.6zm-5.9-2.6c0.6-0.6 2.4-0.9 3.9-0.7s2.2 1 1.6 1.6c-0.6 0.7-2.4 1-3.9 0.7s-2.3-1-1.6-1.7zm-12.2 7.2c-0.6 0.7-2.4 1-3.9 0.7s-2.3-1-1.6-1.7c0.6-0.6 2.4-0.9 3.9-0.7s2.2 1 1.6 1.6zm-6.3-7c0.6-0.6 2.4-0.9 3.9-0.7s2.2 1 1.6 1.6-2.4 1-3.9 0.7-2.3-1-1.6-1.7zm-15.1 1.9 3.5-0.8v-0.2s-4.5-1-4.5-1l3.9-1.6 2.3 1.9h0.5l1.8-1.5 4 1.7-4.1 0.5v0.2l6.2 1.3c0.3 0 0.6 0.2 0.8 0.3 1.3 0.5 1.4 1.4 0.3 2 0 0-0.2 0.1-0.3 0.1s-0.2 0-0.3 0.1c-1.4 0.4-3.3 0.4-4.6-0.1-0.3-0.1-0.5-0.2-0.6-0.4s0 0 0 0l-3.1-2.6h-0.5l-1.3 1.7-4-1.7zm5.5 5.5c-1.5 0.3-3.3 0-3.9-0.7-0.6-0.6 0-1.4 1.6-1.7 1.5-0.3 3.3 0 3.9 0.7s0 1.4-1.6 1.7zm-6.2 3.2c-0.6-0.6 0-1.4 1.6-1.7 1.5-0.3 3.3 0 3.9 0.7s0 1.4-1.6 1.7c-1.5 0.3-3.3 0-3.9-0.7zm5.8 4.6c-1.5 0.3-3.3 0-3.9-0.7-0.6-0.6 0-1.4 1.6-1.7 1.5-0.3 3.3 0 3.9 0.7s0 1.4-1.6 1.7zm2 1.9v-0.2 0 0 0 0 0 0 0 0 0-0.7 0.2-0.3 0.2-0.3 0.2-0.3 0.2-0.3 0.2-0.3 0.2-0.3 0.2-0.3 0.2-0.3 0.2-0.3 0.2-0.3 0.2-0.3 0.2-1.4c0-0.2 0-0.4-0.3-0.6 0 0-0.2-0.2-0.3-0.2 0.7-0.3 1-0.6 1-1.1v-1.4 0.2-0.2 0.2-0.2 0.2-0.2 0.2-0.2 0.2-0.2 0.2-0.2 0.2-0.2 0.2-0.2 0.2-0.2 0.2-0.2 0.2-0.2 0.2-1l1.3 1.1s0 0 0 0c0.2 0.1 0.4 0.2 0.6 0.4 1.1 0.4 2.6 0.6 3.9 0.3l2.1 0.6c-1.2-0.3-2.8-0.5-5.2-0.4h-0.2v4.6c-0.3-0.2-0.7-0.4-1-0.6l-1.9 1.6zm27.6-3.7c-5.1 2.2-9.5 4.3-13.2 6.4-6.3-1.6-10.7-2.3-14.3-2.5l1.8-1.7c1.2 0.7 1.8 1.1 3.1 1.3 0-0.4-0.4-0.9-1.3-1.7l6 1.4c-1.4 0.1-2.5 0.2-3.2 0.5 4.2 0.6 6.6 0.3 7.4-0.3 1.1-0.7 0.5-1.4-0.7-1.8-1.7-0.5-3.5 0-2.6 1-3.9-0.6-2.6-1.8-0.4-2.1-4.3 0-6.5-0.7-7-2.4 4.3-0.2 6.1 0.5 7.6 2.1-0.2-1.3 2.9-1.9 4.7-0.4-2.6-0.2-3 0.8-1.2 1.3 1.5 0.5 4.3 0.2 6.2-0.8 2.8-1.4 0.9-2.4-0.8-3.2-0.9 0.3-1.6 1.1-1.1 2.3l-5.3-1.9c2.6 0 4-0.4 5.3-0.9-1.8-0.4-5.9-0.5-5.9-0.5l3.3-1.4 2.8-1.2s0.2 1.8 1.1 2.5c1.2-0.6 2.1-1.2 2.1-2.3l4.5 2.3c-2.8-0.2-4.9 0-5.5 0.5 1.8 0.7 4.2 1.5 7.5 0.4 2.3-0.8 3-2 1.9-2.6-1.3-0.7-3.6-0.6-3.1 0.5-3.4-0.8-2.1-2.1 1-2-3.7-0.6-5.5-1.4-4.9-3.2 4.1 0.2 5.7 1.2 5.7 3 0.6-0.9 3.6-1.5 5 0.2-2.3-0.4-3.4 0.4-2.3 1.1 0.8 0.5 2.6 0.8 4.1 0.3 1.3-0.4 2.2-1.4 0.7-3.2-0.7 0.3-1 0.8-1.3 1.4l-3.2-2.6c1.7 0.4 3 0.6 3.9 0.6-0.6-0.5-1.3-0.8-3.1-1.3l3.9-0.8c0.6 1.5 2 3.4 5.9 6.1-4.9 1.6-10 3.4-15.1 5.6z"/>
<polygon class="cls-12" points="643.5 238.1 707 265.1 707 294.8 643.5 321.8 580 294.8 580 265.1"/>
<path class="cls-7" d="m643.5 238.1 63.5 27v29.7l-63.5 27-63.5-27v-29.7l63.5-27zm0 0.2-63.1 26.8 63.1 26.8 63.1-26.8-63.1-26.8zm0.2 83.2 63.2-26.8v-29.3l-63.2 26.8v29.3zm-63.5-26.8 63.2 26.8v-29.3l-63.2-26.8v29.3z"/>
<path class="cls-7" d="M636,259.6c-.4,0-.8.1-1.2.1-1.2,0-2.3-.3-2.9-.8-.2-.2-.3-.4-.3-.6v-.4.4-1.2.4-.4.2-1.6.2-3.5h0c0-.1,0-.2,0-.2,0,0,0,0,0-.1s0,0,0-.1c.3-.4.9-.7,1.8-.9,1.6-.3,3.4,0,4,.7.2.2.3.5.3.7h0v5.9c0,.6-.8,1.1-2,1.3h0ZM637.6,251.8c-.6-.6-2.4-.9-3.9-.7-1.5.3-2.2,1-1.6,1.6.6.6,2.4,1,3.9.7,1.5-.3,2.3-1,1.6-1.7h0Z"/>
<path class="cls-7" d="m649.7 253.2 4.5-1.9 1.9 1.5h0.5l2.3-1.9 4.4 1.9v6l-0.9 0.2v1.7l-1.7 0.7v0.2h0.3c0.9 0.2 1.5 0.5 1.8 0.9v0.1 0.2 5.9c0 0.2 0 0.4-0.3 0.6-0.3 0.3-0.9 0.6-1.6 0.7v1.4s0 0 0 0v1.1c0 0.3 0 0.5-0.3 0.7-0.7 0.7-2.5 1-4 0.7-0.8-0.1-1.4-0.4-1.7-0.7v2.8h-0.3c-4.3 0.3-8.9 1.1-14.3 2.5h-0.1c-3.8-2.2-8.2-4.3-13.2-6.4s-10-4-15.1-5.6h-0.3v-6l0.2-0.2c3.3-2.3 5.2-4.2 5.8-6 0-0.1 4.5 0.8 4.5 0.8v-2-0.3-0.1s0 0 0-0.1c0.3-0.4 0.9-0.7 1.8-0.9 1.6-0.3 3.4 0 4 0.7 0.2 0.2 0.3 0.5 0.3 0.7v2.8c0.7-0.1 1.6-0.3 2.6-0.3h0.1c0 0.4 0.1 0.6 0 0.8v4l1.3-0.6v0.3c0 1 0.7 1.5 1.9 2.1 0.8-0.7 1-2.3 1-2.4v-0.2s4.3 1.8 4.3 1.8v-2-0.3c0-0.3 0.3-0.5 0.7-0.7s0 0 0 0v-6.4-0.2-0.2c0.3-0.4 0.9-0.7 1.8-0.9 1.6-0.3 3.4 0 4 0.7 0.2 0.2 0.3 0.5 0.3 0.6v2.1h0.2c0.3-0.1 0.5-0.2 0.9-0.3l1.6-0.3m-26.5 1.7zm5.9-2.6c-0.6-0.6-2.4-0.9-3.9-0.7s-2.2 1-1.6 1.6c0.6 0.7 2.4 1 3.9 0.7s2.3-1 1.6-1.7zm12.1 7.2c0.6 0.7 2.4 1 3.9 0.7s2.3-1 1.6-1.7c-0.6-0.6-2.4-1-3.9-0.7s-2.2 1-1.6 1.6zm6.3-7c-0.6-0.6-2.4-0.9-3.9-0.7s-2.2 1-1.6 1.6 2.4 1 3.9 0.7 2.3-1 1.6-1.7zm15.1 1.9-3.5-0.8v-0.2s4.5-1 4.5-1l-3.9-1.6-2.3 1.9h-0.6l-1.8-1.5-4 1.7 4.1 0.5v0.2l-6.2 1.3c-0.3 0-0.6 0.2-0.8 0.3-1.3 0.5-1.4 1.4-0.3 2 0 0 0.2 0.1 0.3 0.1s0.2 0 0.3 0.1c1.4 0.4 3.3 0.4 4.6-0.1 0.3-0.1 0.5-0.2 0.6-0.4s0 0 0 0l3.1-2.6h0.5l1.3 1.7 4-1.7zm-5.5 5.5c1.5 0.3 3.3 0 3.9-0.7 0.6-0.6 0-1.4-1.6-1.7-1.5-0.3-3.3 0-3.9 0.7s0 1.4 1.6 1.7zm6.2 3.2c0.6-0.6 0-1.4-1.6-1.7-1.5-0.3-3.3 0-3.9 0.7s0 1.4 1.6 1.7c1.5 0.3 3.3 0 3.9-0.7zm-5.7 4.6c1.5 0.3 3.3 0 3.9-0.7 0.6-0.6 0-1.4-1.6-1.7-1.5-0.3-3.3 0-3.9 0.7s0 1.4 1.6 1.7zm-2 1.9v-0.2 0 0 0 0 0 0 0 0 0-0.7 0.2-0.3 0.2-0.3 0.2-0.3 0.2-0.3 0.2-0.3 0.2-0.3 0.2-0.3 0.2-0.3 0.2-0.3 0.2-0.3 0.2-0.3 0.2-1.4c0-0.2 0-0.4 0.3-0.6 0 0 0.2-0.2 0.3-0.2-0.7-0.3-1-0.6-1-1.1v-1.4 0.2-0.2 0.2-0.2 0.2-0.2 0.2-0.2 0.2-0.2 0.2-0.2 0.2-0.2 0.2-0.2 0.2-0.2 0.2-0.2 0.2-0.2 0.2-1l-1.3 1.1s0 0 0 0c-0.2 0.1-0.4 0.2-0.6 0.4-1.1 0.5-2.6 0.5-3.9 0.3l-2.1 0.6c1.2-0.4 2.8-0.5 5.2-0.4h0.2v4.6c0.3-0.2 0.7-0.4 1-0.6l1.9 1.6zm-27.6-3.8c5.1 2.2 9.5 4.3 13.2 6.4 6.3-1.6 10.7-2.3 14.3-2.5l-1.8-1.7c-1.2 0.7-1.8 1-3.1 1.3 0-0.4 0.4-1 1.3-1.7l-6 1.4c1.4 0.1 2.5 0.2 3.2 0.5-4.2 0.6-6.6 0.3-7.5-0.3-1.1-0.7-0.5-1.4 0.7-1.8 1.7-0.5 3.5 0 2.5 1 3.9-0.6 2.5-1.8 0.4-2.1 4.3 0 6.5-0.7 7-2.4-4.3-0.2-6.2 0.5-7.7 2.1 0.2-1.3-2.9-1.9-4.7-0.4 2.6-0.2 3 0.8 1.2 1.3-1.5 0.5-4.3 0.2-6.2-0.8-2.8-1.4-0.9-2.4 0.8-3.2 0.9 0.3 1.6 1.1 1.1 2.3l5.3-1.9c-2.6 0-4-0.4-5.3-0.9 1.8-0.4 5.9-0.5 5.9-0.5l-3.3-1.4-2.8-1.2s-0.2 1.8-1.1 2.5c-1.2-0.6-2.1-1.2-2.1-2.3l-4.5 2.3c2.8-0.2 4.9 0 5.5 0.5-1.8 0.7-4.2 1.5-7.5 0.4-2.3-0.8-3-2-1.9-2.6 1.3-0.7 3.6-0.6 3.1 0.5 3.4-0.8 2.1-2.1-1-2 3.7-0.6 5.5-1.4 4.9-3.2-4.1 0.2-5.7 1.2-5.7 3-0.6-0.9-3.6-1.5-5 0.2 2.3-0.4 3.4 0.4 2.3 1.1-0.8 0.5-2.6 0.8-4.1 0.3-1.3-0.4-2.2-1.4-0.7-3.2 0.7 0.3 1 0.8 1.3 1.4l3.2-2.6c-1.7 0.4-3 0.6-3.9 0.6 0.6-0.5 1.3-0.8 3.1-1.3l-3.9-0.8c-0.6 1.5-2 3.4-5.9 6.1 4.9 1.6 10 3.5 15.1 5.6z"/>
<polygon class="cls-14" points="643.5 208.4 707 235.4 707 265.1 643.5 292.1 580 265.1 580 235.4"/>
<path class="cls-7" d="m643.5 208.4 63.5 27v29.7l-63.5 27-63.5-27v-29.7l63.5-27zm0 0.2-63.1 26.8 63.1 26.8 63.1-26.8-63.1-26.8zm0.2 83.2 63.2-26.8v-29.3l-63.2 26.8v29.3zm-63.5-26.8 63.2 26.8v-29.3l-63.2-26.8v29.3z"/>
<path class="cls-7" d="M636,229.9c-.4,0-.8.1-1.2.1-1.2,0-2.3-.3-2.9-.8-.2-.2-.3-.4-.3-.6v-.4.4-1.2.4-.4.2-1.6.2-3.5h0c0-.1,0-.2,0-.2,0,0,0,0,0-.1s0,0,0-.1c.3-.4.9-.7,1.8-.9,1.6-.3,3.4,0,4,.7.2.2.3.5.3.7h0v5.9c0,.6-.8,1.1-2,1.3h0ZM637.6,222.1c-.6-.6-2.4-.9-3.9-.7-1.5.3-2.2,1-1.6,1.6.6.6,2.4,1,3.9.7,1.5-.3,2.3-1,1.6-1.7h0Z"/>
<path class="cls-7" d="m649.7 223.5 4.5-1.9 1.9 1.5h0.5l2.3-1.9 4.4 1.9v5.9l-0.9 0.2v1.7l-1.7 0.7v0.2h0.3c0.9 0.2 1.5 0.5 1.8 0.9v0.1 0.2 5.9c0 0.2 0 0.4-0.3 0.6-0.3 0.3-0.9 0.6-1.6 0.7v1.4s0 0 0 0v1.1c0 0.3 0 0.5-0.3 0.7-0.7 0.7-2.5 1-4 0.7-0.8-0.1-1.4-0.4-1.7-0.7v2.8h-0.3c-4.3 0.3-8.9 1.1-14.3 2.5h-0.1c-3.8-2.2-8.2-4.3-13.2-6.4s-10-4-15.1-5.6h-0.3v-6l0.2-0.2c3.3-2.3 5.2-4.2 5.8-6 0-0.1 4.5 0.8 4.5 0.8v-2-0.3-0.1s0 0 0-0.1c0.3-0.4 0.9-0.7 1.8-0.9 1.6-0.3 3.4 0 4 0.7 0.2 0.2 0.3 0.5 0.3 0.7v2.8c0.7-0.1 1.6-0.3 2.6-0.3h0.1c0 0.4 0.1 0.6 0 0.8v4l1.3-0.6v0.3c0 1 0.7 1.5 1.9 2.1 0.8-0.7 1-2.3 1-2.4v-0.2s4.3 1.8 4.3 1.8v-2-0.3c0-0.3 0.3-0.5 0.7-0.7s0 0 0 0v-7.2-0.2-0.2c0.3-0.4 0.9-0.7 1.8-0.9 1.6-0.3 3.4 0 4 0.7 0.2 0.2 0.3 0.5 0.3 0.6v2.1h0.2c0.3-0.1 0.5-0.2 0.9-0.3l1.6-0.3m-26.5 2.6zm5.9-2.6c-0.6-0.6-2.4-0.9-3.9-0.7s-2.2 1-1.6 1.6c0.6 0.7 2.4 1 3.9 0.7s2.3-1 1.6-1.7zm12.1 7.2c0.6 0.7 2.4 1 3.9 0.7s2.3-1 1.6-1.7c-0.6-0.6-2.4-0.9-3.9-0.7s-2.2 1-1.6 1.6zm6.3-7c-0.6-0.6-2.4-0.9-3.9-0.7s-2.2 1-1.6 1.6 2.4 1 3.9 0.7 2.3-1 1.6-1.7zm15.1 1.9-3.5-0.8v-0.2s4.5-1 4.5-1l-3.9-1.6-2.3 1.9h-0.6l-1.8-1.5-4 1.7 4.1 0.5v0.2l-6.2 1.3c-0.3 0-0.6 0.2-0.8 0.3-1.3 0.5-1.4 1.4-0.3 2 0 0 0.2 0.1 0.3 0.1s0.2 0 0.3 0.1c1.4 0.4 3.3 0.4 4.6-0.1 0.3-0.1 0.5-0.2 0.6-0.4s0 0 0 0l3.1-2.6h0.5l1.3 1.7 4-1.7zm-5.5 5.5c1.5 0.3 3.3 0 3.9-0.7 0.6-0.6 0-1.4-1.6-1.7-1.5-0.3-3.3 0-3.9 0.7s0 1.4 1.6 1.7zm6.2 3.2c0.6-0.6 0-1.4-1.6-1.7-1.5-0.3-3.3 0-3.9 0.7s0 1.4 1.6 1.7c1.5 0.3 3.3 0 3.9-0.7zm-5.7 4.6c1.5 0.3 3.3 0 3.9-0.7 0.6-0.6 0-1.4-1.6-1.7-1.5-0.3-3.3 0-3.9 0.7s0 1.4 1.6 1.7zm-2 1.9v-0.2 0 0 0 0 0 0 0 0 0-0.7 0.2-0.3 0.2-0.3 0.2-0.3 0.2-0.3 0.2-0.3 0.2-0.3 0.2-0.3 0.2-0.3 0.2-0.3 0.2-0.3 0.2-0.3 0.2-1.4c0-0.2 0-0.4 0.3-0.6 0 0 0.2-0.2 0.3-0.2-0.7-0.3-1-0.6-1-1.1v-1.4 0.2-0.2 0.2-0.2 0.2-0.2 0.2-0.2 0.2-0.2 0.2-0.2 0.2-0.2 0.2-0.2 0.2-0.2 0.2-0.2 0.2-0.2 0.2-1l-1.3 1.1s0 0 0 0c-0.2 0.1-0.4 0.2-0.6 0.4-1.1 0.4-2.6 0.6-3.9 0.3l-2.1 0.6c1.2-0.3 2.8-0.5 5.2-0.4h0.2v4.6c0.3-0.2 0.7-0.4 1-0.6l1.9 1.6zm-27.6-3.8c5.1 2.2 9.5 4.3 13.2 6.4 6.3-1.6 10.7-2.3 14.3-2.5l-1.8-1.7c-1.2 0.7-1.8 1.1-3.1 1.3 0-0.4 0.4-0.9 1.3-1.7l-6 1.4c1.4 0.1 2.5 0.2 3.2 0.5-4.2 0.6-6.6 0.3-7.5-0.3-1.1-0.7-0.5-1.4 0.7-1.8 1.7-0.5 3.5 0 2.5 1 3.9-0.6 2.5-1.8 0.4-2.1 4.3 0 6.5-0.7 7-2.4-4.3-0.2-6.2 0.5-7.7 2.1 0.2-1.3-2.9-1.9-4.7-0.4 2.6-0.2 3 0.8 1.2 1.3-1.5 0.5-4.3 0.2-6.2-0.8-2.8-1.4-0.9-2.4 0.8-3.2 0.9 0.3 1.6 1.1 1.1 2.3l5.3-1.9c-2.6 0-4-0.4-5.3-0.9 1.8-0.4 5.9-0.5 5.9-0.5l-3.3-1.4-2.8-1.2s-0.2 1.8-1.1 2.5c-1.2-0.6-2.1-1.2-2.1-2.3l-4.5 2.3c2.8-0.2 4.9 0 5.5 0.5-1.8 0.7-4.2 1.5-7.5 0.4-2.3-0.8-3-2-1.9-2.6 1.3-0.7 3.6-0.6 3.1 0.5 3.4-0.8 2.1-2.1-1-2 3.7-0.6 5.5-1.4 4.9-3.2-4.1 0.2-5.7 1.2-5.7 3-0.6-0.9-3.6-1.5-5 0.2 2.3-0.4 3.4 0.4 2.3 1.1-0.8 0.5-2.6 0.8-4.1 0.3-1.3-0.4-2.2-1.4-0.7-3.2 0.7 0.3 1 0.8 1.3 1.4l3.2-2.6c-1.7 0.4-3 0.6-3.9 0.6 0.6-0.5 1.3-0.8 3.1-1.3l-3.9-0.8c-0.6 1.5-2 3.4-5.9 6.1 4.9 1.6 10 3.4 15.1 5.6z"/>
<polygon class="cls-3" points="643.5 178.6 707 205.6 707 235.3 643.5 262.3 580 235.3 580 205.6"/>
<path class="cls-7" d="m643.5 178.6 63.5 27v29.7l-63.5 27-63.5-27v-29.7l63.5-27zm0 0.2-63.1 26.8 63.1 26.8 63.1-26.8-63.1-26.8zm0.2 83.2 63.2-26.8v-29.3l-63.2 26.8v29.3zm-63.5-26.8 63.2 26.8v-29.3l-63.2-26.8v29.3z"/>
<path class="cls-7" d="M636,200.1c-.4,0-.8.1-1.2.1-1.2,0-2.3-.3-2.9-.8-.2-.2-.3-.4-.3-.6v-.4.4-1.2.4-.4.2-1.6.2-3.5h0c0-.1,0-.2,0-.2,0,0,0,0,0-.1s0,0,0-.1c.3-.4.9-.7,1.8-.9,1.6-.3,3.4,0,4,.7.2.2.3.5.3.7h0v5.9c0,.6-.8,1.1-2,1.3h0ZM637.6,192.3c-.6-.6-2.4-.9-3.9-.7-1.5.3-2.2,1-1.6,1.6.6.6,2.4,1,3.9.7,1.5-.3,2.3-1,1.6-1.7h0Z"/>
<path class="cls-7" d="m649.7 193.7 4.5-1.9 1.9 1.5h0.5l2.3-1.9 4.4 1.9v5.9l-0.9 0.2v1.7l-1.7 0.7v0.2h0.3c0.9 0.2 1.5 0.5 1.8 0.9v0.1 0.2 5.9c0 0.2 0 0.4-0.3 0.6-0.3 0.3-0.9 0.6-1.6 0.7v1.4s0 0 0 0v1.1c0 0.3 0 0.5-0.3 0.7-0.7 0.7-2.5 1-4 0.7-0.8-0.1-1.4-0.4-1.7-0.7v2.8h-0.3c-4.3 0.3-8.9 1.1-14.3 2.5h-0.1c-3.8-2.2-8.2-4.3-13.2-6.4s-10-4-15.1-5.6h-0.3v-6l0.2-0.2c3.3-2.3 5.2-4.2 5.8-6 0-0.1 4.5 0.8 4.5 0.8v-2-0.3-0.1s0 0 0-0.1c0.3-0.4 0.9-0.7 1.8-0.9 1.6-0.3 3.4 0 4 0.7 0.2 0.2 0.3 0.5 0.3 0.7v2.8c0.7-0.1 1.6-0.3 2.6-0.3h0.1c0 0.4 0.1 0.6 0 0.8v4l1.3-0.6v0.3c0 1 0.7 1.5 1.9 2.1 0.8-0.7 1-2.3 1-2.4v-0.2s4.3 1.8 4.3 1.8v-2-0.3c0-0.3 0.3-0.5 0.7-0.7s0 0 0 0v-7.2-0.2-0.2c0.3-0.4 0.9-0.7 1.8-0.9 1.6-0.3 3.4 0 4 0.7 0.2 0.2 0.3 0.5 0.3 0.6v2.1h0.2c0.3-0.1 0.5-0.2 0.9-0.3l1.6-0.3m-26.5 2.6zm5.9-2.6c-0.6-0.6-2.4-0.9-3.9-0.7s-2.2 1-1.6 1.6c0.6 0.7 2.4 1 3.9 0.7s2.3-1 1.6-1.7zm12.1 7.2c0.6 0.7 2.4 1 3.9 0.7s2.3-1 1.6-1.7c-0.6-0.6-2.4-0.9-3.9-0.7s-2.2 1-1.6 1.6zm6.3-7c-0.6-0.6-2.4-0.9-3.9-0.7s-2.2 1-1.6 1.6 2.4 1 3.9 0.7 2.3-1 1.6-1.7zm15.1 1.8-3.5-0.8v-0.2s4.5-1 4.5-1l-3.9-1.6-2.3 1.9h-0.6l-1.8-1.5-4 1.7 4.1 0.5v0.2l-6.2 1.3c-0.3 0-0.6 0.2-0.8 0.3-1.3 0.5-1.4 1.4-0.3 2 0 0 0.2 0.1 0.3 0.1s0.2 0 0.3 0.1c1.4 0.4 3.3 0.4 4.6-0.1 0.3-0.1 0.5-0.2 0.6-0.4s0 0 0 0l3.1-2.6h0.5l1.3 1.7 4-1.7zm-5.5 5.6c1.5 0.3 3.3 0 3.9-0.7 0.6-0.6 0-1.4-1.6-1.7-1.5-0.3-3.3 0-3.9 0.7s0 1.4 1.6 1.7zm6.2 3.2c0.6-0.6 0-1.4-1.6-1.7-1.5-0.3-3.3 0-3.9 0.7s0 1.4 1.6 1.7c1.5 0.3 3.3 0 3.9-0.7zm-5.7 4.6c1.5 0.3 3.3 0 3.9-0.7 0.6-0.6 0-1.4-1.6-1.7-1.5-0.3-3.3 0-3.9 0.7s0 1.4 1.6 1.7zm-2 1.9v-0.2 0 0 0 0 0 0 0 0 0-0.7 0.2-0.3 0.2-0.3 0.2-0.3 0.2-0.3 0.2-0.3 0.2-0.3 0.2-0.3 0.2-0.3 0.2-0.3 0.2-0.3 0.2-0.3 0.2-1.4c0-0.2 0-0.4 0.3-0.6 0 0 0.2-0.2 0.3-0.2-0.7-0.3-1-0.6-1-1.1v-1.4 0.2-0.2 0.2-0.2 0.2-0.2 0.2-0.2 0.2-0.2 0.2-0.2 0.2-0.2 0.2-0.2 0.2-0.2 0.2-0.2 0.2-0.2 0.2-1l-1.3 1.1s0 0 0 0c-0.2 0.1-0.4 0.2-0.6 0.4-1.1 0.4-2.6 0.6-3.9 0.3l-2.1 0.6c1.2-0.3 2.8-0.5 5.2-0.4h0.2v4.6c0.3-0.2 0.7-0.4 1-0.6l1.9 1.6zm-27.6-3.8c5.1 2.2 9.5 4.3 13.2 6.4 6.3-1.6 10.7-2.3 14.3-2.5l-1.8-1.7c-1.2 0.7-1.8 1.1-3.1 1.3 0-0.4 0.4-0.9 1.3-1.7l-6 1.4c1.4 0.1 2.5 0.2 3.2 0.5-4.2 0.6-6.6 0.3-7.5-0.3-1.1-0.7-0.5-1.4 0.7-1.8 1.7-0.5 3.5 0 2.5 1 3.9-0.6 2.5-1.8 0.4-2.1 4.3 0 6.5-0.7 7-2.4-4.3-0.2-6.2 0.5-7.7 2.1 0.2-1.3-2.9-1.9-4.7-0.4 2.6-0.2 3 0.8 1.2 1.3-1.5 0.5-4.3 0.2-6.2-0.8-2.8-1.4-0.9-2.4 0.8-3.2 0.9 0.3 1.6 1.1 1.1 2.3l5.3-1.9c-2.6 0-4-0.4-5.3-0.9 1.8-0.4 5.9-0.5 5.9-0.5l-3.3-1.4-2.8-1.2s-0.2 1.8-1.1 2.5c-1.2-0.6-2.1-1.2-2.1-2.3l-4.5 2.3c2.8-0.2 4.9 0 5.5 0.5-1.8 0.7-4.2 1.5-7.5 0.4-2.3-0.8-3-2-1.9-2.6 1.3-0.7 3.6-0.6 3.1 0.5 3.4-0.8 2.1-2.1-1-2 3.7-0.6 5.5-1.4 4.9-3.2-4.1 0.2-5.7 1.2-5.7 3-0.6-0.9-3.6-1.5-5 0.2 2.3-0.4 3.4 0.4 2.3 1.1-0.8 0.5-2.6 0.8-4.1 0.3-1.3-0.4-2.2-1.4-0.7-3.2 0.7 0.3 1 0.8 1.3 1.4l3.2-2.6c-1.7 0.4-3 0.6-3.9 0.6 0.6-0.5 1.3-0.8 3.1-1.3l-3.9-0.8c-0.6 1.5-2 3.4-5.9 6.1 4.9 1.6 10 3.4 15.1 5.6z"/>
<polygon class="cls-1" points="643.5 149.1 707 176.1 707 205.8 643.5 232.8 580 205.8 580 176.1"/>
<path class="cls-7" d="m643.5 149.1 63.5 27v29.7l-63.5 27-63.5-27v-29.7l63.5-27zm0 0.2-63.1 26.8 63.1 26.8 63.1-26.8-63.1-26.8zm0.2 83.2 63.2-26.8v-29.3l-63.2 26.8v29.3zm-63.5-26.8 63.2 26.8v-29.3l-63.2-26.8v29.3z"/>
<path class="cls-7" d="M636,170.6c-.4,0-.8.1-1.2.1-1.2,0-2.3-.3-2.9-.8-.2-.2-.3-.4-.3-.6v-.4.4-1.2.4-.4.2-1.6.2-3.5h0c0-.1,0-.2,0-.2,0,0,0,0,0-.1s0,0,0-.1c.3-.4.9-.7,1.8-.9,1.6-.3,3.4,0,4,.7.2.2.3.5.3.7h0v5.9c0,.6-.8,1.1-2,1.3h0ZM637.6,162.8c-.6-.6-2.4-.9-3.9-.7-1.5.3-2.2,1-1.6,1.6.6.6,2.4,1,3.9.7,1.5-.3,2.3-1,1.6-1.7h0Z"/>
<path class="cls-7" d="m649.7 164.2 4.5-1.9 1.9 1.5h0.5l2.3-1.9 4.4 1.9v5.9l-0.9 0.2v1.7l-1.7 0.7v0.2h0.3c0.9 0.2 1.5 0.5 1.8 0.9v0.1 0.2 5.9c0 0.2 0 0.4-0.3 0.6-0.3 0.3-0.9 0.6-1.6 0.7v1.4s0 0 0 0v1.1c0 0.3 0 0.5-0.3 0.7-0.7 0.7-2.5 1-4 0.7-0.8-0.1-1.4-0.4-1.7-0.7v2.8h-0.3c-4.3 0.3-8.9 1.1-14.3 2.5h-0.1c-3.8-2.2-8.2-4.3-13.2-6.4s-10-4-15.1-5.6h-0.3v-6l0.2-0.2c3.3-2.3 5.2-4.2 5.8-6 0-0.1 4.5 0.8 4.5 0.8v-2-0.3-0.1s0 0 0-0.1c0.3-0.4 0.9-0.7 1.8-0.9 1.6-0.3 3.4 0 4 0.7 0.2 0.2 0.3 0.5 0.3 0.7v2.8c0.7-0.1 1.6-0.3 2.6-0.3h0.1c0 0.4 0.1 0.6 0 0.8v4l1.3-0.6v0.3c0 1 0.7 1.5 1.9 2.1 0.8-0.7 1-2.3 1-2.4v-0.2s4.3 1.8 4.3 1.8v-2-0.3c0-0.3 0.3-0.5 0.7-0.7s0 0 0 0v-7.2-0.2-0.2c0.3-0.4 0.9-0.7 1.8-0.9 1.6-0.3 3.4 0 4 0.7 0.2 0.2 0.3 0.5 0.3 0.6v2.1h0.2c0.3-0.1 0.5-0.2 0.9-0.3l1.6-0.3m-26.5 2.6zm5.9-2.6c-0.6-0.6-2.4-0.9-3.9-0.7s-2.2 1-1.6 1.6c0.6 0.7 2.4 1 3.9 0.7s2.3-1 1.6-1.7zm12.1 7.2c0.6 0.7 2.4 1 3.9 0.7s2.3-1 1.6-1.7c-0.6-0.6-2.4-0.9-3.9-0.7s-2.2 1-1.6 1.6zm6.3-7c-0.6-0.6-2.4-0.9-3.9-0.7s-2.2 1-1.6 1.6 2.4 1 3.9 0.7 2.3-1 1.6-1.7zm15.1 1.8-3.5-0.8v-0.2s4.5-1 4.5-1l-3.9-1.6-2.3 1.9h-0.6l-1.8-1.5-4 1.7 4.1 0.5v0.2l-6.2 1.3c-0.3 0-0.6 0.2-0.8 0.3-1.3 0.5-1.4 1.4-0.3 2 0 0 0.2 0.1 0.3 0.1s0.2 0 0.3 0.1c1.4 0.4 3.3 0.4 4.6-0.1 0.3-0.1 0.5-0.2 0.6-0.4s0 0 0 0l3.1-2.6h0.5l1.3 1.7 4-1.7zm-5.5 5.6c1.5 0.3 3.3 0 3.9-0.7 0.6-0.6 0-1.4-1.6-1.7-1.5-0.3-3.3 0-3.9 0.7s0 1.4 1.6 1.7zm6.2 3.2c0.6-0.6 0-1.4-1.6-1.7-1.5-0.3-3.3 0-3.9 0.7s0 1.4 1.6 1.7c1.5 0.3 3.3 0 3.9-0.7zm-5.7 4.6c1.5 0.3 3.3 0 3.9-0.7 0.6-0.6 0-1.4-1.6-1.7-1.5-0.3-3.3 0-3.9 0.7s0 1.4 1.6 1.7zm-2 1.9v-0.2 0 0 0 0 0 0 0 0 0-0.7 0.2-0.3 0.2-0.3 0.2-0.3 0.2-0.3 0.2-0.3 0.2-0.3 0.2-0.3 0.2-0.3 0.2-0.3 0.2-0.3 0.2-0.3 0.2-1.4c0-0.2 0-0.4 0.3-0.6 0 0 0.2-0.2 0.3-0.2-0.7-0.3-1-0.6-1-1.1v-1.4 0.2-0.2 0.2-0.2 0.2-0.2 0.2-0.2 0.2-0.2 0.2-0.2 0.2-0.2 0.2-0.2 0.2-0.2 0.2-0.2 0.2-0.2 0.2-1l-1.3 1.1s0 0 0 0c-0.2 0.1-0.4 0.2-0.6 0.4-1.1 0.4-2.6 0.6-3.9 0.3l-2.1 0.6c1.2-0.3 2.8-0.5 5.2-0.4h0.2v4.6c0.3-0.2 0.7-0.4 1-0.6l1.9 1.6zm-27.6-3.8c5.1 2.2 9.5 4.3 13.2 6.4 6.3-1.6 10.7-2.3 14.3-2.5l-1.8-1.7c-1.2 0.7-1.8 1.1-3.1 1.3 0-0.4 0.4-0.9 1.3-1.7l-6 1.4c1.4 0.1 2.5 0.2 3.2 0.5-4.2 0.6-6.6 0.3-7.5-0.3-1.1-0.7-0.5-1.4 0.7-1.8 1.7-0.5 3.5 0 2.5 1 3.9-0.6 2.5-1.8 0.4-2.1 4.3 0 6.5-0.7 7-2.4-4.3-0.2-6.2 0.5-7.7 2.1 0.2-1.3-2.9-1.9-4.7-0.4 2.6-0.2 3 0.8 1.2 1.3-1.5 0.5-4.3 0.2-6.2-0.8-2.8-1.4-0.9-2.4 0.8-3.2 0.9 0.3 1.6 1.1 1.1 2.3l5.3-1.9c-2.6 0-4-0.4-5.3-0.9 1.8-0.4 5.9-0.5 5.9-0.5l-3.3-1.4-2.8-1.2s-0.2 1.8-1.1 2.5c-1.2-0.6-2.1-1.2-2.1-2.3l-4.5 2.3c2.8-0.2 4.9 0 5.5 0.5-1.8 0.7-4.2 1.5-7.5 0.4-2.3-0.8-3-2-1.9-2.6 1.3-0.7 3.6-0.6 3.1 0.5 3.4-0.8 2.1-2.1-1-2 3.7-0.6 5.5-1.4 4.9-3.2-4.1 0.2-5.7 1.2-5.7 3-0.6-0.9-3.6-1.5-5 0.2 2.3-0.4 3.4 0.4 2.3 1.1-0.8 0.5-2.6 0.8-4.1 0.3-1.3-0.4-2.2-1.4-0.7-3.2 0.7 0.3 1 0.8 1.3 1.4l3.2-2.6c-1.7 0.4-3 0.6-3.9 0.6 0.6-0.5 1.3-0.8 3.1-1.3l-3.9-0.8c-0.6 1.5-2 3.4-5.9 6.1 4.9 1.6 10 3.4 15.1 5.6z"/>
<polygon class="cls-10" points="643.5 119.4 707 146.4 707 176.1 643.5 203.1 580 176.1 580 146.4"/>
<path class="cls-7" d="m643.5 119.4 63.5 27v29.7l-63.5 27-63.5-27v-29.7s63.5-27 63.5-27zm0 0.2-63.1 26.8 63.1 26.8 63.1-26.8-63.1-26.8zm0.2 83.2 63.2-26.8v-29.3l-63.2 26.8v29.3zm-63.5-26.8 63.2 26.8v-29.3l-63.2-26.8v29.3z"/>
<path class="cls-7" d="M636,140.9c-.4,0-.8.1-1.2.1-1.2,0-2.3-.3-2.9-.8-.2-.2-.3-.4-.3-.6v-.4.4-1.2.4-.4.2-1.6.2-3.5h0c0-.1,0-.2,0-.2,0,0,0,0,0-.1s0,0,0-.1c.3-.4.9-.7,1.8-.9,1.6-.3,3.4,0,4,.7.2.2.3.5.3.7h0v5.9c0,.6-.8,1.1-2,1.3h0ZM637.6,133.1c-.6-.6-2.4-.9-3.9-.7-1.5.3-2.2,1-1.6,1.6.6.6,2.4,1,3.9.7,1.5-.3,2.3-1,1.6-1.7h0Z"/>
<path class="cls-7" d="m649.7 134.5 4.5-1.9 1.9 1.5h0.5l2.3-1.9 4.4 1.9v5.9l-0.9 0.2v1.7l-1.7 0.7v0.2h0.3c0.9 0.2 1.5 0.5 1.8 0.9v0.1 0.2 5.9c0 0.2 0 0.4-0.3 0.6-0.3 0.3-0.9 0.6-1.6 0.7v1.4s0 0 0 0v1.1c0 0.3 0 0.5-0.3 0.7-0.7 0.7-2.5 1-4 0.7-0.8-0.1-1.4-0.4-1.7-0.7v2.8h-0.3c-4.3 0.3-8.9 1.1-14.3 2.5h-0.1c-3.8-2.2-8.2-4.3-13.2-6.4s-10-4-15.1-5.6h-0.3v-6l0.2-0.2c3.3-2.3 5.2-4.2 5.8-6 0-0.1 4.5 0.8 4.5 0.8v-2-0.3-0.1s0 0 0-0.1c0.3-0.4 0.9-0.7 1.8-0.9 1.6-0.3 3.4 0 4 0.7 0.2 0.2 0.3 0.5 0.3 0.7v2.8c0.7-0.1 1.6-0.3 2.6-0.3h0.1c0 0.4 0.1 0.6 0 0.8v4l1.3-0.6v0.3c0 1 0.7 1.5 1.9 2.1 0.8-0.7 1-2.3 1-2.4v-0.2s4.3 1.8 4.3 1.8v-2-0.3c0-0.3 0.3-0.5 0.7-0.7s0 0 0 0v-7.2-0.2-0.2c0.3-0.4 0.9-0.7 1.8-0.9 1.6-0.3 3.4 0 4 0.7 0.2 0.2 0.3 0.5 0.3 0.6v2.1h0.2c0.3-0.1 0.5-0.2 0.9-0.3l1.6-0.3m-26.5 2.6zm5.9-2.6c-0.6-0.6-2.4-0.9-3.9-0.7s-2.2 1-1.6 1.6c0.6 0.7 2.4 1 3.9 0.7s2.3-1 1.6-1.7zm12.1 7.2c0.6 0.7 2.4 1 3.9 0.7s2.3-1 1.6-1.7c-0.6-0.6-2.4-0.9-3.9-0.7s-2.2 1-1.6 1.6zm6.3-7c-0.6-0.6-2.4-0.9-3.9-0.7s-2.2 1-1.6 1.6 2.4 1 3.9 0.7 2.3-1 1.6-1.7zm15.1 1.8-3.5-0.8v-0.2s4.5-1 4.5-1l-3.9-1.6-2.3 1.9h-0.6l-1.8-1.5-4 1.7 4.1 0.5v0.2l-6.2 1.3c-0.3 0-0.6 0.2-0.8 0.3-1.3 0.5-1.4 1.4-0.3 2 0 0 0.2 0.1 0.3 0.1s0.2 0 0.3 0.1c1.4 0.4 3.3 0.4 4.6-0.1 0.3-0.1 0.5-0.2 0.6-0.4s0 0 0 0l3.1-2.6h0.5l1.3 1.7 4-1.7zm-5.5 5.6c1.5 0.3 3.3 0 3.9-0.7 0.6-0.6 0-1.4-1.6-1.7-1.5-0.3-3.3 0-3.9 0.7s0 1.4 1.6 1.7zm6.2 3.2c0.6-0.6 0-1.4-1.6-1.7-1.5-0.3-3.3 0-3.9 0.7s0 1.4 1.6 1.7c1.5 0.3 3.3 0 3.9-0.7zm-5.7 4.6c1.5 0.3 3.3 0 3.9-0.7 0.6-0.6 0-1.4-1.6-1.7-1.5-0.3-3.3 0-3.9 0.7s0 1.4 1.6 1.7zm-2 1.9v-0.2 0 0 0 0 0 0 0 0 0-0.7 0.2-0.3 0.2-0.3 0.2-0.3 0.2-0.3 0.2-0.3 0.2-0.3 0.2-0.3 0.2-0.3 0.2-0.3 0.2-0.3 0.2-0.3 0.2-1.4c0-0.2 0-0.4 0.3-0.6 0 0 0.2-0.2 0.3-0.2-0.7-0.3-1-0.6-1-1.1v-1.4 0.2-0.2 0.2-0.2 0.2-0.2 0.2-0.2 0.2-0.2 0.2-0.2 0.2-0.2 0.2-0.2 0.2-0.2 0.2-0.2 0.2-0.2 0.2-1l-1.3 1.1s0 0 0 0c-0.2 0.1-0.4 0.2-0.6 0.4-1.1 0.4-2.6 0.6-3.9 0.3l-2.1 0.6c1.2-0.3 2.8-0.5 5.2-0.4h0.2v4.6c0.3-0.2 0.7-0.4 1-0.6l1.9 1.6zm-27.6-3.8c5.1 2.2 9.5 4.3 13.2 6.4 6.3-1.6 10.7-2.3 14.3-2.5l-1.8-1.7c-1.2 0.7-1.8 1.1-3.1 1.3 0-0.4 0.4-0.9 1.3-1.7l-6 1.4c1.4 0.1 2.5 0.2 3.2 0.5-4.2 0.6-6.6 0.3-7.5-0.3-1.1-0.7-0.5-1.4 0.7-1.8 1.7-0.5 3.5 0 2.5 1 3.9-0.6 2.5-1.8 0.4-2.1 4.3 0 6.5-0.7 7-2.4-4.3-0.2-6.2 0.5-7.7 2.1 0.2-1.3-2.9-1.9-4.7-0.4 2.6-0.2 3 0.8 1.2 1.3-1.5 0.5-4.3 0.2-6.2-0.8-2.8-1.4-0.9-2.4 0.8-3.2 0.9 0.3 1.6 1.1 1.1 2.3l5.3-1.9c-2.6 0-4-0.4-5.3-0.9 1.8-0.4 5.9-0.5 5.9-0.5l-3.3-1.4-2.8-1.2s-0.2 1.8-1.1 2.5c-1.2-0.6-2.1-1.2-2.1-2.3l-4.5 2.3c2.8-0.2 4.9 0 5.5 0.5-1.8 0.7-4.2 1.5-7.5 0.4-2.3-0.8-3-2-1.9-2.6 1.3-0.7 3.6-0.6 3.1 0.5 3.4-0.8 2.1-2.1-1-2 3.7-0.6 5.5-1.4 4.9-3.2-4.1 0.2-5.7 1.2-5.7 3-0.6-0.9-3.6-1.5-5 0.2 2.3-0.4 3.4 0.4 2.3 1.1-0.8 0.5-2.6 0.8-4.1 0.3-1.3-0.4-2.2-1.4-0.7-3.2 0.7 0.3 1 0.8 1.3 1.4l3.2-2.6c-1.7 0.4-3 0.6-3.9 0.6 0.6-0.5 1.3-0.8 3.1-1.3l-3.9-0.8c-0.6 1.5-2 3.4-5.9 6.1 4.9 1.6 10 3.4 15.1 5.6z"/>
<polygon class="cls-6" points="643.5 89.7 707 116.6 707 146.3 643.5 173.3 580 146.3 580 116.6"/>
<path class="cls-7" d="m643.5 89.7 63.5 27v29.7l-63.5 27-63.5-27v-29.7s63.5-27 63.5-27zm0 0.1-63.1 26.8 63.1 26.8 63.1-26.8s-63.1-26.8-63.1-26.8zm0.2 83.2 63.2-26.8v-29.3l-63.2 26.8v29.3zm-63.5-26.8 63.2 26.8v-29.3l-63.2-26.8v29.3z"/>
<path class="cls-7" d="m636 111.1h-1.2c-1.2 0-2.3-0.3-2.9-0.8-0.2-0.2-0.3-0.4-0.3-0.6v-0.4 0.3-1.2 0.4-0.4 0.2-1.6 0.2-3.5-0.2-0.1s0 0 0-0.1c0.3-0.4 0.9-0.7 1.8-0.9 1.6-0.3 3.4 0 4 0.7 0.2 0.2 0.3 0.5 0.3 0.7v5.9c0 0.6-0.8 1.1-2 1.3zm1.6-7.8c-0.6-0.6-2.4-0.9-3.9-0.7-1.5 0.3-2.2 1-1.6 1.7s2.4 1 3.9 0.7 2.3-1 1.6-1.7z"/>
<path class="cls-7" d="m649.7 104.7 4.5-1.9 1.9 1.5h0.5l2.3-1.9 4.4 1.9v5.9l-0.9 0.2v1.7l-1.7 0.7v0.2h0.3c0.9 0.2 1.5 0.5 1.8 0.9v0.2 0.2 5.9c0 0.2 0 0.4-0.3 0.6-0.3 0.3-0.9 0.6-1.6 0.7v1.4s0 0 0 0v1.1c0 0.3 0 0.5-0.3 0.7-0.7 0.7-2.5 1-4 0.7-0.8-0.1-1.4-0.4-1.7-0.7v2.8h-0.3c-4.3 0.3-8.9 1.1-14.3 2.5h-0.1c-3.8-2.2-8.2-4.3-13.2-6.4s-10-4-15.1-5.6h-0.3v-6l0.2-0.2c3.3-2.3 5.2-4.2 5.8-6 0-0.1 4.5 0.8 4.5 0.8v-2-0.3-0.1s0 0 0-0.1c0.3-0.4 0.9-0.7 1.8-0.9 1.6-0.3 3.4 0 4 0.7 0.2 0.2 0.3 0.5 0.3 0.7v2.8c0.7-0.2 1.6-0.3 2.6-0.3h0.1c0 0.3 0.1 0.6 0 0.8v4l1.3-0.7v0.3c0 1 0.7 1.5 1.9 2.1 0.8-0.7 1-2.3 1-2.3v-0.2s4.3 1.8 4.3 1.8v-2-0.2c0-0.3 0.3-0.5 0.7-0.7s0 0 0 0v-7.2-0.2-0.2c0.3-0.4 0.9-0.7 1.8-0.8 1.6-0.3 3.4 0 4 0.7 0.2 0.2 0.3 0.5 0.3 0.7v2.1h0.2c0.3-0.1 0.5-0.2 0.9-0.3l1.6-0.3m-26.5 2.2zm5.9-2.6c-0.6-0.6-2.4-0.9-3.9-0.7s-2.2 1-1.6 1.7 2.4 1 3.9 0.7 2.3-1 1.6-1.7zm12.1 7.2c0.6 0.7 2.4 1 3.9 0.7s2.3-1 1.6-1.7c-0.6-0.6-2.4-0.9-3.9-0.7s-2.2 1-1.6 1.7zm6.3-7c-0.6-0.6-2.4-0.9-3.9-0.7s-2.2 1-1.6 1.7 2.4 1 3.9 0.7 2.3-1 1.6-1.7zm15.1 1.8-3.5-0.8v-0.2s4.5-1 4.5-1l-3.9-1.6-2.3 1.9h-0.6l-1.8-1.5-4 1.7 4.1 0.5v0.2l-6.2 1.3c-0.3 0-0.6 0.2-0.8 0.3-1.3 0.5-1.4 1.4-0.3 2 0 0 0.2 0 0.3 0.1 0.1 0 0.2 0 0.3 0.1 1.4 0.4 3.3 0.4 4.6-0.1 0.3-0.1 0.5-0.2 0.6-0.4s0 0 0 0l3.1-2.6h0.5l1.3 1.7 4-1.7zm-5.5 5.6c1.5 0.3 3.3 0 3.9-0.7s0-1.4-1.6-1.7c-1.5-0.3-3.3 0-3.9 0.7s0 1.4 1.6 1.7zm6.2 3.2c0.6-0.7 0-1.4-1.6-1.7-1.5-0.3-3.3 0-3.9 0.7s0 1.4 1.6 1.7c1.5 0.3 3.3 0 3.9-0.7zm-5.7 4.6c1.5 0.3 3.3 0 3.9-0.7s0-1.4-1.6-1.7c-1.5-0.3-3.3 0-3.9 0.7s0 1.4 1.6 1.7zm-2 1.9v-0.2 0 0 0 0 0 0 0 0 0-0.7 0.2-0.3 0.2-0.3 0.2-0.3 0.2-0.3 0.2-0.3 0.2-0.3 0.2-0.3 0.2-0.3 0.2-0.3 0.2-0.3 0.2-0.3 0.2-1.4c0-0.2 0-0.4 0.3-0.7 0 0 0.2-0.2 0.3-0.2-0.7-0.3-1-0.6-1-1.1v-1.4 0.2-0.2 0.2-0.2 0.2-0.2 0.2-0.2 0.2-0.2 0.2-0.2 0.2-0.2 0.2-0.2 0.2-0.2 0.2-0.2 0.2-0.2 0.2-1l-1.3 1.1s0 0 0 0l-0.6 0.3c-1.1 0.4-2.6 0.6-3.9 0.3l-2.1 0.7c1.2-0.3 2.8-0.5 5.2-0.4h0.2v4.6c0.3-0.2 0.7-0.3 1-0.6l1.9 1.6zm-27.6-3.8c5.1 2.2 9.5 4.3 13.2 6.4 6.3-1.7 10.7-2.3 14.3-2.5l-1.8-1.7c-1.2 0.7-1.8 1.1-3.1 1.3 0-0.4 0.4-0.9 1.3-1.7l-6 1.4c1.4 0.1 2.5 0.2 3.2 0.5-4.2 0.7-6.6 0.3-7.5-0.3-1.1-0.7-0.5-1.4 0.7-1.8 1.7-0.5 3.5 0 2.5 1 3.9-0.6 2.5-1.8 0.4-2.1 4.3 0 6.5-0.7 7-2.4-4.3-0.2-6.2 0.5-7.7 2.1 0.2-1.3-2.9-1.9-4.7-0.4 2.6-0.2 3 0.8 1.2 1.3-1.5 0.5-4.3 0.2-6.2-0.8-2.8-1.4-0.9-2.4 0.8-3.2 0.9 0.3 1.6 1.1 1.1 2.3l5.3-1.9c-2.6 0-4-0.4-5.3-0.9 1.8-0.4 5.9-0.5 5.9-0.5l-3.3-1.4-2.8-1.2s-0.2 1.8-1.1 2.5c-1.2-0.6-2.1-1.2-2.1-2.3l-4.5 2.3c2.8-0.2 4.9 0 5.5 0.5-1.8 0.7-4.2 1.5-7.5 0.3-2.3-0.8-3-2-1.9-2.7 1.3-0.7 3.6-0.6 3.1 0.5 3.4-0.8 2.1-2.1-1-2 3.7-0.6 5.5-1.4 4.9-3.2-4.1 0.2-5.7 1.2-5.7 3-0.6-0.9-3.6-1.5-5 0.2 2.3-0.4 3.4 0.4 2.3 1.1-0.8 0.5-2.6 0.8-4.1 0.3-1.3-0.4-2.2-1.4-0.7-3.2 0.7 0.3 1 0.8 1.3 1.4l3.2-2.6c-1.7 0.4-3 0.6-3.9 0.6 0.6-0.5 1.3-0.8 3.1-1.3l-3.9-0.8c-0.6 1.5-2 3.4-5.9 6.1 4.9 1.6 10 3.4 15.1 5.6z"/>
<polygon class="cls-13" points="311.3 293.3 311.3 293.3 565.4 185.3 438.4 131.3 184.3 239.3 184.3 239.3 184.3 239.3 184.3 239.3 184.3 239.3 184.3 269 311.3 322.9 311.3 323 565.4 215 565.4 185.3"/>
<path class="cls-7" d="m311.3 293.3 254.1-108-127-54-254.1 107.9v29.7l127.1 54s254.1-107.9 254.1-107.9v-29.7l-254.1 108zm127.1-161.8 126.6 53.8-253.6 107.8-126.6-53.8 253.6-107.8zm-127.2 191.2-126.7-53.8v-29.3l126.7 53.8v29.3zm254-107.8-253.7 107.8v-29.3l253.7-107.8v29.3z"/>
<path class="cls-7" d="M318.9,260.7c.4,0,.8.1,1.2.1,1.2,0,2.4-.3,2.9-.8.2-.2.3-.4.3-.6v-.4.4-1.2.4-.4.2-1.5.2-3.5h0c0-.1,0-.2,0-.2,0,0,0,0,0-.1,0,0,0,0,0-.1-.3-.4-.9-.7-1.8-.9-1.6-.3-3.4,0-4,.7-.2.2-.3.5-.3.7h0v5.9c0,.6.8,1.1,2,1.3h0ZM317.3,253c.6-.6,2.4-.9,3.9-.7,1.5.3,2.2,1,1.6,1.6-.6.6-2.4,1-3.9.7-1.5-.3-2.3-1-1.6-1.7h0Z"/>
<path class="cls-7" d="m305.2 254.3-4.5-1.9-1.9 1.5h-0.5l-2.3-1.9-4.4 1.9v6l0.9 0.2v1.7l1.7 0.7v0.2h-0.4c-0.9 0.2-1.5 0.5-1.8 0.9v0.1 0.2 5.9c0 0.2 0 0.4 0.3 0.6 0.3 0.3 0.9 0.6 1.6 0.7v1.4s0 0 0 0v1.1c0 0.3 0 0.5 0.3 0.7 0.7 0.7 2.5 1 4 0.7 0.8-0.1 1.4-0.4 1.7-0.7v2.8h0.3c4.3 0.3 8.9 1.1 14.3 2.5h0.1c3.8-2.2 8.2-4.3 13.2-6.4s10-4 15.1-5.6h0.3v-6l-0.2-0.2c-3.3-2.3-5.2-4.2-5.9-6 0-0.1-4.5 0.8-4.5 0.8v-2-0.3-0.1s0 0 0-0.1c-0.3-0.4-0.9-0.7-1.8-0.9-1.6-0.3-3.4 0-4 0.7-0.2 0.2-0.3 0.5-0.3 0.7v2.8c-0.7-0.1-1.6-0.3-2.6-0.3h-0.1c0 0.4-0.1 0.6-0.1 0.8v4l-1.3-0.6v0.3c0 1-0.7 1.5-1.9 2.1-0.8-0.7-1-2.3-1-2.4v-0.2s-4.3 1.8-4.3 1.8v-2-0.3c0-0.3-0.4-0.5-0.7-0.7s0 0 0 0v-6-0.2s0-0.1-0.1-0.2c-0.3-0.4-0.9-0.7-1.8-0.9-1.6-0.3-3.4 0-4 0.7-0.2 0.2-0.3 0.5-0.3 0.6v2.1h-0.2c-0.3-0.1-0.5-0.2-0.9-0.3l-1.6-0.3m26.9 1.4zm-5.9-2.6c0.6-0.6 2.4-0.9 3.9-0.7s2.2 1 1.6 1.6c-0.6 0.7-2.4 1-3.9 0.7s-2.3-1-1.6-1.7zm-12.1 7.2c-0.6 0.7-2.4 1-3.9 0.7s-2.3-1-1.6-1.7c0.6-0.6 2.4-1 3.9-0.7s2.2 1 1.6 1.6zm-6.3-7c0.6-0.6 2.4-0.9 3.9-0.7s2.2 1 1.6 1.6-2.4 1-3.9 0.7-2.3-1-1.6-1.7zm-15.1 1.8 3.5-0.8v-0.2s-4.5-1-4.5-1l3.9-1.6 2.3 1.9h0.5l1.8-1.5 4 1.7-4.1 0.5v0.2l6.2 1.3c0.3 0 0.6 0.2 0.8 0.3 1.3 0.5 1.4 1.4 0.3 2 0 0-0.2 0.1-0.3 0.1s-0.2 0-0.3 0.1c-1.4 0.4-3.4 0.4-4.6-0.1-0.3-0.1-0.5-0.2-0.6-0.4s0 0 0 0l-3.1-2.6h-0.5l-1.3 1.7-4-1.7zm5.5 5.6c-1.5 0.3-3.3 0-3.9-0.7-0.6-0.6 0-1.4 1.6-1.7 1.5-0.3 3.3 0 3.9 0.7s0 1.4-1.6 1.7zm-6.2 3.1c-0.6-0.6 0-1.4 1.6-1.7 1.5-0.3 3.3 0 3.9 0.7s0 1.4-1.6 1.7c-1.5 0.3-3.3 0-3.9-0.7zm5.8 4.7c-1.5 0.3-3.3 0-3.9-0.7-0.6-0.6 0-1.4 1.6-1.7 1.5-0.3 3.3 0 3.9 0.7s0 1.4-1.6 1.7zm2 1.9v-0.2 0 0 0 0 0 0 0 0 0-0.7 0.2-0.3 0.2-0.3 0.2-0.3 0.2-0.3 0.2-0.3 0.2-0.3 0.2-0.3 0.2-0.3 0.2-0.3 0.2-0.3 0.2-0.3 0.2-1.4c0-0.2 0-0.4-0.3-0.6s-0.2-0.2-0.3-0.2c0.6-0.3 1-0.6 1-1.1v-1.4 0.2-0.2 0.2-0.2 0.2-0.2 0.2-0.2 0.2-0.2 0.2-0.2 0.2-0.2 0.2-0.2 0.2-0.2 0.2-0.2 0.2-0.2 0.2-1l1.3 1.1s0 0 0 0c0.2 0.1 0.4 0.2 0.6 0.4 1.1 0.5 2.6 0.5 3.9 0.3l2.1 0.6c-1.2-0.4-2.8-0.5-5.2-0.4h-0.2v4.6c-0.3-0.2-0.6-0.4-1-0.6l-1.9 1.6zm27.6-3.8c-5.1 2.2-9.5 4.3-13.2 6.4-6.3-1.6-10.7-2.3-14.3-2.5l1.9-1.7c1.2 0.7 1.8 1 3.1 1.3 0-0.4-0.4-1-1.4-1.7l6 1.4c-1.4 0.1-2.5 0.2-3.2 0.5 4.2 0.6 6.6 0.3 7.5-0.3 1.1-0.7 0.5-1.4-0.7-1.8-1.7-0.5-3.5 0-2.5 1-3.9-0.6-2.5-1.8-0.4-2.1-4.3 0-6.5-0.7-7-2.4 4.3-0.2 6.1 0.5 7.6 2.1-0.2-1.3 2.9-1.9 4.7-0.4-2.6-0.2-3 0.8-1.2 1.3 1.5 0.5 4.3 0.2 6.2-0.8 2.8-1.4 0.9-2.4-0.8-3.2-0.9 0.3-1.6 1.1-1.1 2.3l-5.4-1.9c2.6 0 4-0.4 5.3-0.9-1.8-0.4-5.9-0.5-5.9-0.5l3.3-1.4 2.9-1.2s0.2 1.8 1.1 2.5c1.2-0.6 2.1-1.2 2.1-2.3l4.5 2.3c-2.8-0.2-4.9 0-5.5 0.5 1.8 0.7 4.2 1.5 7.5 0.4 2.3-0.8 3-2 1.9-2.6-1.3-0.7-3.6-0.6-3.1 0.5-3.4-0.8-2.1-2.1 1-2-3.7-0.6-5.5-1.4-4.9-3.2 4.1 0.2 5.7 1.2 5.7 3 0.6-0.9 3.6-1.5 5 0.2-2.3-0.4-3.4 0.4-2.3 1.1 0.8 0.5 2.6 0.8 4.1 0.3 1.3-0.4 2.2-1.4 0.7-3.2-0.7 0.3-1 0.8-1.3 1.4l-3.2-2.6c1.6 0.4 3 0.6 3.9 0.6-0.6-0.5-1.3-0.8-3.1-1.3l3.9-0.8c0.6 1.5 2 3.4 5.9 6.1-4.9 1.6-10 3.5-15.1 5.6z"/>
<path class="cls-7" d="M382.4,233.8c.4,0,.8.1,1.2.1,1.2,0,2.4-.3,2.9-.8.2-.2.3-.4.3-.6v-.4.4-1.2.4-.4.2-1.6.2-3.5h0c0-.1,0-.2,0-.2,0,0,0,0,0-.1,0,0,0,0,0-.1-.3-.4-.9-.7-1.8-.9-1.6-.3-3.4,0-4,.7-.2.2-.3.5-.3.7h0v5.9c0,.6.8,1.1,2,1.3h0ZM380.8,226c.6-.6,2.4-.9,3.9-.7,1.5.3,2.2,1,1.6,1.6-.6.6-2.4,1-3.9.7-1.5-.3-2.3-1-1.6-1.7h0Z"/>
<path class="cls-7" d="m368.7 227.3-4.5-1.9-1.9 1.5h-0.5l-2.3-1.9-4.4 1.9v5.9l0.9 0.2v1.7l1.7 0.7v0.2h-0.4c-0.9 0.2-1.5 0.5-1.8 0.9v0.1 0.2 5.9c0 0.2 0 0.4 0.3 0.6 0.3 0.3 0.9 0.6 1.6 0.7v1.4s0 0 0 0v1.1c0 0.3 0 0.5 0.3 0.7 0.7 0.7 2.5 1 4 0.7 0.8-0.1 1.4-0.4 1.7-0.7v2.8h0.3c4.3 0.3 8.9 1.1 14.3 2.5h0.1c3.8-2.2 8.2-4.3 13.2-6.4s10-4 15.1-5.6h0.3v-6l-0.2-0.2c-3.3-2.3-5.2-4.2-5.9-6 0-0.1-4.5 0.8-4.5 0.8v-2-0.3-0.1s0 0 0-0.1c-0.3-0.4-0.9-0.7-1.8-0.9-1.6-0.3-3.4 0-4 0.7-0.2 0.2-0.3 0.5-0.3 0.7v2.8c-0.7-0.1-1.6-0.3-2.6-0.3h-0.1c0 0.4-0.1 0.6-0.1 0.8v4l-1.3-0.6v0.3c0 1-0.7 1.5-1.9 2.1-0.8-0.7-1-2.3-1-2.4v-0.2s-4.3 1.8-4.3 1.8v-2-0.3c0-0.3-0.4-0.5-0.7-0.7s0 0 0 0v-7.2-0.2s0-0.1-0.1-0.2c-0.3-0.4-0.9-0.7-1.8-0.9-1.6-0.3-3.4 0-4 0.7-0.2 0.2-0.3 0.5-0.3 0.6v2.1h-0.2c-0.3-0.1-0.5-0.2-0.9-0.3l-1.6-0.3m27 2.7zm-5.9-2.6c0.6-0.6 2.4-0.9 3.9-0.7s2.2 1 1.6 1.6c-0.6 0.7-2.4 1-3.9 0.7s-2.3-1-1.6-1.7zm-12.2 7.2c-0.6 0.7-2.4 1-3.9 0.7s-2.3-1-1.6-1.7c0.6-0.6 2.4-0.9 3.9-0.7s2.2 1 1.6 1.6zm-6.2-7c0.6-0.6 2.4-0.9 3.9-0.7s2.2 1 1.6 1.6-2.4 1-3.9 0.7-2.3-1-1.6-1.7zm-15.2 1.8 3.5-0.8v-0.2s-4.5-1-4.5-1l3.9-1.6 2.3 1.9h0.5l1.8-1.5 4 1.7-4.1 0.5v0.2l6.2 1.3c0.3 0 0.6 0.2 0.8 0.3 1.3 0.5 1.4 1.4 0.3 2 0 0-0.2 0.1-0.3 0.1s-0.2 0-0.3 0.1c-1.4 0.4-3.4 0.4-4.6-0.1-0.3-0.1-0.5-0.2-0.6-0.4s0 0 0 0l-3.1-2.6h-0.5l-1.3 1.7-4-1.7zm5.5 5.6c-1.5 0.3-3.3 0-3.9-0.7-0.6-0.6 0-1.4 1.6-1.7 1.5-0.3 3.3 0 3.9 0.7s0 1.4-1.6 1.7zm-6.1 3.1c-0.6-0.6 0-1.4 1.6-1.7 1.5-0.3 3.3 0 3.9 0.7s0 1.4-1.6 1.7c-1.5 0.3-3.3 0-3.9-0.7zm5.7 4.7c-1.5 0.3-3.3 0-3.9-0.7-0.6-0.6 0-1.4 1.6-1.7 1.5-0.3 3.3 0 3.9 0.7s0 1.4-1.6 1.7zm2 1.9v-0.2 0 0 0 0 0 0 0 0 0-0.7 0.2-0.3 0.2-0.3 0.2-0.3 0.2-0.3 0.2-0.3 0.2-0.3 0.2-0.3 0.2-0.3 0.2-0.3 0.2-0.3 0.2-0.3 0.2-1.4c0-0.2 0-0.4-0.3-0.6 0 0-0.2-0.2-0.3-0.2 0.6-0.3 1-0.6 1-1.1v-1.4 0.2-0.2 0.2-0.2 0.2-0.2 0.2-0.2 0.2-0.2 0.2-0.2 0.2-0.2 0.2-0.2 0.2-0.2 0.2-0.2 0.2-0.2 0.2-1l1.3 1.1s0 0 0 0c0.2 0.1 0.4 0.2 0.6 0.4 1.1 0.4 2.6 0.6 3.9 0.3l2.1 0.6c-1.2-0.3-2.8-0.5-5.2-0.4h-0.2v4.6c-0.3-0.2-0.6-0.4-1-0.6l-1.9 1.6zm27.6-3.8c-5.1 2.2-9.5 4.3-13.2 6.4-6.3-1.6-10.7-2.3-14.3-2.5l1.9-1.7c1.2 0.7 1.8 1.1 3.1 1.3 0-0.4-0.4-0.9-1.4-1.7l6 1.4c-1.4 0.1-2.5 0.2-3.2 0.5 4.2 0.6 6.6 0.3 7.5-0.3 1.1-0.7 0.5-1.4-0.7-1.8-1.7-0.5-3.5 0-2.5 1-3.9-0.6-2.5-1.8-0.4-2.1-4.3 0-6.5-0.7-7-2.4 4.3-0.2 6.1 0.5 7.6 2.1-0.2-1.3 2.9-1.9 4.7-0.4-2.6-0.2-3 0.8-1.2 1.3 1.5 0.5 4.3 0.2 6.2-0.8 2.8-1.4 0.9-2.4-0.8-3.2-0.9 0.3-1.6 1.1-1.1 2.3l-5.4-1.9c2.6 0 4-0.4 5.3-0.9-1.8-0.4-5.9-0.5-5.9-0.5l3.3-1.4 2.9-1.2s0.2 1.8 1.1 2.5c1.2-0.6 2.1-1.2 2.1-2.3l4.5 2.3c-2.8-0.2-4.9 0-5.5 0.5 1.8 0.7 4.2 1.5 7.5 0.4 2.3-0.8 3-2 1.9-2.6-1.3-0.7-3.6-0.6-3.1 0.5-3.4-0.8-2.1-2.1 1-2-3.7-0.6-5.5-1.4-4.9-3.2 4.1 0.2 5.7 1.2 5.7 3 0.6-0.9 3.6-1.5 5 0.2-2.3-0.4-3.4 0.4-2.3 1.1 0.8 0.5 2.6 0.8 4.1 0.3 1.3-0.4 2.2-1.4 0.7-3.2-0.7 0.3-1 0.8-1.3 1.4l-3.2-2.6c1.6 0.4 3 0.6 3.9 0.6-0.6-0.5-1.3-0.8-3.1-1.3l3.9-0.8c0.6 1.5 2 3.4 5.9 6.1-4.9 1.6-10 3.4-15.1 5.6z"/>
<path class="cls-7" d="M445.9,206.8c.4,0,.8.1,1.2.1,1.2,0,2.4-.3,2.9-.8.2-.2.3-.4.3-.6v-.4.4-1.2.4-.4.2-1.6.2-3.5h0c0-.1,0-.2,0-.2,0,0,0,0,0-.1,0,0,0,0,0-.1-.3-.4-.9-.7-1.8-.9-1.6-.3-3.4,0-4,.7-.2.2-.3.5-.3.7h0v5.9c0,.6.8,1.1,2,1.3h0ZM444.3,199c.6-.6,2.4-.9,3.9-.7,1.5.3,2.2,1,1.6,1.6-.6.6-2.4,1-3.9.7-1.5-.3-2.3-1-1.6-1.7h0Z"/>
<path class="cls-7" d="m432.3 200.3-4.5-1.9-1.9 1.5h-0.5l-2.3-1.9-4.4 1.9v5.9l0.9 0.2v1.7l1.7 0.7v0.2h-0.4c-0.9 0.2-1.5 0.5-1.8 0.9v0.1 0.2 5.9c0 0.2 0 0.4 0.3 0.6 0.3 0.3 0.9 0.6 1.6 0.7v1.4s0 0 0 0v1.1c0 0.3 0 0.5 0.3 0.7 0.7 0.7 2.5 1 4 0.7 0.8-0.1 1.4-0.4 1.7-0.7v2.8h0.3c4.3 0.3 8.9 1.1 14.3 2.5h0.1c3.8-2.2 8.2-4.3 13.2-6.4s10-4 15.1-5.6h0.3v-6l-0.2-0.2c-3.3-2.3-5.2-4.2-5.9-6 0-0.1-4.5 0.8-4.5 0.8v-2-0.3-0.1s0 0 0-0.1c-0.3-0.4-0.9-0.7-1.8-0.9-1.6-0.3-3.4 0-4 0.7-0.2 0.2-0.3 0.5-0.3 0.7v2.8c-0.7-0.1-1.6-0.3-2.6-0.3h-0.1c0 0.4-0.1 0.6-0.1 0.8v4l-1.3-0.6v0.3c0 1-0.7 1.5-1.9 2.1-0.8-0.7-1-2.3-1-2.4v-0.2s-4.3 1.8-4.3 1.8v-2-0.3c0-0.3-0.4-0.5-0.7-0.7s0 0 0 0v-7.2-0.2s0-0.1-0.1-0.2c-0.3-0.4-0.9-0.7-1.8-0.9-1.6-0.3-3.4 0-4 0.7-0.2 0.2-0.3 0.5-0.3 0.6v2.1h-0.2c-0.3-0.1-0.5-0.2-0.9-0.3l-1.6-0.3m26.9 2.7zm-5.9-2.6c0.6-0.6 2.4-0.9 3.9-0.7s2.2 1 1.6 1.6c-0.6 0.7-2.4 1-3.9 0.7s-2.3-1-1.6-1.7zm-12.1 7.2c-0.6 0.7-2.4 1-3.9 0.7s-2.3-1-1.6-1.7c0.6-0.6 2.4-0.9 3.9-0.7s2.2 1 1.6 1.6zm-6.3-7c0.6-0.6 2.4-0.9 3.9-0.7s2.2 1 1.6 1.6-2.4 1-3.9 0.7-2.3-1-1.6-1.7zm-15.2 1.8 3.5-0.8v-0.2s-4.5-1-4.5-1l3.9-1.6 2.3 1.9h0.5l1.8-1.5 4 1.7-4.1 0.5v0.2l6.2 1.3c0.3 0 0.6 0.2 0.8 0.3 1.3 0.5 1.4 1.4 0.3 2 0 0-0.2 0.1-0.3 0.1s-0.2 0-0.3 0.1c-1.4 0.4-3.4 0.4-4.6-0.1-0.3-0.1-0.5-0.2-0.6-0.4s0 0 0 0l-3.1-2.6h-0.5l-1.3 1.7-4-1.7zm5.6 5.6c-1.5 0.3-3.3 0-3.9-0.7-0.6-0.6 0-1.4 1.6-1.7 1.5-0.3 3.3 0 3.9 0.7s0 1.4-1.6 1.7zm-6.2 3.1c-0.6-0.6 0-1.4 1.6-1.7 1.5-0.3 3.3 0 3.9 0.7s0 1.4-1.6 1.7c-1.5 0.3-3.3 0-3.9-0.7zm5.7 4.7c-1.5 0.3-3.3 0-3.9-0.7-0.6-0.6 0-1.4 1.6-1.7 1.5-0.3 3.3 0 3.9 0.7s0 1.4-1.6 1.7zm2 1.9v-0.2 0 0 0 0 0 0 0 0 0-0.7 0.2-0.3 0.2-0.3 0.2-0.3 0.2-0.3 0.2-0.3 0.2-0.3 0.2-0.3 0.2-0.3 0.2-0.3 0.2-0.3 0.2-0.3 0.2-1.4c0-0.2 0-0.4-0.3-0.6 0 0-0.2-0.2-0.3-0.2 0.6-0.3 1-0.6 1-1.1v-1.4 0.2-0.2 0.2-0.2 0.2-0.2 0.2-0.2 0.2-0.2 0.2-0.2 0.2-0.2 0.2-0.2 0.2-0.2 0.2-0.2 0.2-0.2 0.2-1l1.3 1.1s0 0 0 0c0.2 0.1 0.4 0.2 0.6 0.4 1.1 0.4 2.6 0.6 3.9 0.3l2.1 0.6c-1.2-0.3-2.8-0.5-5.2-0.4h-0.2v4.6c-0.3-0.2-0.6-0.4-1-0.6l-1.9 1.6zm27.6-3.8c-5.1 2.2-9.5 4.3-13.2 6.4-6.3-1.6-10.7-2.3-14.3-2.5l1.9-1.7c1.2 0.7 1.8 1.1 3.1 1.3 0-0.4-0.4-0.9-1.4-1.7l6 1.4c-1.4 0.1-2.5 0.2-3.2 0.5 4.2 0.6 6.6 0.3 7.5-0.3 1.1-0.7 0.5-1.4-0.7-1.8-1.7-0.5-3.5 0-2.5 1-3.9-0.6-2.5-1.8-0.4-2.1-4.3 0-6.5-0.7-7-2.4 4.3-0.2 6.1 0.5 7.6 2.1-0.2-1.3 2.9-1.9 4.7-0.4-2.6-0.2-3 0.8-1.2 1.3 1.5 0.5 4.3 0.2 6.2-0.8 2.8-1.4 0.9-2.4-0.8-3.2-0.9 0.3-1.6 1.1-1.1 2.3l-5.4-1.9c2.6 0 4-0.4 5.3-0.9-1.8-0.4-5.9-0.5-5.9-0.5l3.3-1.4 2.9-1.2s0.2 1.8 1.1 2.5c1.2-0.6 2.1-1.2 2.1-2.3l4.5 2.3c-2.8-0.2-4.9 0-5.5 0.5 1.8 0.7 4.2 1.5 7.5 0.4 2.3-0.8 3-2 1.9-2.6-1.3-0.7-3.6-0.6-3.1 0.5-3.4-0.8-2.1-2.1 1-2-3.7-0.6-5.5-1.4-4.9-3.2 4.1 0.2 5.7 1.2 5.7 3 0.6-0.9 3.6-1.5 5 0.2-2.3-0.4-3.4 0.4-2.3 1.1 0.8 0.5 2.6 0.8 4.1 0.3 1.3-0.4 2.2-1.4 0.7-3.2-0.7 0.3-1 0.8-1.3 1.4l-3.2-2.6c1.6 0.4 3 0.6 3.9 0.6-0.6-0.5-1.3-0.8-3.1-1.3l3.9-0.8c0.6 1.5 2 3.4 5.9 6.1-4.9 1.6-10 3.4-15.1 5.6z"/>
<path class="cls-7" d="M509.5,179.8c.4,0,.8.1,1.2.1,1.2,0,2.3-.3,2.9-.8.2-.2.3-.4.3-.6v-.4.4-1.2.4-.4.2-1.6.2-3.5h0c0-.1,0-.2,0-.2,0,0,0,0,0-.1s0,0,0-.1c-.3-.4-.9-.7-1.8-.9-1.6-.3-3.4,0-4,.7-.2.2-.3.5-.3.7h0v5.9c0,.6.8,1.1,2,1.3h0ZM507.9,172c.6-.6,2.4-.9,3.9-.7,1.5.3,2.2,1,1.6,1.6-.6.6-2.4,1-3.9.7-1.5-.3-2.3-1-1.6-1.7h0Z"/>
<path class="cls-7" d="m495.8 173.4-4.5-1.9-1.9 1.5h-0.5l-2.3-1.9-4.4 1.9v5.9l0.9 0.2v1.7l1.7 0.7v0.2h-0.4c-0.9 0.2-1.5 0.5-1.8 0.9v0.1 0.2 5.9c0 0.2 0 0.4 0.3 0.6 0.3 0.3 0.9 0.6 1.6 0.7v1.4s0 0 0 0v1.1c0 0.3 0 0.5 0.3 0.7 0.7 0.7 2.5 1 4 0.7 0.8-0.1 1.4-0.4 1.7-0.7v2.8h0.3c4.3 0.3 8.9 1.1 14.3 2.5h0.1c3.8-2.2 8.2-4.3 13.2-6.4s10-4 15.1-5.6h0.3v-6l-0.2-0.2c-3.3-2.3-5.2-4.2-5.8-6 0-0.1-4.5 0.8-4.5 0.8v-2-0.3-0.1s0 0 0-0.1c-0.3-0.4-0.9-0.7-1.8-0.9-1.6-0.3-3.4 0-4 0.7-0.2 0.2-0.3 0.5-0.3 0.7v2.8c-0.7-0.1-1.6-0.3-2.6-0.3h-0.1c0 0.4-0.1 0.6 0 0.8v4l-1.3-0.6v0.3c0 1-0.7 1.5-1.9 2.1-0.8-0.7-1-2.3-1-2.4v-0.2s-4.3 1.8-4.3 1.8v-2-0.3c0-0.3-0.4-0.5-0.7-0.7s0 0 0 0v-7.2-0.2s0-0.1-0.1-0.2c-0.3-0.4-0.9-0.7-1.8-0.9-1.6-0.3-3.4 0-4 0.7-0.2 0.2-0.3 0.5-0.3 0.6v2.1h-0.2c-0.3-0.1-0.5-0.2-0.9-0.3l-1.6-0.3m26.7 2.6zm-5.9-2.6c0.6-0.6 2.4-0.9 3.9-0.7s2.2 1 1.6 1.6c-0.6 0.7-2.4 1-3.9 0.7s-2.3-1-1.6-1.7zm-12.1 7.2c-0.6 0.7-2.4 1-3.9 0.7s-2.3-1-1.6-1.7c0.6-0.6 2.4-0.9 3.9-0.7s2.2 1 1.6 1.6zm-6.3-7c0.6-0.6 2.4-0.9 3.9-0.7s2.2 1 1.6 1.6-2.4 1-3.9 0.7-2.3-1-1.6-1.7zm-15.1 1.8 3.5-0.8v-0.2s-4.5-1-4.5-1l3.9-1.6 2.3 1.9h0.5l1.8-1.5 4 1.7-4.1 0.5v0.2l6.2 1.3c0.3 0 0.6 0.2 0.8 0.3 1.3 0.5 1.4 1.4 0.3 2 0 0-0.2 0.1-0.3 0.1s-0.2 0-0.3 0.1c-1.4 0.4-3.4 0.4-4.6-0.1-0.3-0.1-0.5-0.2-0.6-0.4s0 0 0 0l-3.1-2.6h-0.5l-1.3 1.7-4-1.7zm5.5 5.6c-1.5 0.3-3.3 0-3.9-0.7-0.6-0.6 0-1.4 1.6-1.7 1.5-0.3 3.3 0 3.9 0.7s0 1.4-1.6 1.7zm-6.2 3.2c-0.6-0.6 0-1.4 1.6-1.7 1.5-0.3 3.3 0 3.9 0.7s0 1.4-1.6 1.7c-1.5 0.3-3.3 0-3.9-0.7zm5.7 4.6c-1.5 0.3-3.3 0-3.9-0.7-0.6-0.6 0-1.4 1.6-1.7 1.5-0.3 3.3 0 3.9 0.7s0 1.4-1.6 1.7zm2 1.9v-0.2 0 0 0 0 0 0 0 0 0-0.7 0.2-0.3 0.2-0.3 0.2-0.3 0.2-0.3 0.2-0.3 0.2-0.3 0.2-0.3 0.2-0.3 0.2-0.3 0.2-0.3 0.2-0.3 0.2-1.4c0-0.2 0-0.4-0.3-0.6 0 0-0.2-0.2-0.3-0.2 0.6-0.3 1-0.6 1-1.1v-1.4 0.2-0.2 0.2-0.2 0.2-0.2 0.2-0.2 0.2-0.2 0.2-0.2 0.2-0.2 0.2-0.2 0.2-0.2 0.2-0.2 0.2-0.2 0.2-1l1.3 1.1s0 0 0 0c0.2 0.1 0.4 0.2 0.6 0.4 1.1 0.4 2.6 0.6 3.9 0.3l2.1 0.6c-1.2-0.3-2.8-0.5-5.2-0.4h-0.2v4.6c-0.3-0.2-0.6-0.4-1-0.6l-1.9 1.6zm27.6-3.8c-5.1 2.2-9.5 4.3-13.2 6.4-6.3-1.6-10.7-2.3-14.3-2.5l1.9-1.7c1.2 0.7 1.8 1.1 3.1 1.3 0-0.4-0.4-0.9-1.4-1.7l6 1.4c-1.4 0.1-2.5 0.2-3.2 0.5 4.2 0.6 6.6 0.3 7.5-0.3 1.1-0.7 0.5-1.4-0.7-1.8-1.7-0.5-3.5 0-2.5 1-3.9-0.6-2.5-1.8-0.4-2.1-4.3 0-6.5-0.7-7-2.4 4.3-0.2 6.1 0.5 7.6 2.1-0.2-1.3 2.9-1.9 4.7-0.4-2.6-0.2-3 0.8-1.2 1.3 1.5 0.5 4.3 0.2 6.2-0.8 2.8-1.4 0.9-2.4-0.8-3.2-0.9 0.3-1.6 1.1-1.1 2.3l-5.4-1.9c2.6 0 4-0.4 5.3-0.9-1.8-0.4-5.9-0.5-5.9-0.5l3.3-1.4 2.9-1.2s0.2 1.8 1.1 2.5c1.2-0.6 2.1-1.2 2.1-2.3l4.5 2.3c-2.8-0.2-4.9 0-5.5 0.5 1.8 0.7 4.2 1.5 7.5 0.4 2.3-0.8 3-2 1.9-2.6-1.3-0.7-3.6-0.6-3.1 0.5-3.4-0.8-2.1-2.1 1-2-3.7-0.6-5.5-1.4-4.9-3.2 4.1 0.2 5.7 1.2 5.7 3 0.6-0.9 3.6-1.5 5 0.2-2.3-0.4-3.4 0.4-2.3 1.1 0.8 0.5 2.6 0.8 4.1 0.3 1.3-0.4 2.2-1.4 0.7-3.2-0.7 0.3-1 0.8-1.3 1.4l-3.2-2.6c1.7 0.4 3 0.6 3.9 0.6-0.6-0.5-1.3-0.8-3.1-1.3l3.9-0.8c0.6 1.5 2 3.4 5.9 6.1-4.9 1.6-10 3.4-15.1 5.6z"/>
<path class="cls-7" d="M255.4,233.8c.4,0,.8.1,1.2.1,1.2,0,2.4-.3,2.9-.8.2-.2.3-.4.3-.6v-.4.4-1.2.4-.4.2-1.6.2-3.5h0c0-.1,0-.2,0-.2,0,0,0,0,0-.1,0,0,0,0,0-.1-.3-.4-.9-.7-1.8-.9-1.6-.3-3.4,0-4.1.7-.2.2-.3.5-.3.7h0v5.9c0,.6.8,1.1,2,1.3h0ZM253.8,226c.6-.6,2.4-.9,3.9-.7,1.5.3,2.2,1,1.6,1.6-.6.6-2.4,1-3.9.7-1.5-.3-2.3-1-1.6-1.7h0Z"/>
<path class="cls-7" d="m241.7 227.3-4.5-1.9-1.9 1.5h-0.4l-2.3-1.9-4.4 1.9v5.9l0.9 0.2v1.7l1.7 0.7v0.2h-0.4c-0.9 0.2-1.5 0.5-1.8 0.9v0.1 0.2 5.9c0 0.2 0 0.4 0.3 0.6 0.3 0.3 0.9 0.6 1.6 0.7v1.4s0 0 0 0v1.1c0 0.3 0 0.5 0.3 0.7 0.7 0.7 2.5 1 4 0.7 0.8-0.1 1.4-0.4 1.7-0.7v2.8h0.3c4.3 0.3 8.9 1.1 14.3 2.5h0.1c3.8-2.2 8.2-4.3 13.2-6.4s10-4 15.1-5.6h0.3v-6l-0.2-0.2c-3.3-2.3-5.2-4.2-5.9-6 0-0.1-4.5 0.8-4.5 0.8v-2-0.3-0.1s0 0 0-0.1c-0.3-0.4-0.9-0.7-1.8-0.9-1.6-0.3-3.4 0-4 0.7-0.2 0.2-0.3 0.5-0.3 0.7v2.8c-0.7-0.1-1.6-0.3-2.6-0.3h-0.1c0 0.4-0.1 0.6-0.1 0.8v4l-1.3-0.6v0.3c0 1-0.7 1.5-1.9 2.1-0.8-0.7-1-2.3-1-2.4v-0.2s-4.3 1.8-4.3 1.8v-2-0.3c0-0.3-0.4-0.5-0.7-0.7s0 0 0 0v-7.2-0.2s0-0.1-0.1-0.2c-0.3-0.4-0.9-0.7-1.8-0.9-1.6-0.3-3.4 0-4.1 0.7-0.2 0.2-0.3 0.5-0.3 0.6v2.1h-0.2c-0.3-0.1-0.6-0.2-0.9-0.3l-1.6-0.3m26.9 2.7zm-5.9-2.6c0.6-0.6 2.4-0.9 3.9-0.7s2.2 1 1.6 1.6c-0.6 0.7-2.4 1-3.9 0.7s-2.3-1-1.6-1.7zm-12.1 7.2c-0.6 0.7-2.4 1-3.9 0.7s-2.3-1-1.6-1.7c0.6-0.6 2.4-0.9 3.9-0.7s2.2 1 1.6 1.6zm-6.3-7c0.6-0.6 2.4-0.9 3.9-0.7s2.2 1 1.6 1.6-2.4 1-3.9 0.7-2.3-1-1.6-1.7zm-15.1 1.8 3.5-0.8v-0.2s-4.5-1-4.5-1l3.9-1.6 2.3 1.9h0.6l1.8-1.5 3.9 1.7-4.1 0.5v0.2l6.2 1.3c0.3 0 0.6 0.2 0.8 0.3 1.3 0.5 1.4 1.4 0.3 2 0 0-0.2 0.1-0.3 0.1s-0.2 0-0.3 0.1c-1.4 0.4-3.4 0.4-4.6-0.1-0.3-0.1-0.5-0.2-0.6-0.4s0 0 0 0l-3.1-2.6h-0.6l-1.3 1.7-3.9-1.7zm5.5 5.6c-1.5 0.3-3.3 0-3.9-0.7-0.6-0.6 0-1.4 1.6-1.7 1.5-0.3 3.3 0 3.9 0.7s0 1.4-1.6 1.7zm-6.2 3.1c-0.6-0.6 0-1.4 1.6-1.7 1.5-0.3 3.3 0 3.9 0.7s0 1.4-1.6 1.7c-1.5 0.3-3.3 0-3.9-0.7zm5.7 4.7c-1.5 0.3-3.3 0-3.9-0.7-0.6-0.6 0-1.4 1.6-1.7 1.5-0.3 3.3 0 3.9 0.7s0 1.4-1.6 1.7zm2 1.9v-0.2 0 0 0 0 0 0 0 0 0-0.7 0.2-0.3 0.2-0.3 0.2-0.3 0.2-0.3 0.2-0.3 0.2-0.3 0.2-0.3 0.2-0.3 0.2-0.3 0.2-0.3 0.2-0.3 0.2-1.4c0-0.2 0-0.4-0.3-0.6 0 0-0.2-0.2-0.3-0.2 0.6-0.3 1-0.6 1-1.1v-1.4 0.2-0.2 0.2-0.2 0.2-0.2 0.2-0.2 0.2-0.2 0.2-0.2 0.2-0.2 0.2-0.2 0.2-0.2 0.2-0.2 0.2-0.2 0.2-1l1.3 1.1s0 0 0 0c0.2 0.1 0.4 0.2 0.6 0.4 1.1 0.4 2.6 0.6 3.9 0.3l2.1 0.6c-1.2-0.3-2.8-0.5-5.2-0.4h-0.2v4.6c-0.3-0.2-0.6-0.4-1-0.6l-1.9 1.6zm27.6-3.8c-5.1 2.2-9.5 4.3-13.2 6.4-6.3-1.6-10.7-2.3-14.3-2.5l1.9-1.7c1.2 0.7 1.8 1.1 3.1 1.3 0-0.4-0.4-0.9-1.4-1.7l6 1.4c-1.4 0.1-2.5 0.2-3.2 0.5 4.2 0.6 6.6 0.3 7.4-0.3 1.1-0.7 0.5-1.4-0.7-1.8-1.7-0.5-3.5 0-2.6 1-3.9-0.6-2.6-1.8-0.4-2.1-4.3 0-6.5-0.7-7.1-2.4 4.3-0.2 6.1 0.5 7.6 2.1-0.2-1.3 2.9-1.9 4.7-0.4-2.6-0.2-3 0.8-1.2 1.3 1.5 0.5 4.3 0.2 6.2-0.8 2.8-1.4 0.9-2.4-0.8-3.2-0.9 0.3-1.6 1.1-1.1 2.3l-5.4-1.9c2.6 0 4-0.4 5.3-0.9-1.8-0.4-5.9-0.5-5.9-0.5l3.3-1.4 2.9-1.2s0.2 1.8 1.1 2.5c1.2-0.6 2.1-1.2 2.1-2.3l4.5 2.3c-2.8-0.2-4.9 0-5.5 0.5 1.8 0.7 4.2 1.5 7.5 0.4 2.3-0.8 3-2 1.9-2.6-1.3-0.7-3.6-0.6-3.1 0.5-3.4-0.8-2.1-2.1 1-2-3.7-0.6-5.5-1.4-4.9-3.2 4.1 0.2 5.7 1.2 5.7 3 0.6-0.9 3.6-1.5 5 0.2-2.3-0.4-3.4 0.4-2.3 1.1 0.8 0.5 2.6 0.8 4.1 0.3 1.3-0.4 2.2-1.4 0.7-3.2-0.7 0.3-1 0.8-1.3 1.4l-3.2-2.6c1.6 0.4 3 0.6 3.9 0.6-0.6-0.5-1.3-0.8-3.1-1.3l3.9-0.8c0.6 1.5 2 3.4 5.9 6.1-4.9 1.6-10 3.4-15.1 5.6z"/>
<path class="cls-7" d="M318.9,206.8c.4,0,.8.1,1.2.1,1.2,0,2.4-.3,2.9-.8.2-.2.3-.4.3-.6v-.4.4-1.2.4-.4.2-1.6.2-3.5h0c0-.1,0-.2,0-.2,0,0,0,0,0-.1,0,0,0,0,0-.1-.3-.4-.9-.7-1.8-.9-1.6-.3-3.4,0-4,.7-.2.2-.3.5-.3.7h0v5.9c0,.6.8,1.1,2,1.3h0ZM317.3,199c.6-.6,2.4-.9,3.9-.7,1.5.3,2.2,1,1.6,1.6-.6.6-2.4,1-3.9.7-1.5-.3-2.3-1-1.6-1.7h0Z"/>
<path class="cls-7" d="m305.2 200.3-4.5-1.9-1.9 1.5h-0.5l-2.3-1.9-4.4 1.9v5.9l0.9 0.2v1.7l1.7 0.7v0.2h-0.4c-0.9 0.2-1.5 0.5-1.8 0.9v0.1 0.2 5.9c0 0.2 0 0.4 0.3 0.6 0.3 0.3 0.9 0.6 1.6 0.7v1.4s0 0 0 0v1.1c0 0.3 0 0.5 0.3 0.7 0.7 0.7 2.5 1 4 0.7 0.8-0.1 1.4-0.4 1.7-0.7v2.8h0.3c4.3 0.3 8.9 1.1 14.3 2.5h0.1c3.8-2.2 8.2-4.3 13.2-6.4s10-4 15.1-5.6h0.3v-6l-0.2-0.2c-3.3-2.3-5.2-4.2-5.9-6 0-0.1-4.5 0.8-4.5 0.8v-2-0.3-0.1s0 0 0-0.1c-0.3-0.4-0.9-0.7-1.8-0.9-1.6-0.3-3.4 0-4 0.7-0.2 0.2-0.3 0.5-0.3 0.7v2.8c-0.7-0.1-1.6-0.3-2.6-0.3h-0.1c0 0.4-0.1 0.6-0.1 0.8v4l-1.3-0.6v0.3c0 1-0.7 1.5-1.9 2.1-0.8-0.7-1-2.3-1-2.4v-0.2s-4.3 1.8-4.3 1.8v-2-0.3c0-0.3-0.4-0.5-0.7-0.7s0 0 0 0v-7.2-0.2s0-0.1-0.1-0.2c-0.3-0.4-0.9-0.7-1.8-0.9-1.6-0.3-3.4 0-4 0.7-0.2 0.2-0.3 0.5-0.3 0.6v2.1h-0.2c-0.3-0.1-0.5-0.2-0.9-0.3l-1.6-0.3m26.9 2.7zm-5.9-2.6c0.6-0.6 2.4-0.9 3.9-0.7s2.2 1 1.6 1.6c-0.6 0.7-2.4 1-3.9 0.7s-2.3-1-1.6-1.7zm-12.1 7.2c-0.6 0.7-2.4 1-3.9 0.7s-2.3-1-1.6-1.7c0.6-0.6 2.4-0.9 3.9-0.7s2.2 1 1.6 1.6zm-6.3-7c0.6-0.6 2.4-0.9 3.9-0.7s2.2 1 1.6 1.6-2.4 1-3.9 0.7-2.3-1-1.6-1.7zm-15.1 1.8 3.5-0.8v-0.2s-4.5-1-4.5-1l3.9-1.6 2.3 1.9h0.5l1.8-1.5 4 1.7-4.1 0.5v0.2l6.2 1.3c0.3 0 0.6 0.2 0.8 0.3 1.3 0.5 1.4 1.4 0.3 2 0 0-0.2 0.1-0.3 0.1s-0.2 0-0.3 0.1c-1.4 0.4-3.4 0.4-4.6-0.1-0.3-0.1-0.5-0.2-0.6-0.4s0 0 0 0l-3.1-2.6h-0.5l-1.3 1.7-4-1.7zm5.5 5.6c-1.5 0.3-3.3 0-3.9-0.7-0.6-0.6 0-1.4 1.6-1.7 1.5-0.3 3.3 0 3.9 0.7s0 1.4-1.6 1.7zm-6.2 3.1c-0.6-0.6 0-1.4 1.6-1.7 1.5-0.3 3.3 0 3.9 0.7s0 1.4-1.6 1.7c-1.5 0.3-3.3 0-3.9-0.7zm5.8 4.7c-1.5 0.3-3.3 0-3.9-0.7-0.6-0.6 0-1.4 1.6-1.7 1.5-0.3 3.3 0 3.9 0.7s0 1.4-1.6 1.7zm2 1.9v-0.2 0 0 0 0 0 0 0 0 0-0.7 0.2-0.3 0.2-0.3 0.2-0.3 0.2-0.3 0.2-0.3 0.2-0.3 0.2-0.3 0.2-0.3 0.2-0.3 0.2-0.3 0.2-0.3 0.2-1.4c0-0.2 0-0.4-0.3-0.6 0 0-0.2-0.2-0.3-0.2 0.6-0.3 1-0.6 1-1.1v-1.4 0.2-0.2 0.2-0.2 0.2-0.2 0.2-0.2 0.2-0.2 0.2-0.2 0.2-0.2 0.2-0.2 0.2-0.2 0.2-0.2 0.2-0.2 0.2-1l1.3 1.1s0 0 0 0c0.2 0.1 0.4 0.2 0.6 0.4 1.1 0.4 2.6 0.6 3.9 0.3l2.1 0.6c-1.2-0.3-2.8-0.5-5.2-0.4h-0.2v4.6c-0.3-0.2-0.6-0.4-1-0.6l-1.9 1.6zm27.6-3.8c-5.1 2.2-9.5 4.3-13.2 6.4-6.3-1.6-10.7-2.3-14.3-2.5l1.9-1.7c1.2 0.7 1.8 1.1 3.1 1.3 0-0.4-0.4-0.9-1.4-1.7l6 1.4c-1.4 0.1-2.5 0.2-3.2 0.5 4.2 0.6 6.6 0.3 7.5-0.3 1.1-0.7 0.5-1.4-0.7-1.8-1.7-0.5-3.5 0-2.5 1-3.9-0.6-2.5-1.8-0.4-2.1-4.3 0-6.5-0.7-7-2.4 4.3-0.2 6.1 0.5 7.6 2.1-0.2-1.3 2.9-1.9 4.7-0.4-2.6-0.2-3 0.8-1.2 1.3 1.5 0.5 4.3 0.2 6.2-0.8 2.8-1.4 0.9-2.4-0.8-3.2-0.9 0.3-1.6 1.1-1.1 2.3l-5.4-1.9c2.6 0 4-0.4 5.3-0.9-1.8-0.4-5.9-0.5-5.9-0.5l3.3-1.4 2.9-1.2s0.2 1.8 1.1 2.5c1.2-0.6 2.1-1.2 2.1-2.3l4.5 2.3c-2.8-0.2-4.9 0-5.5 0.5 1.8 0.7 4.2 1.5 7.5 0.4 2.3-0.8 3-2 1.9-2.6-1.3-0.7-3.6-0.6-3.1 0.5-3.4-0.8-2.1-2.1 1-2-3.7-0.6-5.5-1.4-4.9-3.2 4.1 0.2 5.7 1.2 5.7 3 0.6-0.9 3.6-1.5 5 0.2-2.3-0.4-3.4 0.4-2.3 1.1 0.8 0.5 2.6 0.8 4.1 0.3 1.3-0.4 2.2-1.4 0.7-3.2-0.7 0.3-1 0.8-1.3 1.4l-3.2-2.6c1.6 0.4 3 0.6 3.9 0.6-0.6-0.5-1.3-0.8-3.1-1.3l3.9-0.8c0.6 1.5 2 3.4 5.9 6.1-4.9 1.6-10 3.4-15.1 5.6z"/>
<path class="cls-7" d="M382.4,179.8c.4,0,.8.1,1.2.1,1.2,0,2.4-.3,2.9-.8.2-.2.3-.4.3-.6v-.4.4-1.2.4-.4.2-1.6.2-3.5h0c0-.1,0-.2,0-.2,0,0,0,0,0-.1,0,0,0,0,0-.1-.3-.4-.9-.7-1.8-.9-1.6-.3-3.4,0-4,.7-.2.2-.3.5-.3.7h0v5.9c0,.6.8,1.1,2,1.3h0ZM380.8,172c.6-.6,2.4-.9,3.9-.7,1.5.3,2.2,1,1.6,1.6-.6.6-2.4,1-3.9.7-1.5-.3-2.3-1-1.6-1.7h0Z"/>
<path class="cls-7" d="m368.7 173.4-4.5-1.9-1.9 1.5h-0.5l-2.3-1.9-4.4 1.9v5.9l0.9 0.2v1.7l1.7 0.7v0.2h-0.4c-0.9 0.2-1.5 0.5-1.8 0.9v0.1 0.2 5.9c0 0.2 0 0.4 0.3 0.6 0.3 0.3 0.9 0.6 1.6 0.7v1.4s0 0 0 0v1.1c0 0.3 0 0.5 0.3 0.7 0.7 0.7 2.5 1 4 0.7 0.8-0.1 1.4-0.4 1.7-0.7v2.8h0.3c4.3 0.3 8.9 1.1 14.3 2.5h0.1c3.8-2.2 8.2-4.3 13.2-6.4s10-4 15.1-5.6h0.3v-6l-0.2-0.2c-3.3-2.3-5.2-4.2-5.9-6 0-0.1-4.5 0.8-4.5 0.8v-2-0.3-0.1s0 0 0-0.1c-0.3-0.4-0.9-0.7-1.8-0.9-1.6-0.3-3.4 0-4 0.7-0.2 0.2-0.3 0.5-0.3 0.7v2.8c-0.7-0.1-1.6-0.3-2.6-0.3h-0.1c0 0.4-0.1 0.6-0.1 0.8v4l-1.3-0.6v0.3c0 1-0.7 1.5-1.9 2.1-0.8-0.7-1-2.3-1-2.4v-0.2s-4.3 1.8-4.3 1.8v-2-0.3c0-0.3-0.4-0.5-0.7-0.7s0 0 0 0v-7.2-0.2s0-0.1-0.1-0.2c-0.3-0.4-0.9-0.7-1.8-0.9-1.6-0.3-3.4 0-4 0.7-0.2 0.2-0.3 0.5-0.3 0.6v2.1h-0.2c-0.3-0.1-0.5-0.2-0.9-0.3l-1.6-0.3m27 2.6zm-5.9-2.6c0.6-0.6 2.4-0.9 3.9-0.7s2.2 1 1.6 1.6c-0.6 0.7-2.4 1-3.9 0.7s-2.3-1-1.6-1.7zm-12.2 7.2c-0.6 0.7-2.4 1-3.9 0.7s-2.3-1-1.6-1.7c0.6-0.6 2.4-0.9 3.9-0.7s2.2 1 1.6 1.6zm-6.2-7c0.6-0.6 2.4-0.9 3.9-0.7s2.2 1 1.6 1.6-2.4 1-3.9 0.7-2.3-1-1.6-1.7zm-15.2 1.8 3.5-0.8v-0.2s-4.5-1-4.5-1l3.9-1.6 2.3 1.9h0.5l1.8-1.5 4 1.7-4.1 0.5v0.2l6.2 1.3c0.3 0 0.6 0.2 0.8 0.3 1.3 0.5 1.4 1.4 0.3 2 0 0-0.2 0.1-0.3 0.1s-0.2 0-0.3 0.1c-1.4 0.4-3.4 0.4-4.6-0.1-0.3-0.1-0.5-0.2-0.6-0.4s0 0 0 0l-3.1-2.6h-0.5l-1.3 1.7-4-1.7zm5.5 5.6c-1.5 0.3-3.3 0-3.9-0.7-0.6-0.6 0-1.4 1.6-1.7 1.5-0.3 3.3 0 3.9 0.7s0 1.4-1.6 1.7zm-6.1 3.2c-0.6-0.6 0-1.4 1.6-1.7 1.5-0.3 3.3 0 3.9 0.7s0 1.4-1.6 1.7c-1.5 0.3-3.3 0-3.9-0.7zm5.7 4.6c-1.5 0.3-3.3 0-3.9-0.7-0.6-0.6 0-1.4 1.6-1.7 1.5-0.3 3.3 0 3.9 0.7s0 1.4-1.6 1.7zm2 1.9v-0.2 0 0 0 0 0 0 0 0 0-0.7 0.2-0.3 0.2-0.3 0.2-0.3 0.2-0.3 0.2-0.3 0.2-0.3 0.2-0.3 0.2-0.3 0.2-0.3 0.2-0.3 0.2-0.3 0.2-1.4c0-0.2 0-0.4-0.3-0.6 0 0-0.2-0.2-0.3-0.2 0.6-0.3 1-0.6 1-1.1v-1.4 0.2-0.2 0.2-0.2 0.2-0.2 0.2-0.2 0.2-0.2 0.2-0.2 0.2-0.2 0.2-0.2 0.2-0.2 0.2-0.2 0.2-0.2 0.2-1l1.3 1.1s0 0 0 0c0.2 0.1 0.4 0.2 0.6 0.4 1.1 0.4 2.6 0.6 3.9 0.3l2.1 0.6c-1.2-0.3-2.8-0.5-5.2-0.4h-0.2v4.6c-0.3-0.2-0.6-0.4-1-0.6l-1.9 1.6zm27.6-3.8c-5.1 2.2-9.5 4.3-13.2 6.4-6.3-1.6-10.7-2.3-14.3-2.5l1.9-1.7c1.2 0.7 1.8 1.1 3.1 1.3 0-0.4-0.4-0.9-1.4-1.7l6 1.4c-1.4 0.1-2.5 0.2-3.2 0.5 4.2 0.6 6.6 0.3 7.5-0.3 1.1-0.7 0.5-1.4-0.7-1.8-1.7-0.5-3.5 0-2.5 1-3.9-0.6-2.5-1.8-0.4-2.1-4.3 0-6.5-0.7-7-2.4 4.3-0.2 6.1 0.5 7.6 2.1-0.2-1.3 2.9-1.9 4.7-0.4-2.6-0.2-3 0.8-1.2 1.3 1.5 0.5 4.3 0.2 6.2-0.8 2.8-1.4 0.9-2.4-0.8-3.2-0.9 0.3-1.6 1.1-1.1 2.3l-5.4-1.9c2.6 0 4-0.4 5.3-0.9-1.8-0.4-5.9-0.5-5.9-0.5l3.3-1.4 2.9-1.2s0.2 1.8 1.1 2.5c1.2-0.6 2.1-1.2 2.1-2.3l4.5 2.3c-2.8-0.2-4.9 0-5.5 0.5 1.8 0.7 4.2 1.5 7.5 0.4 2.3-0.8 3-2 1.9-2.6-1.3-0.7-3.6-0.6-3.1 0.5-3.4-0.8-2.1-2.1 1-2-3.7-0.6-5.5-1.4-4.9-3.2 4.1 0.2 5.7 1.2 5.7 3 0.6-0.9 3.6-1.5 5 0.2-2.3-0.4-3.4 0.4-2.3 1.1 0.8 0.5 2.6 0.8 4.1 0.3 1.3-0.4 2.2-1.4 0.7-3.2-0.7 0.3-1 0.8-1.3 1.4l-3.2-2.6c1.6 0.4 3 0.6 3.9 0.6-0.6-0.5-1.3-0.8-3.1-1.3l3.9-0.8c0.6 1.5 2 3.4 5.9 6.1-4.9 1.6-10 3.4-15.1 5.6z"/>
<path class="cls-7" d="M445.9,152.8c.4,0,.8.1,1.2.1,1.2,0,2.4-.3,2.9-.8.2-.2.3-.4.3-.6v-.4.4-1.2.4-.4.2-1.6.2-3.5h0c0-.1,0-.2,0-.2,0,0,0,0,0-.1,0,0,0,0,0-.1-.3-.4-.9-.7-1.8-.9-1.6-.3-3.4,0-4,.7-.2.2-.3.5-.3.7h0v5.9c0,.6.8,1.1,2,1.3h0ZM444.3,145c.6-.6,2.4-.9,3.9-.7,1.5.3,2.2,1,1.6,1.6-.6.6-2.4,1-3.9.7-1.5-.3-2.3-1-1.6-1.7h0Z"/>
<path class="cls-7" d="m432.3 146.4-4.5-1.9-1.9 1.5h-0.5l-2.3-1.9-4.4 1.9v5.9l0.9 0.2v1.7l1.7 0.7v0.2h-0.4c-0.9 0.2-1.5 0.5-1.8 0.9v0.1 0.2 5.9c0 0.2 0 0.4 0.3 0.6 0.3 0.3 0.9 0.6 1.6 0.7v1.4s0 0 0 0v1.1c0 0.3 0 0.5 0.3 0.7 0.7 0.7 2.5 1 4 0.7 0.8-0.1 1.4-0.4 1.7-0.7v2.8h0.3c4.3 0.3 8.9 1.1 14.3 2.5h0.1c3.8-2.2 8.2-4.3 13.2-6.4s10-4 15.1-5.6h0.3v-6l-0.2-0.2c-3.3-2.3-5.2-4.2-5.9-6 0-0.1-4.5 0.8-4.5 0.8v-2-0.3-0.1s0 0 0-0.1c-0.3-0.4-0.9-0.7-1.8-0.9-1.6-0.3-3.4 0-4 0.7-0.2 0.2-0.3 0.5-0.3 0.7v2.8c-0.7-0.1-1.6-0.3-2.6-0.3h-0.1c0 0.4-0.1 0.6-0.1 0.8v4l-1.3-0.6v0.3c0 1-0.7 1.5-1.9 2.1-0.8-0.7-1-2.3-1-2.4v-0.2s-4.3 1.8-4.3 1.8v-2-0.3c0-0.3-0.4-0.5-0.7-0.7s0 0 0 0v-7.2-0.2s0-0.1-0.1-0.2c-0.3-0.4-0.9-0.7-1.8-0.9-1.6-0.3-3.4 0-4 0.7-0.2 0.2-0.3 0.5-0.3 0.6v2.1h-0.2c-0.3-0.1-0.5-0.2-0.9-0.3l-1.6-0.3m26.9 2.6zm-5.9-2.6c0.6-0.6 2.4-0.9 3.9-0.7s2.2 1 1.6 1.6c-0.6 0.7-2.4 1-3.9 0.7s-2.3-1-1.6-1.7zm-12.1 7.2c-0.6 0.7-2.4 1-3.9 0.7s-2.3-1-1.6-1.7c0.6-0.6 2.4-0.9 3.9-0.7s2.2 1 1.6 1.6zm-6.3-7c0.6-0.6 2.4-0.9 3.9-0.7s2.2 1 1.6 1.6-2.4 1-3.9 0.7-2.3-1-1.6-1.7zm-15.2 1.8 3.5-0.8v-0.2s-4.5-1-4.5-1l3.9-1.6 2.3 1.9h0.5l1.8-1.5 4 1.7-4.1 0.5v0.2l6.2 1.3c0.3 0 0.6 0.2 0.8 0.3 1.3 0.5 1.4 1.4 0.3 2 0 0-0.2 0.1-0.3 0.1s-0.2 0-0.3 0.1c-1.4 0.4-3.4 0.4-4.6-0.1-0.3-0.1-0.5-0.2-0.6-0.4s0 0 0 0l-3.1-2.6h-0.5l-1.3 1.7-4-1.7zm5.6 5.6c-1.5 0.3-3.3 0-3.9-0.7-0.6-0.6 0-1.4 1.6-1.7 1.5-0.3 3.3 0 3.9 0.7s0 1.4-1.6 1.7zm-6.2 3.2c-0.6-0.6 0-1.4 1.6-1.7 1.5-0.3 3.3 0 3.9 0.7s0 1.4-1.6 1.7c-1.5 0.3-3.3 0-3.9-0.7zm5.7 4.6c-1.5 0.3-3.3 0-3.9-0.7-0.6-0.6 0-1.4 1.6-1.7 1.5-0.3 3.3 0 3.9 0.7s0 1.4-1.6 1.7zm2 1.9v-0.2 0 0 0 0 0 0 0 0 0-0.7 0.2-0.3 0.2-0.3 0.2-0.3 0.2-0.3 0.2-0.3 0.2-0.3 0.2-0.3 0.2-0.3 0.2-0.3 0.2-0.3 0.2-0.3 0.2-1.4c0-0.2 0-0.4-0.3-0.6 0 0-0.2-0.2-0.3-0.2 0.6-0.3 1-0.6 1-1.1v-1.4 0.2-0.2 0.2-0.2 0.2-0.2 0.2-0.2 0.2-0.2 0.2-0.2 0.2-0.2 0.2-0.2 0.2-0.2 0.2-0.2 0.2-0.2 0.2-1l1.3 1.1s0 0 0 0c0.2 0.1 0.4 0.2 0.6 0.4 1.1 0.4 2.6 0.6 3.9 0.3l2.1 0.6c-1.2-0.3-2.8-0.5-5.2-0.4h-0.2v4.6c-0.3-0.2-0.6-0.4-1-0.6l-1.9 1.6zm27.6-3.8c-5.1 2.2-9.5 4.3-13.2 6.4-6.3-1.6-10.7-2.3-14.3-2.5l1.9-1.7c1.2 0.7 1.8 1.1 3.1 1.3 0-0.4-0.4-0.9-1.4-1.7l6 1.4c-1.4 0.1-2.5 0.2-3.2 0.5 4.2 0.6 6.6 0.3 7.5-0.3 1.1-0.7 0.5-1.4-0.7-1.8-1.7-0.5-3.5 0-2.5 1-3.9-0.6-2.5-1.8-0.4-2.1-4.3 0-6.5-0.7-7-2.4 4.3-0.2 6.1 0.5 7.6 2.1-0.2-1.3 2.9-1.9 4.7-0.4-2.6-0.2-3 0.8-1.2 1.3 1.5 0.5 4.3 0.2 6.2-0.8 2.8-1.4 0.9-2.4-0.8-3.2-0.9 0.3-1.6 1.1-1.1 2.3l-5.4-1.9c2.6 0 4-0.4 5.3-0.9-1.8-0.4-5.9-0.5-5.9-0.5l3.3-1.4 2.9-1.2s0.2 1.8 1.1 2.5c1.2-0.6 2.1-1.2 2.1-2.3l4.5 2.3c-2.8-0.2-4.9 0-5.5 0.5 1.8 0.7 4.2 1.5 7.5 0.4 2.3-0.8 3-2 1.9-2.6-1.3-0.7-3.6-0.6-3.1 0.5-3.4-0.8-2.1-2.1 1-2-3.7-0.6-5.5-1.4-4.9-3.2 4.1 0.2 5.7 1.2 5.7 3 0.6-0.9 3.6-1.5 5 0.2-2.3-0.4-3.4 0.4-2.3 1.1 0.8 0.5 2.6 0.8 4.1 0.3 1.3-0.4 2.2-1.4 0.7-3.2-0.7 0.3-1 0.8-1.3 1.4l-3.2-2.6c1.6 0.4 3 0.6 3.9 0.6-0.6-0.5-1.3-0.8-3.1-1.3l3.9-0.8c0.6 1.5 2 3.4 5.9 6.1-4.9 1.6-10 3.4-15.1 5.6z"/>
<polygon class="cls-2" points="438.4 101.7 184.3 209.7 184.3 239.4 247.8 266.3 501.9 158.4 501.9 128.7"/>
<path class="cls-7" d="m438.4 101.7-254.1 108v29.7l63.5 27 254.1-108v-29.7l-63.5-27zm0 0.2 63.1 26.8-253.6 107.8-63.1-26.8 253.6-107.8zm-190.8 164.2-63.2-26.8v-29.3l63.2 26.8v29.3zm254.2-107.8-253.8 107.8v-29.3l253.8-107.8v29.3z"/>
<path class="cls-7" d="M255.4,204.1c.4,0,.8.1,1.2.1,1.2,0,2.4-.3,2.9-.8.2-.2.3-.4.3-.6v-.4.4-1.2.4-.4.2-1.6.2-3.5h0c0-.1,0-.2,0-.2,0,0,0,0,0-.1,0,0,0,0,0-.1-.3-.4-.9-.7-1.8-.9-1.6-.3-3.4,0-4.1.7-.2.2-.3.5-.3.7h0v5.9c0,.6.8,1.1,2,1.3h0ZM253.8,196.4c.6-.6,2.4-.9,3.9-.7,1.5.3,2.2,1,1.6,1.6-.6.6-2.4,1-3.9.7-1.5-.3-2.3-1-1.6-1.7h0Z"/>
<path class="cls-7" d="m241.7 197.7-4.5-1.9-1.9 1.5h-0.4l-2.3-1.9-4.4 1.9v5.9l0.9 0.2v1.7l1.7 0.7v0.2h-0.4c-0.9 0.2-1.5 0.5-1.8 0.9v0.1 0.2 5.9c0 0.2 0 0.4 0.3 0.6 0.3 0.3 0.9 0.6 1.6 0.7v1.4s0 0 0 0v1.1c0 0.3 0 0.5 0.3 0.7 0.7 0.7 2.5 1 4 0.7 0.8-0.1 1.4-0.4 1.7-0.7v2.8h0.3c4.3 0.3 8.9 1.1 14.3 2.5h0.1c3.8-2.2 8.2-4.3 13.2-6.4s10-4 15.1-5.6h0.3v-6l-0.2-0.2c-3.3-2.3-5.2-4.2-5.9-6 0-0.1-4.5 0.8-4.5 0.8v-2-0.3-0.1s0 0 0-0.1c-0.3-0.4-0.9-0.7-1.8-0.9-1.6-0.3-3.4 0-4 0.7-0.2 0.2-0.3 0.5-0.3 0.7v2.8c-0.7-0.1-1.6-0.3-2.6-0.3h-0.1c0 0.4-0.1 0.6-0.1 0.8v4l-1.3-0.6v0.3c0 1-0.7 1.5-1.9 2.1-0.8-0.7-1-2.3-1-2.4v-0.2s-4.3 1.8-4.3 1.8v-2-0.3c0-0.3-0.4-0.5-0.7-0.7s0 0 0 0v-7.2-0.2s0-0.1-0.1-0.2c-0.3-0.4-0.9-0.7-1.8-0.9-1.6-0.3-3.4 0-4.1 0.7-0.2 0.2-0.3 0.5-0.3 0.6v2.1h-0.2c-0.3-0.1-0.6-0.2-0.9-0.3l-1.6-0.3m26.9 2.7zm-5.9-2.7c0.6-0.6 2.4-0.9 3.9-0.7s2.2 1 1.6 1.6c-0.6 0.7-2.4 1-3.9 0.7s-2.3-1-1.6-1.7zm-12.1 7.3c-0.6 0.7-2.4 1-3.9 0.7s-2.3-1-1.6-1.7c0.6-0.6 2.4-0.9 3.9-0.7s2.2 1 1.6 1.6zm-6.3-7.1c0.6-0.6 2.4-0.9 3.9-0.7s2.2 1 1.6 1.6-2.4 1-3.9 0.7-2.3-1-1.6-1.7zm-15.1 1.9 3.5-0.8v-0.2s-4.5-1-4.5-1l3.9-1.6 2.3 1.9h0.6l1.8-1.5 3.9 1.7-4.1 0.5v0.2l6.2 1.3c0.3 0 0.6 0.2 0.8 0.3 1.3 0.5 1.4 1.4 0.3 2 0 0-0.2 0.1-0.3 0.1s-0.2 0-0.3 0.1c-1.4 0.4-3.4 0.4-4.6-0.1-0.3-0.1-0.5-0.2-0.6-0.4s0 0 0 0l-3.1-2.6h-0.6l-1.3 1.7-3.9-1.7zm5.5 5.5c-1.5 0.3-3.3 0-3.9-0.7-0.6-0.6 0-1.4 1.6-1.7 1.5-0.3 3.3 0 3.9 0.7s0 1.4-1.6 1.7zm-6.2 3.2c-0.6-0.6 0-1.4 1.6-1.7 1.5-0.3 3.3 0 3.9 0.7s0 1.4-1.6 1.7c-1.5 0.3-3.3 0-3.9-0.7zm5.7 4.7c-1.5 0.3-3.3 0-3.9-0.7-0.6-0.6 0-1.4 1.6-1.7 1.5-0.3 3.3 0 3.9 0.7s0 1.4-1.6 1.7zm2 1.9v-0.2 0 0 0 0 0 0 0 0 0-0.7 0.2-0.3 0.2-0.3 0.2-0.3 0.2-0.3 0.2-0.3 0.2-0.3 0.2-0.3 0.2-0.3 0.2-0.3 0.2-0.3 0.2-0.3 0.2-1.4c0-0.2 0-0.4-0.3-0.6 0 0-0.2-0.2-0.3-0.2 0.6-0.3 1-0.6 1-1.1v-1.4 0.2-0.2 0.2-0.2 0.2-0.2 0.2-0.2 0.2-0.2 0.2-0.2 0.2-0.2 0.2-0.2 0.2-0.2 0.2-0.2 0.2-0.2 0.2-1l1.3 1.1s0 0 0 0c0.2 0.1 0.4 0.2 0.6 0.4 1.1 0.4 2.6 0.6 3.9 0.3l2.1 0.6c-1.2-0.3-2.8-0.5-5.2-0.4h-0.2v4.6c-0.3-0.2-0.6-0.4-1-0.6l-1.9 1.6zm27.7-3.8c-5.1 2.2-9.5 4.3-13.2 6.4-6.3-1.6-10.7-2.3-14.3-2.5l1.9-1.7c1.2 0.7 1.8 1.1 3.1 1.3 0-0.4-0.4-0.9-1.4-1.7l6 1.4c-1.4 0.1-2.5 0.2-3.2 0.5 4.2 0.6 6.6 0.3 7.4-0.3 1.1-0.7 0.5-1.4-0.7-1.8-1.7-0.5-3.5 0-2.6 1-3.9-0.6-2.6-1.8-0.4-2.1-4.3 0-6.5-0.7-7.1-2.4 4.3-0.2 6.1 0.5 7.6 2.1-0.2-1.3 2.9-1.9 4.7-0.4-2.6-0.2-3 0.8-1.2 1.3 1.5 0.5 4.3 0.2 6.2-0.8 2.8-1.4 0.9-2.4-0.8-3.2-0.9 0.3-1.6 1.1-1.1 2.3l-5.4-1.9c2.6 0 4-0.4 5.3-0.9-1.8-0.4-5.9-0.5-5.9-0.5l3.3-1.4 2.9-1.2s0.2 1.8 1.1 2.5c1.2-0.6 2.1-1.2 2.1-2.3l4.5 2.3c-2.8-0.2-4.9 0-5.5 0.5 1.8 0.7 4.2 1.5 7.5 0.4 2.3-0.8 3-2 1.9-2.6-1.3-0.7-3.6-0.6-3.1 0.5-3.4-0.8-2.1-2.1 1-2-3.7-0.6-5.5-1.4-4.9-3.2 4.1 0.2 5.7 1.2 5.7 3 0.6-0.9 3.6-1.5 5 0.2-2.3-0.4-3.4 0.4-2.3 1.1 0.8 0.5 2.6 0.8 4.1 0.3 1.3-0.4 2.2-1.4 0.7-3.2-0.7 0.3-1 0.8-1.3 1.4l-3.2-2.6c1.6 0.4 3 0.6 3.9 0.6-0.6-0.5-1.3-0.8-3.1-1.3l3.9-0.8c0.6 1.5 2 3.4 5.9 6.1-4.9 1.6-10 3.4-15.1 5.6z"/>
<path class="cls-7" d="M318.9,177.1c.4,0,.8.1,1.2.1,1.2,0,2.4-.3,2.9-.8.2-.2.3-.4.3-.6v-.4.4-1.2.4-.4.2-1.6.2-3.5h0c0-.1,0-.2,0-.2,0,0,0,0,0-.1,0,0,0,0,0-.1-.3-.4-.9-.7-1.8-.9-1.6-.3-3.4,0-4,.7-.2.2-.3.5-.3.7h0v5.9c0,.6.8,1.1,2,1.3h0ZM317.3,169.4c.6-.6,2.4-.9,3.9-.7,1.5.3,2.2,1,1.6,1.6-.6.6-2.4,1-3.9.7-1.5-.3-2.3-1-1.6-1.7h0Z"/>
<path class="cls-7" d="m305.2 170.7-4.5-1.9-1.9 1.5h-0.5l-2.3-1.9-4.4 1.9v5.9l0.9 0.2v1.7l1.7 0.7v0.2h-0.4c-0.9 0.2-1.5 0.5-1.8 0.9v0.1 0.2 5.9c0 0.2 0 0.4 0.3 0.6 0.3 0.3 0.9 0.6 1.6 0.7v1.4s0 0 0 0v1.1c0 0.3 0 0.5 0.3 0.7 0.7 0.7 2.5 1 4 0.7 0.8-0.1 1.4-0.4 1.7-0.7v2.8h0.3c4.3 0.3 8.9 1.1 14.3 2.5h0.1c3.8-2.2 8.2-4.3 13.2-6.4s10-4 15.1-5.6h0.3v-6l-0.2-0.2c-3.3-2.3-5.2-4.2-5.9-6 0-0.1-4.5 0.8-4.5 0.8v-2-0.3-0.1s0 0 0-0.1c-0.3-0.4-0.9-0.7-1.8-0.9-1.6-0.3-3.4 0-4 0.7-0.2 0.2-0.3 0.5-0.3 0.7v2.8c-0.7-0.1-1.6-0.3-2.6-0.3h-0.1c0 0.4-0.1 0.6-0.1 0.8v4l-1.3-0.6v0.3c0 1-0.7 1.5-1.9 2.1-0.8-0.7-1-2.3-1-2.4v-0.2s-4.3 1.8-4.3 1.8v-2-0.3c0-0.3-0.4-0.5-0.7-0.7s0 0 0 0v-7.2-0.2s0-0.1-0.1-0.2c-0.3-0.4-0.9-0.7-1.8-0.9-1.6-0.3-3.4 0-4 0.7-0.2 0.2-0.3 0.5-0.3 0.6v2.1h-0.2c-0.3-0.1-0.5-0.2-0.9-0.3l-1.6-0.3m27 2.7zm-5.9-2.7c0.6-0.6 2.4-0.9 3.9-0.7s2.2 1 1.6 1.6c-0.6 0.7-2.4 1-3.9 0.7s-2.3-1-1.6-1.7zm-12.2 7.3c-0.6 0.7-2.4 1-3.9 0.7s-2.3-1-1.6-1.7c0.6-0.6 2.4-0.9 3.9-0.7s2.2 1 1.6 1.6zm-6.3-7.1c0.6-0.6 2.4-0.9 3.9-0.7s2.2 1 1.6 1.6-2.4 1-3.9 0.7-2.3-1-1.6-1.7zm-15.1 1.9 3.5-0.8v-0.2s-4.5-1-4.5-1l3.9-1.6 2.3 1.9h0.5l1.8-1.5 4 1.7-4.1 0.5v0.2l6.2 1.3c0.3 0 0.6 0.2 0.8 0.3 1.3 0.5 1.4 1.4 0.3 2 0 0-0.2 0.1-0.3 0.1s-0.2 0-0.3 0.1c-1.4 0.4-3.4 0.4-4.6-0.1-0.3-0.1-0.5-0.2-0.6-0.4s0 0 0 0l-3.1-2.6h-0.5l-1.3 1.7-4-1.7zm5.5 5.6c-1.5 0.3-3.3 0-3.9-0.7-0.6-0.6 0-1.4 1.6-1.7 1.5-0.3 3.3 0 3.9 0.7s0 1.4-1.6 1.7zm-6.2 3.1c-0.6-0.6 0-1.4 1.6-1.7 1.5-0.3 3.3 0 3.9 0.7s0 1.4-1.6 1.7c-1.5 0.3-3.3 0-3.9-0.7zm5.8 4.7c-1.5 0.3-3.3 0-3.9-0.7-0.6-0.6 0-1.4 1.6-1.7 1.5-0.3 3.3 0 3.9 0.7s0 1.4-1.6 1.7zm2 1.9v-0.2 0 0 0 0 0 0 0 0 0-0.7 0.2-0.3 0.2-0.3 0.2-0.3 0.2-0.3 0.2-0.3 0.2-0.3 0.2-0.3 0.2-0.3 0.2-0.3 0.2-0.3 0.2-0.3 0.2-1.4c0-0.2 0-0.4-0.3-0.6 0 0-0.2-0.2-0.3-0.2 0.6-0.3 1-0.6 1-1.1v-1.4 0.2-0.2 0.2-0.2 0.2-0.2 0.2-0.2 0.2-0.2 0.2-0.2 0.2-0.2 0.2-0.2 0.2-0.2 0.2-0.2 0.2-0.2 0.2-1l1.3 1.1s0 0 0 0c0.2 0.1 0.4 0.2 0.6 0.4 1.1 0.4 2.6 0.6 3.9 0.3l2.1 0.6c-1.2-0.3-2.8-0.5-5.2-0.4h-0.2v4.6c-0.3-0.2-0.6-0.4-1-0.6l-1.9 1.6zm27.6-3.8c-5.1 2.2-9.5 4.3-13.2 6.4-6.3-1.6-10.7-2.3-14.3-2.5l1.9-1.7c1.2 0.7 1.8 1.1 3.1 1.3 0-0.4-0.4-0.9-1.4-1.7l6 1.4c-1.4 0.1-2.5 0.2-3.2 0.5 4.2 0.6 6.6 0.3 7.5-0.3 1.1-0.7 0.5-1.4-0.7-1.8-1.7-0.5-3.5 0-2.5 1-3.9-0.6-2.5-1.8-0.4-2.1-4.3 0-6.5-0.7-7-2.4 4.3-0.2 6.1 0.5 7.6 2.1-0.2-1.3 2.9-1.9 4.7-0.4-2.6-0.2-3 0.8-1.2 1.3 1.5 0.5 4.3 0.2 6.2-0.8 2.8-1.4 0.9-2.4-0.8-3.2-0.9 0.3-1.6 1.1-1.1 2.3l-5.4-1.9c2.6 0 4-0.4 5.3-0.9-1.8-0.4-5.9-0.5-5.9-0.5l3.3-1.4 2.9-1.2s0.2 1.8 1.1 2.5c1.2-0.6 2.1-1.2 2.1-2.3l4.5 2.3c-2.8-0.2-4.9 0-5.5 0.5 1.8 0.7 4.2 1.5 7.5 0.4 2.3-0.8 3-2 1.9-2.6-1.3-0.7-3.6-0.6-3.1 0.5-3.4-0.8-2.1-2.1 1-2-3.7-0.6-5.5-1.4-4.9-3.2 4.1 0.2 5.7 1.2 5.7 3 0.6-0.9 3.6-1.5 5 0.2-2.3-0.4-3.4 0.4-2.3 1.1 0.8 0.5 2.6 0.8 4.1 0.3 1.3-0.4 2.2-1.4 0.7-3.2-0.7 0.3-1 0.8-1.3 1.4l-3.2-2.6c1.6 0.4 3 0.6 3.9 0.6-0.6-0.5-1.3-0.8-3.1-1.3l3.9-0.8c0.6 1.5 2 3.4 5.9 6.1-4.9 1.6-10 3.4-15.1 5.6z"/>
<path class="cls-7" d="M382.4,150.1c.4,0,.8.1,1.2.1,1.2,0,2.4-.3,2.9-.8.2-.2.3-.4.3-.6v-.4.4-1.2.4-.4.2-1.6.2-3.5h0c0-.1,0-.2,0-.2,0,0,0,0,0-.1,0,0,0,0,0-.1-.3-.4-.9-.7-1.8-.9-1.6-.3-3.4,0-4,.7-.2.2-.3.5-.3.7h0v5.9c0,.6.8,1.1,2,1.3h0ZM380.8,142.4c.6-.6,2.4-.9,3.9-.7,1.5.3,2.2,1,1.6,1.6-.6.6-2.4,1-3.9.7-1.5-.3-2.3-1-1.6-1.7h0Z"/>
<path class="cls-7" d="m368.8 143.7-4.5-1.9-1.9 1.5h-0.5l-2.3-1.9-4.4 1.9v5.9l0.9 0.2v1.7l1.7 0.7v0.2h-0.4c-0.9 0.2-1.5 0.5-1.8 0.9v0.1 0.2 5.9c0 0.2 0 0.4 0.3 0.6 0.3 0.3 0.9 0.6 1.6 0.7v1.4s0 0 0 0v1.1c0 0.3 0 0.5 0.3 0.7 0.7 0.7 2.5 1 4 0.7 0.8-0.1 1.4-0.4 1.7-0.7v2.8h0.3c4.3 0.3 8.9 1.1 14.3 2.5h0.1c3.8-2.2 8.2-4.3 13.2-6.4s10-4 15.1-5.6h0.3v-6l-0.2-0.2c-3.3-2.3-5.2-4.2-5.9-6 0-0.1-4.5 0.8-4.5 0.8v-2-0.3-0.1s0 0 0-0.1c-0.3-0.4-0.9-0.7-1.8-0.9-1.6-0.3-3.4 0-4 0.7-0.2 0.2-0.3 0.5-0.3 0.7v2.8c-0.7-0.1-1.6-0.3-2.6-0.3h-0.1c0 0.4-0.1 0.6-0.1 0.8v4l-1.3-0.6v0.3c0 1-0.7 1.5-1.9 2.1-0.8-0.7-1-2.3-1-2.4v-0.2s-4.3 1.8-4.3 1.8v-2-0.3c0-0.3-0.4-0.5-0.7-0.7s0 0 0 0v-7.2-0.2s0-0.1-0.1-0.2c-0.3-0.4-0.9-0.7-1.8-0.9-1.6-0.3-3.4 0-4 0.7-0.2 0.2-0.3 0.5-0.3 0.6v2.1h-0.2c-0.3-0.1-0.5-0.2-0.9-0.3l-1.6-0.3m26.9 2.7zm-5.9-2.6c0.6-0.6 2.4-0.9 3.9-0.7s2.2 1 1.6 1.6c-0.6 0.7-2.4 1-3.9 0.7s-2.3-1-1.6-1.7zm-12.1 7.2c-0.6 0.7-2.4 1-3.9 0.7s-2.3-1-1.6-1.7c0.6-0.6 2.4-0.9 3.9-0.7s2.2 1 1.6 1.6zm-6.3-7c0.6-0.6 2.4-0.9 3.9-0.7s2.2 1 1.6 1.6-2.4 1-3.9 0.7-2.3-1-1.6-1.7zm-15.2 1.8 3.5-0.8v-0.2s-4.5-1-4.5-1l3.9-1.6 2.3 1.9h0.5l1.8-1.5 4 1.7-4.1 0.5v0.2l6.2 1.3c0.3 0 0.6 0.2 0.8 0.3 1.3 0.5 1.4 1.4 0.3 2 0 0-0.2 0.1-0.3 0.1s-0.2 0-0.3 0.1c-1.4 0.4-3.4 0.4-4.6-0.1-0.3-0.1-0.5-0.2-0.6-0.4s0 0 0 0l-3.1-2.6h-0.5l-1.3 1.7-4-1.7zm5.6 5.6c-1.5 0.3-3.3 0-3.9-0.7-0.6-0.6 0-1.4 1.6-1.7 1.5-0.3 3.3 0 3.9 0.7s0 1.4-1.6 1.7zm-6.2 3.1c-0.6-0.6 0-1.4 1.6-1.7 1.5-0.3 3.3 0 3.9 0.7s0 1.4-1.6 1.7c-1.5 0.3-3.3 0-3.9-0.7zm5.7 4.7c-1.5 0.3-3.3 0-3.9-0.7-0.6-0.6 0-1.4 1.6-1.7 1.5-0.3 3.3 0 3.9 0.7s0 1.4-1.6 1.7zm2 1.9v-0.2 0 0 0 0 0 0 0 0 0-0.7 0.2-0.3 0.2-0.3 0.2-0.3 0.2-0.3 0.2-0.3 0.2-0.3 0.2-0.3 0.2-0.3 0.2-0.3 0.2-0.3 0.2-0.3 0.2-1.4c0-0.2 0-0.4-0.3-0.6 0 0-0.2-0.2-0.3-0.2 0.6-0.3 1-0.6 1-1.1v-1.4 0.2-0.2 0.2-0.2 0.2-0.2 0.2-0.2 0.2-0.2 0.2-0.2 0.2-0.2 0.2-0.2 0.2-0.2 0.2-0.2 0.2-0.2 0.2-1l1.3 1.1s0 0 0 0c0.2 0.1 0.4 0.2 0.6 0.4 1.1 0.4 2.6 0.6 3.9 0.3l2.1 0.6c-1.2-0.3-2.8-0.5-5.2-0.4h-0.2v4.6c-0.3-0.2-0.6-0.4-1-0.6l-1.9 1.6zm27.6-3.8c-5.1 2.2-9.5 4.3-13.2 6.4-6.3-1.6-10.7-2.3-14.3-2.5l1.9-1.7c1.2 0.7 1.8 1.1 3.1 1.3 0-0.4-0.4-0.9-1.4-1.7l6 1.4c-1.4 0.1-2.5 0.2-3.2 0.5 4.2 0.6 6.6 0.3 7.5-0.3 1.1-0.7 0.5-1.4-0.7-1.8-1.7-0.5-3.5 0-2.5 1-3.9-0.6-2.5-1.8-0.4-2.1-4.3 0-6.5-0.7-7-2.4 4.3-0.2 6.1 0.5 7.6 2.1-0.2-1.3 2.9-1.9 4.7-0.4-2.6-0.2-3 0.8-1.2 1.3 1.5 0.5 4.3 0.2 6.2-0.8 2.8-1.4 0.9-2.4-0.8-3.2-0.9 0.3-1.6 1.1-1.1 2.3l-5.4-1.9c2.6 0 4-0.4 5.3-0.9-1.8-0.4-5.9-0.5-5.9-0.5l3.3-1.4 2.9-1.2s0.2 1.8 1.1 2.5c1.2-0.6 2.1-1.2 2.1-2.3l4.5 2.3c-2.8-0.2-4.9 0-5.5 0.5 1.8 0.7 4.2 1.5 7.5 0.4 2.3-0.8 3-2 1.9-2.6-1.3-0.7-3.6-0.6-3.1 0.5-3.4-0.8-2.1-2.1 1-2-3.7-0.6-5.5-1.4-4.9-3.2 4.1 0.2 5.7 1.2 5.7 3 0.6-0.9 3.6-1.5 5 0.2-2.3-0.4-3.4 0.4-2.3 1.1 0.8 0.5 2.6 0.8 4.1 0.3 1.3-0.4 2.2-1.4 0.7-3.2-0.7 0.3-1 0.8-1.3 1.4l-3.2-2.6c1.6 0.4 3 0.6 3.9 0.6-0.6-0.5-1.3-0.8-3.1-1.3l3.9-0.8c0.6 1.5 2 3.4 5.9 6.1-4.9 1.6-10 3.4-15.1 5.6z"/>
<path class="cls-7" d="m446 123.2h1.2c1.2 0 2.4-0.3 2.9-0.8 0.2-0.2 0.3-0.4 0.3-0.6v-0.4 0.3-1.2 0.4-0.4 0.2-1.6 0.2-3.5-0.2-0.1-0.1c-0.3-0.4-0.9-0.7-1.8-0.9-1.6-0.3-3.4 0-4 0.7-0.2 0.2-0.3 0.5-0.3 0.7v5.9c0 0.6 0.8 1.1 2 1.3zm-1.6-7.8c0.6-0.6 2.4-0.9 3.9-0.7 1.5 0.3 2.2 1 1.6 1.7s-2.4 1-3.9 0.7-2.3-1-1.6-1.7z"/>
<path class="cls-7" d="m432.3 116.7-4.5-1.9-1.9 1.5h-0.5l-2.3-1.9-4.4 1.9v5.9l0.9 0.2v1.7l1.7 0.7v0.2h-0.4c-0.9 0.2-1.5 0.5-1.8 0.9v0.2 0.2 5.9c0 0.2 0 0.4 0.3 0.6 0.3 0.3 0.9 0.6 1.6 0.7v1.4s0 0 0 0v1.1c0 0.3 0 0.5 0.3 0.7 0.7 0.7 2.5 1 4 0.7 0.8-0.1 1.4-0.4 1.7-0.7v2.8h0.3c4.3 0.3 8.9 1.1 14.3 2.5h0.1c3.8-2.2 8.2-4.3 13.2-6.4s10-4 15.1-5.6h0.3v-6l-0.2-0.2c-3.3-2.3-5.2-4.2-5.9-6 0-0.1-4.5 0.8-4.5 0.8v-2-0.3-0.1s0 0 0-0.1c-0.3-0.4-0.9-0.7-1.8-0.9-1.6-0.3-3.4 0-4 0.7-0.2 0.2-0.3 0.5-0.3 0.7v2.8c-0.7-0.2-1.6-0.3-2.6-0.3h-0.1c0 0.3-0.1 0.6-0.1 0.8v4l-1.3-0.7v0.3c0 1-0.7 1.5-1.9 2.1-0.8-0.7-1-2.3-1-2.3v-0.2s-4.3 1.8-4.3 1.8v-2-0.2c0-0.3-0.4-0.5-0.7-0.7s0 0 0 0v-7.2-0.2s0-0.1-0.1-0.2c-0.3-0.4-0.9-0.7-1.8-0.8-1.6-0.3-3.4 0-4 0.7-0.2 0.2-0.3 0.5-0.3 0.7v2.1h-0.2c-0.3-0.1-0.5-0.2-0.9-0.3l-1.6-0.3m26.9 2.3zm-5.9-2.6c0.6-0.6 2.4-0.9 3.9-0.7s2.2 1 1.6 1.7-2.4 1-3.9 0.7-2.3-1-1.6-1.7zm-12.1 7.2c-0.6 0.7-2.4 1-3.9 0.7s-2.3-1-1.6-1.7c0.6-0.6 2.4-0.9 3.9-0.7s2.2 1 1.6 1.7zm-6.3-7c0.6-0.6 2.4-0.9 3.9-0.7s2.2 1 1.6 1.7-2.4 1-3.9 0.7-2.3-1-1.6-1.7zm-15.1 1.8 3.5-0.8v-0.2s-4.5-1-4.5-1l3.9-1.6 2.3 1.9h0.5l1.8-1.5 4 1.7-4.1 0.5v0.2l6.2 1.3c0.3 0 0.6 0.2 0.8 0.3 1.3 0.5 1.4 1.4 0.3 2 0 0-0.2 0-0.3 0.1-0.1 0-0.2 0-0.3 0.1-1.4 0.4-3.4 0.4-4.6-0.1-0.3-0.1-0.5-0.2-0.6-0.4s0 0 0 0l-3.1-2.6h-0.5l-1.3 1.7-4-1.7zm5.5 5.6c-1.5 0.3-3.3 0-3.9-0.7s0-1.4 1.6-1.7c1.5-0.3 3.3 0 3.9 0.7s0 1.4-1.6 1.7zm-6.2 3.1c-0.6-0.7 0-1.4 1.6-1.7 1.5-0.3 3.3 0 3.9 0.7s0 1.4-1.6 1.7c-1.5 0.3-3.3 0-3.9-0.7zm5.7 4.7c-1.5 0.3-3.3 0-3.9-0.7-0.6-0.6 0-1.4 1.6-1.7 1.5-0.3 3.3 0 3.9 0.7s0 1.4-1.6 1.7zm2 1.9v-0.2 0 0 0 0 0 0 0 0 0-0.7 0.2-0.3 0.2-0.3 0.2-0.3 0.2-0.3 0.2-0.3 0.2-0.3 0.2-0.3 0.2-0.3 0.2-0.3 0.2-0.3 0.2-0.3 0.2-1.4c0-0.2 0-0.4-0.3-0.6 0 0-0.2-0.2-0.3-0.2 0.6-0.3 1-0.6 1-1.1v-1.4 0.2-0.2 0.2-0.2 0.2-0.2 0.2-0.2 0.2-0.2 0.2-0.2 0.2-0.2 0.2-0.2 0.2-0.2 0.2-0.2 0.2-0.2 0.2-1l1.3 1.1s0 0 0 0l0.6 0.3c1.1 0.4 2.6 0.6 3.9 0.3l2.1 0.6c-1.2-0.3-2.8-0.5-5.2-0.4h-0.2v4.6c-0.3-0.2-0.6-0.4-1-0.6l-1.9 1.6zm27.6-3.8c-5.1 2.2-9.5 4.3-13.2 6.4-6.3-1.6-10.7-2.3-14.3-2.5l1.9-1.7c1.2 0.7 1.8 1.1 3.1 1.3 0-0.4-0.4-0.9-1.4-1.7l6 1.4c-1.4 0.1-2.5 0.2-3.2 0.5 4.2 0.6 6.6 0.3 7.5-0.3 1.1-0.7 0.5-1.4-0.7-1.8-1.7-0.5-3.5 0-2.5 1-3.9-0.6-2.5-1.8-0.4-2.1-4.3 0-6.5-0.7-7-2.4 4.3-0.2 6.1 0.5 7.6 2.1-0.2-1.3 2.9-1.9 4.7-0.4-2.6-0.2-3 0.8-1.2 1.3 1.5 0.5 4.3 0.2 6.2-0.8 2.8-1.4 0.9-2.4-0.8-3.2-0.9 0.3-1.6 1.1-1.1 2.3l-5.4-1.9c2.6 0 4-0.4 5.3-0.9-1.8-0.4-5.9-0.5-5.9-0.5l3.3-1.4 2.9-1.2s0.2 1.8 1.1 2.5c1.2-0.6 2.1-1.2 2.1-2.3l4.5 2.3c-2.8-0.2-4.9 0-5.5 0.5 1.8 0.7 4.2 1.5 7.5 0.3 2.3-0.8 3-2 1.9-2.7-1.3-0.7-3.6-0.6-3.1 0.5-3.4-0.8-2.1-2.1 1-2-3.7-0.6-5.5-1.4-4.9-3.2 4.1 0.2 5.7 1.2 5.7 3 0.6-0.9 3.6-1.5 5 0.2-2.3-0.4-3.4 0.4-2.3 1.1 0.8 0.5 2.6 0.8 4.1 0.3 1.3-0.4 2.2-1.4 0.7-3.2-0.7 0.3-1 0.8-1.3 1.4l-3.2-2.6c1.6 0.4 3 0.6 3.9 0.6-0.6-0.5-1.3-0.8-3.1-1.3l3.9-0.8c0.6 1.5 2 3.4 5.9 6.1-4.9 1.6-10 3.4-15.1 5.6z"/>
</svg>
